G04 #@! TF.FileFunction,Copper,L2,Bot,Signal*
%FSLAX46Y46*%
G04 Gerber Fmt 4.6, Leading zero omitted, Abs format (unit mm)*
G04 Created by KiCad (PCBNEW 4.0.6) date 12/13/17 15:02:03*
%MOMM*%
%LPD*%
G01*
G04 APERTURE LIST*
%ADD10C,0.150000*%
%ADD11R,1.524000X1.524000*%
%ADD12C,1.524000*%
%ADD13R,1.700000X1.700000*%
%ADD14O,1.700000X1.700000*%
%ADD15C,0.508000*%
%ADD16C,0.152000*%
%ADD17C,0.457200*%
%ADD18C,0.254000*%
G04 APERTURE END LIST*
D10*
D11*
X280630000Y-126340000D03*
D12*
X278090000Y-126340000D03*
D11*
X268160000Y-142940000D03*
D12*
X268160000Y-140400000D03*
D13*
X312840000Y-127410000D03*
D14*
X312840000Y-129950000D03*
X312840000Y-132490000D03*
X312840000Y-135030000D03*
X312840000Y-137570000D03*
X312840000Y-140110000D03*
X312840000Y-142650000D03*
X312840000Y-145190000D03*
D15*
X297750000Y-143440000D03*
X278100000Y-140950000D03*
X275700000Y-141850000D03*
X287120000Y-142570000D03*
X282120000Y-136980000D03*
X279110000Y-128530000D03*
X282570000Y-128270000D03*
X287750000Y-138800000D03*
X293100000Y-144650000D03*
X292700000Y-134100000D03*
X285950000Y-141650000D03*
X273150000Y-130150000D03*
X276820000Y-128420000D03*
X284250000Y-143670000D03*
X280250000Y-138130000D03*
X284730000Y-127260000D03*
X283220000Y-133060000D03*
X275120000Y-130980000D03*
X274640000Y-137010000D03*
X274580000Y-129450000D03*
X301770000Y-137975000D03*
X273412500Y-142487500D03*
X289900000Y-145050000D03*
X301870000Y-135680000D03*
X301870000Y-136980000D03*
X280850000Y-129600000D03*
X282230000Y-131270000D03*
X281090000Y-140600000D03*
X278050000Y-139830000D03*
D16*
X293100000Y-144650000D02*
X296540000Y-144650000D01*
X296540000Y-144650000D02*
X297750000Y-143440000D01*
X277200000Y-141850000D02*
X275700000Y-141850000D01*
X278100000Y-140950000D02*
X277200000Y-141850000D01*
X275700000Y-141850000D02*
X278370000Y-144520000D01*
X278370000Y-144520000D02*
X285170000Y-144520000D01*
X285170000Y-144520000D02*
X287120000Y-142570000D01*
X285640000Y-136690000D02*
X287750000Y-138800000D01*
X282410000Y-136690000D02*
X285640000Y-136690000D01*
X282120000Y-136980000D02*
X282410000Y-136690000D01*
X279110000Y-128530000D02*
X282310000Y-128530000D01*
X282310000Y-128530000D02*
X282570000Y-128270000D01*
X287650000Y-141650000D02*
X288875000Y-140425000D01*
X287750000Y-138800000D02*
X287750000Y-139300000D01*
X287750000Y-139300000D02*
X288875000Y-140425000D01*
X288875000Y-140425000D02*
X293100000Y-144650000D01*
X285950000Y-141650000D02*
X287650000Y-141650000D01*
X273150000Y-130150000D02*
X273150000Y-130090000D01*
X274820000Y-128420000D02*
X276820000Y-128420000D01*
X273150000Y-130090000D02*
X274820000Y-128420000D01*
X276810000Y-128430000D02*
X276800000Y-128430000D01*
X276820000Y-128420000D02*
X276810000Y-128430000D01*
D17*
X280250000Y-138130000D02*
X280250000Y-138150000D01*
X284250000Y-142150000D02*
X284250000Y-143670000D01*
X280250000Y-138150000D02*
X284250000Y-142150000D01*
X279270000Y-137150000D02*
X279270000Y-137010000D01*
X280250000Y-138130000D02*
X279270000Y-137150000D01*
D16*
X283220000Y-128770000D02*
X283220000Y-133060000D01*
X284730000Y-127260000D02*
X283220000Y-128770000D01*
D17*
X274640000Y-137010000D02*
X279270000Y-137010000D01*
X279270000Y-137010000D02*
X283220000Y-133060000D01*
X275120000Y-130980000D02*
X275120000Y-136450000D01*
X275120000Y-136450000D02*
X274640000Y-137010000D01*
X275120000Y-129990000D02*
X275120000Y-130980000D01*
X274580000Y-129450000D02*
X275120000Y-129990000D01*
D16*
X289900000Y-145050000D02*
X290540000Y-145690000D01*
X297830000Y-145690000D02*
X290540000Y-145690000D01*
X299090000Y-144430000D02*
X297830000Y-145690000D01*
X299090000Y-140655000D02*
X299090000Y-144430000D01*
X299090000Y-140655000D02*
X301770000Y-137975000D01*
D17*
X275975000Y-145050000D02*
X289900000Y-145050000D01*
X275975000Y-145050000D02*
X273412500Y-142487500D01*
D16*
X303760000Y-137570000D02*
X312840000Y-137570000D01*
X301870000Y-135680000D02*
X303760000Y-137570000D01*
X305000000Y-140110000D02*
X312840000Y-140110000D01*
X301870000Y-136980000D02*
X305000000Y-140110000D01*
X280850000Y-129690000D02*
X280850000Y-129600000D01*
X282230000Y-131270000D02*
X280850000Y-129690000D01*
X278820000Y-140600000D02*
X281090000Y-140600000D01*
X278050000Y-139830000D02*
X278820000Y-140600000D01*
D18*
G36*
X276692758Y-126616661D02*
X276904990Y-127130303D01*
X277297630Y-127523629D01*
X277810900Y-127736757D01*
X278366661Y-127737242D01*
X278880303Y-127525010D01*
X279233763Y-127172167D01*
X279264838Y-127337317D01*
X279403910Y-127553441D01*
X279616110Y-127698431D01*
X279868000Y-127749440D01*
X281392000Y-127749440D01*
X281627317Y-127705162D01*
X281843441Y-127566090D01*
X281988431Y-127353890D01*
X282039440Y-127102000D01*
X282039440Y-126185000D01*
X311477686Y-126185000D01*
X311393569Y-126308110D01*
X311342560Y-126560000D01*
X311342560Y-128260000D01*
X311386838Y-128495317D01*
X311525910Y-128711441D01*
X311738110Y-128856431D01*
X311805541Y-128870086D01*
X311760853Y-128899946D01*
X311438946Y-129381715D01*
X311325907Y-129950000D01*
X311438946Y-130518285D01*
X311760853Y-131000054D01*
X312090026Y-131220000D01*
X311760853Y-131439946D01*
X311438946Y-131921715D01*
X311325907Y-132490000D01*
X311438946Y-133058285D01*
X311760853Y-133540054D01*
X312090026Y-133760000D01*
X311760853Y-133979946D01*
X311438946Y-134461715D01*
X311325907Y-135030000D01*
X311438946Y-135598285D01*
X311760853Y-136080054D01*
X312090026Y-136300000D01*
X311760853Y-136519946D01*
X311534305Y-136859000D01*
X304054506Y-136859000D01*
X302759102Y-135563596D01*
X302759154Y-135503943D01*
X302624097Y-135177080D01*
X302374236Y-134926782D01*
X302047609Y-134791154D01*
X301693943Y-134790846D01*
X301367080Y-134925903D01*
X301116782Y-135175764D01*
X300981154Y-135502391D01*
X300980846Y-135856057D01*
X301115903Y-136182920D01*
X301262764Y-136330037D01*
X301116782Y-136475764D01*
X300981154Y-136802391D01*
X300980846Y-137156057D01*
X301083402Y-137404261D01*
X301016782Y-137470764D01*
X300881154Y-137797391D01*
X300881101Y-137858393D01*
X298587247Y-140152247D01*
X298433122Y-140382912D01*
X298379000Y-140655000D01*
X298379000Y-144135494D01*
X297535494Y-144979000D01*
X290834506Y-144979000D01*
X290789102Y-144933596D01*
X290789154Y-144873943D01*
X290654097Y-144547080D01*
X290404236Y-144296782D01*
X290077609Y-144161154D01*
X289723943Y-144160846D01*
X289662098Y-144186400D01*
X284991033Y-144186400D01*
X285003218Y-144174236D01*
X285138846Y-143847609D01*
X285139154Y-143493943D01*
X285113600Y-143432098D01*
X285113600Y-142150000D01*
X285047862Y-141819515D01*
X285047862Y-141819514D01*
X284860657Y-141539342D01*
X281043319Y-137722005D01*
X281004097Y-137627080D01*
X280754236Y-137376782D01*
X280692434Y-137351120D01*
X280421314Y-137080000D01*
X283662079Y-133839236D01*
X283722920Y-133814097D01*
X283973218Y-133564236D01*
X284108846Y-133237609D01*
X284109154Y-132883943D01*
X283974097Y-132557080D01*
X283931000Y-132513908D01*
X283931000Y-129064506D01*
X284846404Y-128149102D01*
X284906057Y-128149154D01*
X285232920Y-128014097D01*
X285483218Y-127764236D01*
X285618846Y-127437609D01*
X285619154Y-127083943D01*
X285484097Y-126757080D01*
X285234236Y-126506782D01*
X284907609Y-126371154D01*
X284553943Y-126370846D01*
X284227080Y-126505903D01*
X283976782Y-126755764D01*
X283841154Y-127082391D01*
X283841101Y-127143393D01*
X282717247Y-128267247D01*
X282563122Y-128497912D01*
X282509000Y-128770000D01*
X282509000Y-130423255D01*
X282407609Y-130381154D01*
X282397672Y-130381145D01*
X281738977Y-129626987D01*
X281739154Y-129423943D01*
X281604097Y-129097080D01*
X281354236Y-128846782D01*
X281027609Y-128711154D01*
X280673943Y-128710846D01*
X280347080Y-128845903D01*
X280096782Y-129095764D01*
X279961154Y-129422391D01*
X279960846Y-129776057D01*
X280095903Y-130102920D01*
X280345764Y-130353218D01*
X280564630Y-130444099D01*
X281340945Y-131332923D01*
X281340846Y-131446057D01*
X281475903Y-131772920D01*
X281725764Y-132023218D01*
X282052391Y-132158846D01*
X282406057Y-132159154D01*
X282509000Y-132116619D01*
X282509000Y-132513620D01*
X282466782Y-132555764D01*
X282441120Y-132617565D01*
X278912286Y-136146400D01*
X275983600Y-136146400D01*
X275983600Y-131218408D01*
X276008846Y-131157609D01*
X276009154Y-130803943D01*
X275983600Y-130742098D01*
X275983600Y-129990000D01*
X275917862Y-129659515D01*
X275917862Y-129659514D01*
X275730657Y-129379342D01*
X275359236Y-129007922D01*
X275334097Y-128947080D01*
X275084236Y-128696782D01*
X274757609Y-128561154D01*
X274403943Y-128560846D01*
X274077080Y-128695903D01*
X273826782Y-128945764D01*
X273691154Y-129272391D01*
X273690846Y-129626057D01*
X273825903Y-129952920D01*
X274075764Y-130203218D01*
X274137566Y-130228881D01*
X274256400Y-130347715D01*
X274256400Y-130741592D01*
X274231154Y-130802391D01*
X274230846Y-131156057D01*
X274256400Y-131217902D01*
X274256400Y-136130533D01*
X274155445Y-136248315D01*
X274137080Y-136255903D01*
X273886782Y-136505764D01*
X273751154Y-136832391D01*
X273750846Y-137186057D01*
X273885903Y-137512920D01*
X274135764Y-137763218D01*
X274462391Y-137898846D01*
X274816057Y-137899154D01*
X274877902Y-137873600D01*
X278772286Y-137873600D01*
X279470764Y-138572079D01*
X279495903Y-138632920D01*
X279745764Y-138883218D01*
X279773365Y-138894679D01*
X280684384Y-139805698D01*
X280587080Y-139845903D01*
X280543908Y-139889000D01*
X279114506Y-139889000D01*
X278939102Y-139713596D01*
X278939154Y-139653943D01*
X278804097Y-139327080D01*
X278554236Y-139076782D01*
X278227609Y-138941154D01*
X277873943Y-138940846D01*
X277547080Y-139075903D01*
X277296782Y-139325764D01*
X277161154Y-139652391D01*
X277160846Y-140006057D01*
X277295903Y-140332920D01*
X277545764Y-140583218D01*
X277872391Y-140718846D01*
X277933393Y-140718899D01*
X278317247Y-141102753D01*
X278547912Y-141256878D01*
X278820000Y-141311000D01*
X280543620Y-141311000D01*
X280585764Y-141353218D01*
X280912391Y-141488846D01*
X281266057Y-141489154D01*
X281592920Y-141354097D01*
X281843218Y-141104236D01*
X281884208Y-141005522D01*
X283386400Y-142507715D01*
X283386400Y-143431592D01*
X283361154Y-143492391D01*
X283360846Y-143846057D01*
X283495903Y-144172920D01*
X283509359Y-144186400D01*
X276332715Y-144186400D01*
X274191737Y-142045423D01*
X274166597Y-141984580D01*
X273916736Y-141734282D01*
X273590109Y-141598654D01*
X273236443Y-141598346D01*
X272909580Y-141733403D01*
X272659282Y-141983264D01*
X272523654Y-142309891D01*
X272523346Y-142663557D01*
X272658403Y-142990420D01*
X272908264Y-143240718D01*
X272970067Y-143266381D01*
X275364342Y-145660657D01*
X275644514Y-145847862D01*
X275699345Y-145858769D01*
X275975000Y-145913600D01*
X289661592Y-145913600D01*
X289722391Y-145938846D01*
X289783393Y-145938899D01*
X290037247Y-146192753D01*
X290267912Y-146346878D01*
X290540000Y-146401000D01*
X297830000Y-146401000D01*
X298102088Y-146346878D01*
X298332753Y-146192753D01*
X299592753Y-144932753D01*
X299746878Y-144702088D01*
X299801000Y-144430000D01*
X299801000Y-140949506D01*
X301886404Y-138864102D01*
X301946057Y-138864154D01*
X302272920Y-138729097D01*
X302443404Y-138558910D01*
X304497247Y-140612753D01*
X304727912Y-140766878D01*
X305000000Y-140821000D01*
X311534305Y-140821000D01*
X311760853Y-141160054D01*
X312090026Y-141380000D01*
X311760853Y-141599946D01*
X311438946Y-142081715D01*
X311325907Y-142650000D01*
X311438946Y-143218285D01*
X311760853Y-143700054D01*
X312090026Y-143920000D01*
X311760853Y-144139946D01*
X311438946Y-144621715D01*
X311325907Y-145190000D01*
X311438946Y-145758285D01*
X311760853Y-146240054D01*
X312172340Y-146515000D01*
X266585000Y-146515000D01*
X266585000Y-142178000D01*
X266750560Y-142178000D01*
X266750560Y-143702000D01*
X266794838Y-143937317D01*
X266933910Y-144153441D01*
X267146110Y-144298431D01*
X267398000Y-144349440D01*
X268922000Y-144349440D01*
X269157317Y-144305162D01*
X269373441Y-144166090D01*
X269518431Y-143953890D01*
X269569440Y-143702000D01*
X269569440Y-142178000D01*
X269525162Y-141942683D01*
X269386090Y-141726559D01*
X269173890Y-141581569D01*
X268922000Y-141530560D01*
X268917484Y-141530560D01*
X268960608Y-141380213D01*
X268160000Y-140579605D01*
X267359392Y-141380213D01*
X267402516Y-141530560D01*
X267398000Y-141530560D01*
X267162683Y-141574838D01*
X266946559Y-141713910D01*
X266801569Y-141926110D01*
X266750560Y-142178000D01*
X266585000Y-142178000D01*
X266585000Y-140192302D01*
X266750856Y-140192302D01*
X266778638Y-140747368D01*
X266937603Y-141131143D01*
X267179787Y-141200608D01*
X267980395Y-140400000D01*
X268339605Y-140400000D01*
X269140213Y-141200608D01*
X269382397Y-141131143D01*
X269569144Y-140607698D01*
X269541362Y-140052632D01*
X269382397Y-139668857D01*
X269140213Y-139599392D01*
X268339605Y-140400000D01*
X267980395Y-140400000D01*
X267179787Y-139599392D01*
X266937603Y-139668857D01*
X266750856Y-140192302D01*
X266585000Y-140192302D01*
X266585000Y-139419787D01*
X267359392Y-139419787D01*
X268160000Y-140220395D01*
X268960608Y-139419787D01*
X268891143Y-139177603D01*
X268367698Y-138990856D01*
X267812632Y-139018638D01*
X267428857Y-139177603D01*
X267359392Y-139419787D01*
X266585000Y-139419787D01*
X266585000Y-132127000D01*
X272550000Y-132127000D01*
X272599410Y-132116994D01*
X272641035Y-132088553D01*
X272668315Y-132046159D01*
X272677000Y-132000000D01*
X272677000Y-126185000D01*
X276693135Y-126185000D01*
X276692758Y-126616661D01*
X276692758Y-126616661D01*
G37*
X276692758Y-126616661D02*
X276904990Y-127130303D01*
X277297630Y-127523629D01*
X277810900Y-127736757D01*
X278366661Y-127737242D01*
X278880303Y-127525010D01*
X279233763Y-127172167D01*
X279264838Y-127337317D01*
X279403910Y-127553441D01*
X279616110Y-127698431D01*
X279868000Y-127749440D01*
X281392000Y-127749440D01*
X281627317Y-127705162D01*
X281843441Y-127566090D01*
X281988431Y-127353890D01*
X282039440Y-127102000D01*
X282039440Y-126185000D01*
X311477686Y-126185000D01*
X311393569Y-126308110D01*
X311342560Y-126560000D01*
X311342560Y-128260000D01*
X311386838Y-128495317D01*
X311525910Y-128711441D01*
X311738110Y-128856431D01*
X311805541Y-128870086D01*
X311760853Y-128899946D01*
X311438946Y-129381715D01*
X311325907Y-129950000D01*
X311438946Y-130518285D01*
X311760853Y-131000054D01*
X312090026Y-131220000D01*
X311760853Y-131439946D01*
X311438946Y-131921715D01*
X311325907Y-132490000D01*
X311438946Y-133058285D01*
X311760853Y-133540054D01*
X312090026Y-133760000D01*
X311760853Y-133979946D01*
X311438946Y-134461715D01*
X311325907Y-135030000D01*
X311438946Y-135598285D01*
X311760853Y-136080054D01*
X312090026Y-136300000D01*
X311760853Y-136519946D01*
X311534305Y-136859000D01*
X304054506Y-136859000D01*
X302759102Y-135563596D01*
X302759154Y-135503943D01*
X302624097Y-135177080D01*
X302374236Y-134926782D01*
X302047609Y-134791154D01*
X301693943Y-134790846D01*
X301367080Y-134925903D01*
X301116782Y-135175764D01*
X300981154Y-135502391D01*
X300980846Y-135856057D01*
X301115903Y-136182920D01*
X301262764Y-136330037D01*
X301116782Y-136475764D01*
X300981154Y-136802391D01*
X300980846Y-137156057D01*
X301083402Y-137404261D01*
X301016782Y-137470764D01*
X300881154Y-137797391D01*
X300881101Y-137858393D01*
X298587247Y-140152247D01*
X298433122Y-140382912D01*
X298379000Y-140655000D01*
X298379000Y-144135494D01*
X297535494Y-144979000D01*
X290834506Y-144979000D01*
X290789102Y-144933596D01*
X290789154Y-144873943D01*
X290654097Y-144547080D01*
X290404236Y-144296782D01*
X290077609Y-144161154D01*
X289723943Y-144160846D01*
X289662098Y-144186400D01*
X284991033Y-144186400D01*
X285003218Y-144174236D01*
X285138846Y-143847609D01*
X285139154Y-143493943D01*
X285113600Y-143432098D01*
X285113600Y-142150000D01*
X285047862Y-141819515D01*
X285047862Y-141819514D01*
X284860657Y-141539342D01*
X281043319Y-137722005D01*
X281004097Y-137627080D01*
X280754236Y-137376782D01*
X280692434Y-137351120D01*
X280421314Y-137080000D01*
X283662079Y-133839236D01*
X283722920Y-133814097D01*
X283973218Y-133564236D01*
X284108846Y-133237609D01*
X284109154Y-132883943D01*
X283974097Y-132557080D01*
X283931000Y-132513908D01*
X283931000Y-129064506D01*
X284846404Y-128149102D01*
X284906057Y-128149154D01*
X285232920Y-128014097D01*
X285483218Y-127764236D01*
X285618846Y-127437609D01*
X285619154Y-127083943D01*
X285484097Y-126757080D01*
X285234236Y-126506782D01*
X284907609Y-126371154D01*
X284553943Y-126370846D01*
X284227080Y-126505903D01*
X283976782Y-126755764D01*
X283841154Y-127082391D01*
X283841101Y-127143393D01*
X282717247Y-128267247D01*
X282563122Y-128497912D01*
X282509000Y-128770000D01*
X282509000Y-130423255D01*
X282407609Y-130381154D01*
X282397672Y-130381145D01*
X281738977Y-129626987D01*
X281739154Y-129423943D01*
X281604097Y-129097080D01*
X281354236Y-128846782D01*
X281027609Y-128711154D01*
X280673943Y-128710846D01*
X280347080Y-128845903D01*
X280096782Y-129095764D01*
X279961154Y-129422391D01*
X279960846Y-129776057D01*
X280095903Y-130102920D01*
X280345764Y-130353218D01*
X280564630Y-130444099D01*
X281340945Y-131332923D01*
X281340846Y-131446057D01*
X281475903Y-131772920D01*
X281725764Y-132023218D01*
X282052391Y-132158846D01*
X282406057Y-132159154D01*
X282509000Y-132116619D01*
X282509000Y-132513620D01*
X282466782Y-132555764D01*
X282441120Y-132617565D01*
X278912286Y-136146400D01*
X275983600Y-136146400D01*
X275983600Y-131218408D01*
X276008846Y-131157609D01*
X276009154Y-130803943D01*
X275983600Y-130742098D01*
X275983600Y-129990000D01*
X275917862Y-129659515D01*
X275917862Y-129659514D01*
X275730657Y-129379342D01*
X275359236Y-129007922D01*
X275334097Y-128947080D01*
X275084236Y-128696782D01*
X274757609Y-128561154D01*
X274403943Y-128560846D01*
X274077080Y-128695903D01*
X273826782Y-128945764D01*
X273691154Y-129272391D01*
X273690846Y-129626057D01*
X273825903Y-129952920D01*
X274075764Y-130203218D01*
X274137566Y-130228881D01*
X274256400Y-130347715D01*
X274256400Y-130741592D01*
X274231154Y-130802391D01*
X274230846Y-131156057D01*
X274256400Y-131217902D01*
X274256400Y-136130533D01*
X274155445Y-136248315D01*
X274137080Y-136255903D01*
X273886782Y-136505764D01*
X273751154Y-136832391D01*
X273750846Y-137186057D01*
X273885903Y-137512920D01*
X274135764Y-137763218D01*
X274462391Y-137898846D01*
X274816057Y-137899154D01*
X274877902Y-137873600D01*
X278772286Y-137873600D01*
X279470764Y-138572079D01*
X279495903Y-138632920D01*
X279745764Y-138883218D01*
X279773365Y-138894679D01*
X280684384Y-139805698D01*
X280587080Y-139845903D01*
X280543908Y-139889000D01*
X279114506Y-139889000D01*
X278939102Y-139713596D01*
X278939154Y-139653943D01*
X278804097Y-139327080D01*
X278554236Y-139076782D01*
X278227609Y-138941154D01*
X277873943Y-138940846D01*
X277547080Y-139075903D01*
X277296782Y-139325764D01*
X277161154Y-139652391D01*
X277160846Y-140006057D01*
X277295903Y-140332920D01*
X277545764Y-140583218D01*
X277872391Y-140718846D01*
X277933393Y-140718899D01*
X278317247Y-141102753D01*
X278547912Y-141256878D01*
X278820000Y-141311000D01*
X280543620Y-141311000D01*
X280585764Y-141353218D01*
X280912391Y-141488846D01*
X281266057Y-141489154D01*
X281592920Y-141354097D01*
X281843218Y-141104236D01*
X281884208Y-141005522D01*
X283386400Y-142507715D01*
X283386400Y-143431592D01*
X283361154Y-143492391D01*
X283360846Y-143846057D01*
X283495903Y-144172920D01*
X283509359Y-144186400D01*
X276332715Y-144186400D01*
X274191737Y-142045423D01*
X274166597Y-141984580D01*
X273916736Y-141734282D01*
X273590109Y-141598654D01*
X273236443Y-141598346D01*
X272909580Y-141733403D01*
X272659282Y-141983264D01*
X272523654Y-142309891D01*
X272523346Y-142663557D01*
X272658403Y-142990420D01*
X272908264Y-143240718D01*
X272970067Y-143266381D01*
X275364342Y-145660657D01*
X275644514Y-145847862D01*
X275699345Y-145858769D01*
X275975000Y-145913600D01*
X289661592Y-145913600D01*
X289722391Y-145938846D01*
X289783393Y-145938899D01*
X290037247Y-146192753D01*
X290267912Y-146346878D01*
X290540000Y-146401000D01*
X297830000Y-146401000D01*
X298102088Y-146346878D01*
X298332753Y-146192753D01*
X299592753Y-144932753D01*
X299746878Y-144702088D01*
X299801000Y-144430000D01*
X299801000Y-140949506D01*
X301886404Y-138864102D01*
X301946057Y-138864154D01*
X302272920Y-138729097D01*
X302443404Y-138558910D01*
X304497247Y-140612753D01*
X304727912Y-140766878D01*
X305000000Y-140821000D01*
X311534305Y-140821000D01*
X311760853Y-141160054D01*
X312090026Y-141380000D01*
X311760853Y-141599946D01*
X311438946Y-142081715D01*
X311325907Y-142650000D01*
X311438946Y-143218285D01*
X311760853Y-143700054D01*
X312090026Y-143920000D01*
X311760853Y-144139946D01*
X311438946Y-144621715D01*
X311325907Y-145190000D01*
X311438946Y-145758285D01*
X311760853Y-146240054D01*
X312172340Y-146515000D01*
X266585000Y-146515000D01*
X266585000Y-142178000D01*
X266750560Y-142178000D01*
X266750560Y-143702000D01*
X266794838Y-143937317D01*
X266933910Y-144153441D01*
X267146110Y-144298431D01*
X267398000Y-144349440D01*
X268922000Y-144349440D01*
X269157317Y-144305162D01*
X269373441Y-144166090D01*
X269518431Y-143953890D01*
X269569440Y-143702000D01*
X269569440Y-142178000D01*
X269525162Y-141942683D01*
X269386090Y-141726559D01*
X269173890Y-141581569D01*
X268922000Y-141530560D01*
X268917484Y-141530560D01*
X268960608Y-141380213D01*
X268160000Y-140579605D01*
X267359392Y-141380213D01*
X267402516Y-141530560D01*
X267398000Y-141530560D01*
X267162683Y-141574838D01*
X266946559Y-141713910D01*
X266801569Y-141926110D01*
X266750560Y-142178000D01*
X266585000Y-142178000D01*
X266585000Y-140192302D01*
X266750856Y-140192302D01*
X266778638Y-140747368D01*
X266937603Y-141131143D01*
X267179787Y-141200608D01*
X267980395Y-140400000D01*
X268339605Y-140400000D01*
X269140213Y-141200608D01*
X269382397Y-141131143D01*
X269569144Y-140607698D01*
X269541362Y-140052632D01*
X269382397Y-139668857D01*
X269140213Y-139599392D01*
X268339605Y-140400000D01*
X267980395Y-140400000D01*
X267179787Y-139599392D01*
X266937603Y-139668857D01*
X266750856Y-140192302D01*
X266585000Y-140192302D01*
X266585000Y-139419787D01*
X267359392Y-139419787D01*
X268160000Y-140220395D01*
X268960608Y-139419787D01*
X268891143Y-139177603D01*
X268367698Y-138990856D01*
X267812632Y-139018638D01*
X267428857Y-139177603D01*
X267359392Y-139419787D01*
X266585000Y-139419787D01*
X266585000Y-132127000D01*
X272550000Y-132127000D01*
X272599410Y-132116994D01*
X272641035Y-132088553D01*
X272668315Y-132046159D01*
X272677000Y-132000000D01*
X272677000Y-126185000D01*
X276693135Y-126185000D01*
X276692758Y-126616661D01*
M02*
