M48
;DRILL file {KiCad 4.0.6} date 12/13/17 15:16:09
;FORMAT={-:-/ absolute / inch / decimal}
FMAT,2
INCH,TZ
T1C0.013
T2C0.039
T3C0.040
%
G90
G05
M72
T1
X10.7539Y-5.124
X10.7643Y-5.6097
X10.8102Y-5.0965
X10.8126Y-5.3941
X10.8315Y-5.1567
X10.8543Y-5.5846
X10.8984Y-5.0559
X10.9469Y-5.5051
X10.9488Y-5.5492
X10.9886Y-5.0602
X11.0335Y-5.4382
X11.0571Y-5.1024
X11.0665Y-5.5354
X11.1071Y-5.3929
X11.1114Y-5.1681
X11.1248Y-5.05
X11.1504Y-5.2386
X11.1909Y-5.6563
X11.2098Y-5.0102
X11.2579Y-5.5768
X11.3039Y-5.613
X11.3287Y-5.4646
X11.4134Y-5.7106
X11.5236Y-5.2795
X11.5394Y-5.6949
X11.7224Y-5.6472
X11.8807Y-5.4321
X11.8846Y-5.3417
X11.8846Y-5.3929
T2
X12.3165Y-5.0161
X12.3165Y-5.1161
X12.3165Y-5.2161
X12.3165Y-5.3161
X12.3165Y-5.4161
X12.3165Y-5.5161
X12.3165Y-5.6161
X12.3165Y-5.7161
T3
X10.5575Y-5.5276
X10.5575Y-5.6276
X10.9484Y-4.974
X11.0484Y-4.974
T0
M30
