G04 #@! TF.FileFunction,Copper,L1,Top,Signal*
%FSLAX46Y46*%
G04 Gerber Fmt 4.6, Leading zero omitted, Abs format (unit mm)*
G04 Created by KiCad (PCBNEW 4.0.6) date 12/13/17 15:02:02*
%MOMM*%
%LPD*%
G01*
G04 APERTURE LIST*
%ADD10C,0.150000*%
%ADD11R,0.398780X0.599440*%
%ADD12R,0.599440X0.398780*%
%ADD13R,0.600000X1.100000*%
%ADD14R,1.500000X0.300000*%
%ADD15R,0.300000X1.500000*%
%ADD16R,1.143000X0.635000*%
%ADD17R,0.200000X0.500000*%
%ADD18R,0.200000X0.550000*%
%ADD19R,0.500000X0.200000*%
%ADD20R,0.550000X0.200000*%
%ADD21R,0.700000X0.300000*%
%ADD22R,0.600000X0.600000*%
%ADD23R,1.524000X1.524000*%
%ADD24C,1.524000*%
%ADD25R,0.800000X0.800000*%
%ADD26R,0.650000X0.400000*%
%ADD27R,0.635000X1.143000*%
%ADD28R,0.900000X0.800000*%
%ADD29R,0.800000X1.600000*%
%ADD30R,0.200000X0.800000*%
%ADD31R,0.800000X0.200000*%
%ADD32R,1.112500X1.112500*%
%ADD33R,1.550000X0.600000*%
%ADD34R,0.650000X0.300000*%
%ADD35R,0.775000X1.240000*%
%ADD36R,1.700000X1.700000*%
%ADD37O,1.700000X1.700000*%
%ADD38C,0.508000*%
%ADD39C,0.152000*%
%ADD40C,0.457200*%
%ADD41C,0.229000*%
%ADD42C,0.460000*%
%ADD43C,0.152400*%
%ADD44C,0.254000*%
G04 APERTURE END LIST*
D10*
D11*
X306500420Y-142660000D03*
X307399580Y-142660000D03*
D12*
X300980000Y-138600420D03*
X300980000Y-139499580D03*
D13*
X276850000Y-138850000D03*
X275450000Y-138850000D03*
D12*
X280240000Y-140650420D03*
X280240000Y-141549580D03*
D11*
X278959580Y-139100000D03*
X278060420Y-139100000D03*
D12*
X276530000Y-143539580D03*
X276530000Y-142640420D03*
X283120000Y-142660420D03*
X283120000Y-143559580D03*
D11*
X306040420Y-127890000D03*
X306939580Y-127890000D03*
X305650420Y-134470000D03*
X306549580Y-134470000D03*
X305630420Y-140530000D03*
X306529580Y-140530000D03*
D14*
X297700000Y-140650000D03*
X297700000Y-140150000D03*
X297700000Y-139650000D03*
X297700000Y-139150000D03*
X297700000Y-138650000D03*
X297700000Y-138150000D03*
X297700000Y-137650000D03*
X297700000Y-137150000D03*
X297700000Y-136650000D03*
X297700000Y-136150000D03*
X297700000Y-135650000D03*
X297700000Y-135150000D03*
X297700000Y-134650000D03*
X297700000Y-134150000D03*
X297700000Y-133650000D03*
X297700000Y-133150000D03*
D15*
X295750000Y-131200000D03*
X295250000Y-131200000D03*
X294750000Y-131200000D03*
X294250000Y-131200000D03*
X293750000Y-131200000D03*
X293250000Y-131200000D03*
X292750000Y-131200000D03*
X292250000Y-131200000D03*
X291750000Y-131200000D03*
X291250000Y-131200000D03*
X290750000Y-131200000D03*
X290250000Y-131200000D03*
X289750000Y-131200000D03*
X289250000Y-131200000D03*
X288750000Y-131200000D03*
X288250000Y-131200000D03*
D14*
X286300000Y-133150000D03*
X286300000Y-133650000D03*
X286300000Y-134150000D03*
X286300000Y-134650000D03*
X286300000Y-135150000D03*
X286300000Y-135650000D03*
X286300000Y-136150000D03*
X286300000Y-136650000D03*
X286300000Y-137150000D03*
X286300000Y-137650000D03*
X286300000Y-138150000D03*
X286300000Y-138650000D03*
X286300000Y-139150000D03*
X286300000Y-139650000D03*
X286300000Y-140150000D03*
X286300000Y-140650000D03*
D15*
X288250000Y-142600000D03*
X288750000Y-142600000D03*
X289250000Y-142600000D03*
X289750000Y-142600000D03*
X290250000Y-142600000D03*
X290750000Y-142600000D03*
X291250000Y-142600000D03*
X291750000Y-142600000D03*
X292250000Y-142600000D03*
X292750000Y-142600000D03*
X293250000Y-142600000D03*
X293750000Y-142600000D03*
X294250000Y-142600000D03*
X294750000Y-142600000D03*
X295250000Y-142600000D03*
X295750000Y-142600000D03*
D16*
X276690000Y-145992000D03*
X276690000Y-144468000D03*
D12*
X283140000Y-144380420D03*
X283140000Y-145279580D03*
X274070000Y-139049580D03*
X274070000Y-138150420D03*
D17*
X282140000Y-130350000D03*
D18*
X282540000Y-130350000D03*
X282940000Y-130350000D03*
X283340000Y-130350000D03*
X283740000Y-130350000D03*
D17*
X284140000Y-130350000D03*
D19*
X284640000Y-129850000D03*
D20*
X284640000Y-129450000D03*
X284640000Y-129050000D03*
X284640000Y-128650000D03*
X284640000Y-128250000D03*
D19*
X284640000Y-127850000D03*
D17*
X284140000Y-127350000D03*
D18*
X283740000Y-127350000D03*
X283340000Y-127350000D03*
X282940000Y-127350000D03*
X282540000Y-127350000D03*
D17*
X282140000Y-127350000D03*
D19*
X281640000Y-127850000D03*
D20*
X281640000Y-128250000D03*
X281640000Y-128650000D03*
X281640000Y-129050000D03*
X281640000Y-129450000D03*
D19*
X281640000Y-129850000D03*
D11*
X283199580Y-132210000D03*
X282300420Y-132210000D03*
X283719580Y-131270000D03*
X282820420Y-131270000D03*
X285650420Y-127360000D03*
X286549580Y-127360000D03*
D12*
X285780000Y-128730420D03*
X285780000Y-129629580D03*
D21*
X278326500Y-128500000D03*
D22*
X278000000Y-129112500D03*
X278000000Y-127887500D03*
D21*
X277637500Y-128500000D03*
D11*
X275729580Y-128620000D03*
X274830420Y-128620000D03*
X273150420Y-129450000D03*
X274049580Y-129450000D03*
D16*
X289100000Y-128512000D03*
X289100000Y-126988000D03*
D23*
X280630000Y-126340000D03*
D24*
X278090000Y-126340000D03*
D12*
X297075000Y-128375420D03*
X297075000Y-129274580D03*
D11*
X288100420Y-144950000D03*
X288999580Y-144950000D03*
D25*
X284310000Y-139400000D03*
X282710000Y-139400000D03*
D11*
X288100420Y-146000000D03*
X288999580Y-146000000D03*
D26*
X274262500Y-143537500D03*
X274262500Y-142237500D03*
X272362500Y-142887500D03*
X274262500Y-142887500D03*
X272362500Y-142237500D03*
X272362500Y-143537500D03*
D12*
X290800000Y-127849580D03*
X290800000Y-126950420D03*
X296025000Y-128375420D03*
X296025000Y-129274580D03*
D11*
X284950420Y-142675000D03*
X285849580Y-142675000D03*
X300190420Y-132060000D03*
X301089580Y-132060000D03*
X285849580Y-143750000D03*
X284950420Y-143750000D03*
X291500420Y-145850000D03*
X292399580Y-145850000D03*
X291500420Y-144725000D03*
X292399580Y-144725000D03*
X294749580Y-145900000D03*
X293850420Y-145900000D03*
D12*
X286975000Y-129775420D03*
X286975000Y-130674580D03*
D11*
X294749580Y-144725000D03*
X293850420Y-144725000D03*
D12*
X293775000Y-126950420D03*
X293775000Y-127849580D03*
X299700000Y-129530420D03*
X299700000Y-130429580D03*
X298475000Y-129530420D03*
X298475000Y-130429580D03*
D16*
X292275000Y-126963000D03*
X292275000Y-128487000D03*
X270712500Y-141925500D03*
X270712500Y-143449500D03*
D11*
X272762920Y-141287500D03*
X273662080Y-141287500D03*
D12*
X275362500Y-143537080D03*
X275362500Y-142637920D03*
D11*
X278610420Y-142930000D03*
X279509580Y-142930000D03*
D12*
X300075000Y-144549580D03*
X300075000Y-143650420D03*
X301175000Y-144549580D03*
X301175000Y-143650420D03*
D11*
X300150420Y-133160000D03*
X301049580Y-133160000D03*
X300175420Y-134250000D03*
X301074580Y-134250000D03*
X300200420Y-135690000D03*
X301099580Y-135690000D03*
X300200420Y-136910000D03*
X301099580Y-136910000D03*
D25*
X284310000Y-140650000D03*
X282710000Y-140650000D03*
D23*
X268160000Y-142940000D03*
D24*
X268160000Y-140400000D03*
D27*
X272932000Y-138620000D03*
X271408000Y-138620000D03*
D28*
X270800000Y-133500000D03*
X272200000Y-133500000D03*
X270800000Y-134600000D03*
X272200000Y-134600000D03*
D12*
X274890000Y-140390420D03*
X274890000Y-141289580D03*
D11*
X273649580Y-140200000D03*
X272750420Y-140200000D03*
D12*
X269800000Y-133750420D03*
X269800000Y-134649580D03*
X273200000Y-134549580D03*
X273200000Y-133650420D03*
D11*
X276899580Y-129450000D03*
X276000420Y-129450000D03*
D12*
X275910000Y-140390420D03*
X275910000Y-141289580D03*
D29*
X270745000Y-127673000D03*
X267345000Y-127673000D03*
D11*
X272849580Y-127700000D03*
X271950420Y-127700000D03*
D12*
X274000000Y-127650420D03*
X274000000Y-128549580D03*
D11*
X276049580Y-127700000D03*
X275150420Y-127700000D03*
X271730420Y-137270000D03*
X272629580Y-137270000D03*
D27*
X273262000Y-136000000D03*
X271738000Y-136000000D03*
X281028000Y-138030000D03*
X282552000Y-138030000D03*
D30*
X275600000Y-137000000D03*
X276000000Y-137000000D03*
X276400000Y-137000000D03*
X276800000Y-137000000D03*
X277200000Y-137000000D03*
X277600000Y-137000000D03*
X278000000Y-137000000D03*
X278400000Y-137000000D03*
X278800000Y-137000000D03*
X279200000Y-137000000D03*
X279600000Y-137000000D03*
X280000000Y-137000000D03*
D31*
X280800000Y-136200000D03*
X280800000Y-135800000D03*
X280800000Y-135400000D03*
X280800000Y-135000000D03*
X280800000Y-134600000D03*
X280800000Y-134200000D03*
X280800000Y-133800000D03*
X280800000Y-133400000D03*
X280800000Y-133000000D03*
X280800000Y-132600000D03*
X280800000Y-132200000D03*
X280800000Y-131800000D03*
D30*
X280000000Y-131000000D03*
X279600000Y-131000000D03*
X279200000Y-131000000D03*
X278800000Y-131000000D03*
X278400000Y-131000000D03*
X278000000Y-131000000D03*
X277600000Y-131000000D03*
X277200000Y-131000000D03*
X276800000Y-131000000D03*
X276400000Y-131000000D03*
X276000000Y-131000000D03*
X275600000Y-131000000D03*
D31*
X274800000Y-131800000D03*
X274800000Y-132200000D03*
X274800000Y-132600000D03*
X274800000Y-133000000D03*
X274800000Y-133400000D03*
X274800000Y-133800000D03*
X274800000Y-134200000D03*
X274800000Y-134600000D03*
X274800000Y-135000000D03*
X274800000Y-135400000D03*
X274800000Y-135800000D03*
X274800000Y-136200000D03*
D32*
X279468750Y-132331250D03*
X278356250Y-132331250D03*
X277243750Y-132331250D03*
X276131250Y-132331250D03*
X279468750Y-133443750D03*
X278356250Y-133443750D03*
X277243750Y-133443750D03*
X276131250Y-133443750D03*
X279468750Y-134556250D03*
X278356250Y-134556250D03*
X277243750Y-134556250D03*
X276131250Y-134556250D03*
X279468750Y-135668750D03*
X278356250Y-135668750D03*
X277243750Y-135668750D03*
X276131250Y-135668750D03*
D33*
X308880000Y-136705000D03*
X308880000Y-139245000D03*
X308880000Y-137975000D03*
X308880000Y-135435000D03*
X303480000Y-135435000D03*
X303480000Y-136705000D03*
X303480000Y-137975000D03*
X303480000Y-139245000D03*
X308870000Y-131005000D03*
X308870000Y-133545000D03*
X308870000Y-132275000D03*
X308870000Y-129735000D03*
X303470000Y-129735000D03*
X303470000Y-131005000D03*
X303470000Y-132275000D03*
X303470000Y-133545000D03*
D34*
X278410000Y-144120000D03*
X278410000Y-144620000D03*
X278410000Y-145120000D03*
X278410000Y-145620000D03*
X278410000Y-146120000D03*
X281510000Y-146120000D03*
X281510000Y-145620000D03*
X281510000Y-145120000D03*
X281510000Y-144620000D03*
X281510000Y-144120000D03*
D35*
X280347500Y-145740000D03*
X280347500Y-144500000D03*
X279572500Y-145740000D03*
X279572500Y-144500000D03*
D26*
X279010000Y-141550000D03*
X279010000Y-140250000D03*
X279010000Y-140900000D03*
X277110000Y-140250000D03*
X277110000Y-141550000D03*
D36*
X312840000Y-127410000D03*
D37*
X312840000Y-129950000D03*
X312840000Y-132490000D03*
X312840000Y-135030000D03*
X312840000Y-137570000D03*
X312840000Y-140110000D03*
X312840000Y-142650000D03*
X312840000Y-145190000D03*
D38*
X297750000Y-143440000D03*
X278100000Y-140950000D03*
X275700000Y-141850000D03*
X287120000Y-142570000D03*
X282120000Y-136980000D03*
X279110000Y-128530000D03*
X282570000Y-128270000D03*
X287750000Y-138800000D03*
X293100000Y-144650000D03*
X292700000Y-134100000D03*
X285950000Y-141650000D03*
X273150000Y-130150000D03*
X276820000Y-128420000D03*
X284250000Y-143670000D03*
X280250000Y-138130000D03*
X284730000Y-127260000D03*
X283220000Y-133060000D03*
X275120000Y-130980000D03*
X274640000Y-137010000D03*
X274580000Y-129450000D03*
X301770000Y-137975000D03*
X273412500Y-142487500D03*
X289900000Y-145050000D03*
X301870000Y-135680000D03*
X301870000Y-136980000D03*
X280850000Y-129600000D03*
X282230000Y-131270000D03*
X281090000Y-140600000D03*
X278050000Y-139830000D03*
D39*
X274100000Y-140200000D02*
X273649580Y-140200000D01*
X274730000Y-139570000D02*
X274100000Y-140200000D01*
X274730000Y-138010000D02*
X274730000Y-139570000D01*
X275600000Y-137140000D02*
X274730000Y-138010000D01*
X275600000Y-137000000D02*
X275600000Y-137140000D01*
X275600000Y-137000000D02*
X275550000Y-137000000D01*
X276899580Y-129450000D02*
X276899580Y-129699580D01*
X276899580Y-129699580D02*
X277200000Y-130000000D01*
X277200000Y-130000000D02*
X277200000Y-131000000D01*
D40*
X276049580Y-127700000D02*
X277800000Y-127700000D01*
X277800000Y-127700000D02*
X278000000Y-127900000D01*
D41*
X280800000Y-135000000D02*
X283060000Y-135000000D01*
X284710000Y-136650000D02*
X286300000Y-136650000D01*
X283060000Y-135000000D02*
X284710000Y-136650000D01*
X280800000Y-134600000D02*
X283550000Y-134600000D01*
X285100000Y-136150000D02*
X286300000Y-136150000D01*
X283550000Y-134600000D02*
X285100000Y-136150000D01*
D39*
X286200000Y-136250000D02*
X286300000Y-136150000D01*
X280000000Y-131000000D02*
X280000000Y-129510000D01*
X280730000Y-128780000D02*
X280730000Y-126440000D01*
X280000000Y-129510000D02*
X280730000Y-128780000D01*
X280730000Y-126440000D02*
X280630000Y-126340000D01*
X280000000Y-131000000D02*
X280000000Y-130730000D01*
X278090000Y-126340000D02*
X278300000Y-126340000D01*
X278300000Y-126340000D02*
X279600000Y-127640000D01*
X279600000Y-127640000D02*
X279600000Y-131000000D01*
D41*
X280800000Y-135800000D02*
X282190000Y-135800000D01*
X285130000Y-140150000D02*
X286300000Y-140150000D01*
X285110000Y-140130000D02*
X285130000Y-140150000D01*
X285110000Y-138720000D02*
X285110000Y-140130000D01*
X282190000Y-135800000D02*
X285110000Y-138720000D01*
D42*
X271950420Y-127700000D02*
X270772000Y-127700000D01*
X270772000Y-127700000D02*
X270745000Y-127673000D01*
D39*
X271408000Y-138620000D02*
X271408000Y-137592420D01*
X271408000Y-137592420D02*
X271730420Y-137270000D01*
X299700000Y-129530420D02*
X300729580Y-129530420D01*
X306939580Y-127279580D02*
X306939580Y-127890000D01*
X306610000Y-126950000D02*
X306939580Y-127279580D01*
X305570000Y-126950000D02*
X306610000Y-126950000D01*
X304320000Y-128200000D02*
X305570000Y-126950000D01*
X302060000Y-128200000D02*
X304320000Y-128200000D01*
X300729580Y-129530420D02*
X302060000Y-128200000D01*
X308870000Y-129735000D02*
X308405000Y-129735000D01*
X308405000Y-129735000D02*
X306120000Y-132020000D01*
X306445000Y-135435000D02*
X308880000Y-135435000D01*
X306120000Y-135110000D02*
X306445000Y-135435000D01*
X306120000Y-132020000D02*
X306120000Y-135110000D01*
X300980000Y-140210000D02*
X300980000Y-139499580D01*
X297750000Y-143440000D02*
X300980000Y-140210000D01*
D41*
X308870000Y-129735000D02*
X308015000Y-129735000D01*
X307045000Y-128765000D02*
X306939580Y-128659580D01*
X306939580Y-128659580D02*
X306939580Y-127890000D01*
X308015000Y-129735000D02*
X307045000Y-128765000D01*
D39*
X279010000Y-140900000D02*
X278150000Y-140900000D01*
X278150000Y-140900000D02*
X278100000Y-140950000D01*
X283140000Y-144380420D02*
X285219160Y-144380420D01*
X285219160Y-144380420D02*
X285849580Y-143750000D01*
X283120000Y-143559580D02*
X283120000Y-144360420D01*
X283120000Y-144360420D02*
X283140000Y-144380420D01*
X279010000Y-140900000D02*
X279260000Y-140900000D01*
X279260000Y-140900000D02*
X279680000Y-140480000D01*
X279680000Y-140480000D02*
X279680000Y-139820420D01*
X279680000Y-139820420D02*
X278959580Y-139100000D01*
X275910000Y-141289580D02*
X275910000Y-141640000D01*
X275910000Y-141640000D02*
X275700000Y-141850000D01*
X287110000Y-142580000D02*
X287110000Y-142600000D01*
X287120000Y-142570000D02*
X287110000Y-142580000D01*
X273662080Y-141287500D02*
X274887920Y-141287500D01*
X274887920Y-141287500D02*
X274890000Y-141289580D01*
X274890000Y-141289580D02*
X275910000Y-141289580D01*
X276530000Y-142640420D02*
X275365000Y-142640420D01*
X275365000Y-142640420D02*
X275362500Y-142637920D01*
X280347500Y-145740000D02*
X279572500Y-145740000D01*
X278410000Y-145120000D02*
X278952500Y-145120000D01*
X278952500Y-145120000D02*
X279572500Y-144500000D01*
X279572500Y-144500000D02*
X279572500Y-145740000D01*
X280347500Y-144500000D02*
X279572500Y-144500000D01*
X281510000Y-144620000D02*
X280467500Y-144620000D01*
X280467500Y-144620000D02*
X280347500Y-144500000D01*
X281510000Y-144620000D02*
X282900420Y-144620000D01*
X282900420Y-144620000D02*
X283140000Y-144380420D01*
X279509580Y-142930000D02*
X279509580Y-144437080D01*
X279509580Y-144437080D02*
X279572500Y-144500000D01*
X282552000Y-138030000D02*
X282552000Y-137412000D01*
X282552000Y-137412000D02*
X282120000Y-136980000D01*
X308870000Y-129735000D02*
X308265000Y-129735000D01*
D41*
X279080000Y-128500000D02*
X279110000Y-128530000D01*
X278326500Y-128500000D02*
X279080000Y-128500000D01*
D39*
X282570000Y-128270000D02*
X282585000Y-128255000D01*
X282585000Y-128255000D02*
X282570000Y-128270000D01*
X282570000Y-128270000D02*
X282570000Y-128240000D01*
X308880000Y-135435000D02*
X308880000Y-135380000D01*
D41*
X298475000Y-129530420D02*
X298475000Y-129325000D01*
X297525420Y-128375420D02*
X297075000Y-128375420D01*
X298475000Y-129325000D02*
X297525420Y-128375420D01*
D39*
X298475000Y-129530420D02*
X298475000Y-129435000D01*
D40*
X271470000Y-140200000D02*
X268360000Y-140200000D01*
X268360000Y-140200000D02*
X268160000Y-140400000D01*
D39*
X286975000Y-130674580D02*
X287724580Y-130674580D01*
X287724580Y-130674580D02*
X288250000Y-131200000D01*
X293100000Y-144650000D02*
X293100000Y-144725000D01*
D40*
X293775000Y-126950420D02*
X294375420Y-126950420D01*
X294375420Y-126950420D02*
X295800420Y-128375420D01*
D39*
X292399580Y-144725000D02*
X293100000Y-144725000D01*
X293100000Y-144725000D02*
X293850420Y-144725000D01*
X292399580Y-144725000D02*
X292399580Y-142749580D01*
X292399580Y-142749580D02*
X292250000Y-142600000D01*
X288250000Y-143725000D02*
X288250000Y-144800420D01*
X288250000Y-144800420D02*
X288100420Y-144950000D01*
X292449580Y-145900000D02*
X292399580Y-145850000D01*
X292750000Y-131200000D02*
X292750000Y-130375000D01*
X294749580Y-128375420D02*
X296025000Y-128375420D01*
X292750000Y-130375000D02*
X294749580Y-128375420D01*
D40*
X298475000Y-129530420D02*
X299700000Y-129530420D01*
X297075000Y-128375420D02*
X296025000Y-128375420D01*
X295800420Y-128375420D02*
X296025000Y-128375420D01*
X293775000Y-126950420D02*
X292287580Y-126950420D01*
X292287580Y-126950420D02*
X292275000Y-126963000D01*
X290800000Y-126950420D02*
X292262420Y-126950420D01*
X292262420Y-126950420D02*
X292275000Y-126963000D01*
D39*
X294250000Y-132425000D02*
X294250000Y-131200000D01*
X290250000Y-142600000D02*
X290250000Y-143550000D01*
X290250000Y-143550000D02*
X289900000Y-143900000D01*
X288100420Y-146000000D02*
X288100420Y-144950000D01*
X292399580Y-145850000D02*
X292399580Y-144725000D01*
X293850420Y-144725000D02*
X293850420Y-145900000D01*
X288750000Y-131200000D02*
X288250000Y-131200000D01*
X274262500Y-142237500D02*
X274962080Y-142237500D01*
X274962080Y-142237500D02*
X275362500Y-142637920D01*
D40*
X289100000Y-126988000D02*
X290762420Y-126988000D01*
D39*
X290762420Y-126988000D02*
X290800000Y-126950420D01*
X289112420Y-127000420D02*
X289100000Y-126988000D01*
X273662080Y-141287500D02*
X273662080Y-141637080D01*
X273662080Y-141637080D02*
X274262500Y-142237500D01*
X292750000Y-132400000D02*
X292750000Y-131200000D01*
X291750000Y-132700000D02*
X291750000Y-131200000D01*
X288250000Y-131200000D02*
X288250000Y-131800000D01*
X288250000Y-131200000D02*
X288250000Y-130900000D01*
X288250000Y-131200000D02*
X288250000Y-131000000D01*
X292750000Y-142600000D02*
X292250000Y-142600000D01*
X275417500Y-142582920D02*
X275362500Y-142637920D01*
X275362500Y-142637920D02*
X275392080Y-142637920D01*
X275362500Y-142637920D02*
X275362500Y-142637500D01*
D40*
X292400000Y-132750000D02*
X292400000Y-133800000D01*
X292400000Y-133800000D02*
X292700000Y-134100000D01*
D39*
X287500000Y-138550000D02*
X287750000Y-138800000D01*
X288425000Y-143900000D02*
X288250000Y-143725000D01*
X289225000Y-132750000D02*
X291700000Y-132750000D01*
X292400000Y-132750000D02*
X293925000Y-132750000D01*
X293925000Y-132750000D02*
X294250000Y-132425000D01*
X289900000Y-143900000D02*
X289275000Y-143900000D01*
X291700000Y-132750000D02*
X292400000Y-132750000D01*
X292400000Y-132750000D02*
X292750000Y-132400000D01*
X291700000Y-132750000D02*
X291750000Y-132700000D01*
X285950000Y-141650000D02*
X285849580Y-141750420D01*
X288712500Y-132237500D02*
X289225000Y-132750000D01*
X287700000Y-133250000D02*
X288712500Y-132237500D01*
X288712500Y-132237500D02*
X288750000Y-132200000D01*
X287400000Y-133250000D02*
X287700000Y-133250000D01*
X287400000Y-133250000D02*
X287500000Y-133350000D01*
X287300000Y-133150000D02*
X287400000Y-133250000D01*
X287500000Y-133350000D02*
X287500000Y-135450000D01*
X287500000Y-137100000D02*
X287500000Y-135450000D01*
X287500000Y-135450000D02*
X287500000Y-135550000D01*
X287500000Y-135550000D02*
X287400000Y-135650000D01*
X287500000Y-138325000D02*
X287500000Y-138550000D01*
X287500000Y-137125000D02*
X287500000Y-138325000D01*
X287500000Y-138325000D02*
X287500000Y-138375000D01*
X287500000Y-138375000D02*
X287225000Y-138650000D01*
X287500000Y-137150000D02*
X287500000Y-137125000D01*
X287500000Y-137125000D02*
X287500000Y-137100000D01*
X289275000Y-143900000D02*
X288425000Y-143900000D01*
X289275000Y-143900000D02*
X289250000Y-143900000D01*
X282140000Y-127350000D02*
X282140000Y-127810000D01*
X283850000Y-129050000D02*
X284640000Y-129050000D01*
X283110000Y-128310000D02*
X283850000Y-129050000D01*
X282640000Y-128310000D02*
X283110000Y-128310000D01*
X282140000Y-127810000D02*
X282570000Y-128240000D01*
X282570000Y-128240000D02*
X282640000Y-128310000D01*
X273150420Y-130149580D02*
X273150000Y-130150000D01*
X273150420Y-129450000D02*
X273150420Y-130149580D01*
X285930000Y-129629580D02*
X286975000Y-130674580D01*
X272750420Y-140200000D02*
X272750420Y-139709580D01*
X273609580Y-139510000D02*
X274070000Y-139049580D01*
X272950000Y-139510000D02*
X273609580Y-139510000D01*
X272750420Y-139709580D02*
X272950000Y-139510000D01*
X285780000Y-129629580D02*
X286150420Y-129629580D01*
X286549580Y-129230420D02*
X286549580Y-127930420D01*
X286150420Y-129629580D02*
X286549580Y-129230420D01*
X285780000Y-129629580D02*
X285930000Y-129629580D01*
X284640000Y-129050000D02*
X285200420Y-129050000D01*
X285200420Y-129050000D02*
X285780000Y-129629580D01*
X284640000Y-127850000D02*
X285050000Y-127850000D01*
X286290000Y-128190000D02*
X286549580Y-127930420D01*
X285390000Y-128190000D02*
X286290000Y-128190000D01*
X285050000Y-127850000D02*
X285390000Y-128190000D01*
X286549580Y-127930420D02*
X286549580Y-127360000D01*
X276000420Y-129450000D02*
X275660420Y-129450000D01*
X275660420Y-129450000D02*
X274830420Y-128620000D01*
D40*
X274000000Y-128549580D02*
X274760000Y-128549580D01*
X274760000Y-128549580D02*
X274830420Y-128620000D01*
D39*
X276900000Y-128500000D02*
X276820000Y-128420000D01*
X277637500Y-128500000D02*
X276900000Y-128500000D01*
X277637500Y-128500000D02*
X278326500Y-128500000D01*
X272750420Y-140200000D02*
X272750420Y-140375840D01*
X272750420Y-140375840D02*
X273662080Y-141287500D01*
D40*
X273150420Y-129450000D02*
X273150420Y-128799580D01*
X273150420Y-128799580D02*
X273400420Y-128549580D01*
X273400420Y-128549580D02*
X274000000Y-128549580D01*
X270230000Y-139280000D02*
X270230000Y-137508000D01*
X270230000Y-137508000D02*
X271738000Y-136000000D01*
X271150000Y-140200000D02*
X271470000Y-140200000D01*
X271470000Y-140200000D02*
X272750420Y-140200000D01*
X270230000Y-139280000D02*
X271150000Y-140200000D01*
D39*
X273200000Y-134549580D02*
X273449580Y-134549580D01*
X273449580Y-134549580D02*
X273900000Y-135000000D01*
X273900000Y-135000000D02*
X274800000Y-135000000D01*
X277600000Y-131000000D02*
X277600000Y-129700000D01*
X277350000Y-129450000D02*
X277350000Y-128500000D01*
X277600000Y-129700000D02*
X277350000Y-129450000D01*
X278356250Y-132331250D02*
X278356250Y-133443750D01*
X277243750Y-135668750D02*
X276131250Y-135668750D01*
X278356250Y-135668750D02*
X277243750Y-135668750D01*
X279468750Y-135668750D02*
X278356250Y-135668750D01*
X279468750Y-134556250D02*
X279468750Y-135668750D01*
X278356250Y-134556250D02*
X279468750Y-134556250D01*
X277243750Y-134556250D02*
X278356250Y-134556250D01*
X276131250Y-134556250D02*
X277243750Y-134556250D01*
X276131250Y-133443750D02*
X276131250Y-134556250D01*
X277243750Y-133443750D02*
X276131250Y-133443750D01*
X278356250Y-133443750D02*
X277243750Y-133443750D01*
X279468750Y-132331250D02*
X279468750Y-133443750D01*
X278356250Y-132331250D02*
X279468750Y-132331250D01*
X277243750Y-132331250D02*
X278356250Y-132331250D01*
X276131250Y-132331250D02*
X277243750Y-132331250D01*
X274800000Y-135000000D02*
X275687500Y-135000000D01*
X275687500Y-135000000D02*
X276131250Y-134556250D01*
X277600000Y-131000000D02*
X277600000Y-131975000D01*
X277600000Y-131975000D02*
X277243750Y-132331250D01*
X270800000Y-133500000D02*
X270050420Y-133500000D01*
X270050420Y-133500000D02*
X269800000Y-133750420D01*
X273200000Y-134549580D02*
X272250420Y-134549580D01*
X272250420Y-134549580D02*
X272200000Y-134600000D01*
X288250000Y-142600000D02*
X287110000Y-142600000D01*
X287110000Y-142600000D02*
X285924580Y-142600000D01*
X285924580Y-142600000D02*
X285849580Y-142675000D01*
X285849580Y-141750420D02*
X285849580Y-142675000D01*
X285849580Y-143750000D02*
X285849580Y-142675000D01*
X288250000Y-142600000D02*
X288250000Y-143725000D01*
X289250000Y-143900000D02*
X289250000Y-142600000D01*
X287225000Y-138650000D02*
X286300000Y-138650000D01*
X286300000Y-137650000D02*
X286300000Y-137150000D01*
X286300000Y-138650000D02*
X286300000Y-139150000D01*
X286300000Y-139150000D02*
X286300000Y-139650000D01*
X286300000Y-133150000D02*
X287300000Y-133150000D01*
X286300000Y-137150000D02*
X287500000Y-137150000D01*
X288750000Y-132200000D02*
X288750000Y-131200000D01*
X287400000Y-135650000D02*
X286300000Y-135650000D01*
X269800000Y-133750420D02*
X269093580Y-133750420D01*
X269093580Y-133750420D02*
X268986000Y-133858000D01*
X268986000Y-133858000D02*
X268986000Y-135610000D01*
X268986000Y-135610000D02*
X268986000Y-135636000D01*
X268986000Y-135636000D02*
X272034000Y-135636000D01*
X272034000Y-135636000D02*
X272200000Y-135470000D01*
X272200000Y-135470000D02*
X272200000Y-134650000D01*
D43*
X272300420Y-134549580D02*
X272200000Y-134650000D01*
D41*
X284310000Y-140650000D02*
X284380000Y-140650000D01*
X284380000Y-140650000D02*
X284950420Y-141220420D01*
X284310000Y-139400000D02*
X284310000Y-140650000D01*
D39*
X281510000Y-144120000D02*
X281510000Y-143080000D01*
X281510000Y-143080000D02*
X281510000Y-143070000D01*
X278610420Y-142539580D02*
X278610420Y-142930000D01*
X279010000Y-142140000D02*
X278610420Y-142539580D01*
X280580000Y-142140000D02*
X279010000Y-142140000D01*
X281510000Y-143070000D02*
X280580000Y-142140000D01*
X281510000Y-144120000D02*
X281610000Y-144120000D01*
X281610000Y-144120000D02*
X282610000Y-143120000D01*
X283700000Y-143120000D02*
X284250000Y-143670000D01*
X282610000Y-143120000D02*
X283700000Y-143120000D01*
X278410000Y-144120000D02*
X278410000Y-143130420D01*
X278410000Y-143130420D02*
X278610420Y-142930000D01*
D40*
X284330000Y-143750000D02*
X284250000Y-143670000D01*
X284950420Y-143750000D02*
X284330000Y-143750000D01*
D39*
X281028000Y-138030000D02*
X280350000Y-138030000D01*
X280350000Y-138030000D02*
X280250000Y-138130000D01*
X281028000Y-138030000D02*
X281028000Y-136428000D01*
X281028000Y-136428000D02*
X280800000Y-136200000D01*
X285650420Y-127360000D02*
X284830000Y-127360000D01*
X284830000Y-127360000D02*
X284730000Y-127260000D01*
X284140000Y-127350000D02*
X284640000Y-127350000D01*
X284640000Y-127350000D02*
X284730000Y-127260000D01*
X283199580Y-132210000D02*
X283199580Y-131790000D01*
X283199580Y-131790000D02*
X283719580Y-131270000D01*
X285640420Y-127350000D02*
X285650420Y-127360000D01*
D40*
X283199580Y-133039580D02*
X283199580Y-132210000D01*
X283220000Y-133060000D02*
X283199580Y-133039580D01*
D39*
X284950420Y-143750000D02*
X284950420Y-142675000D01*
X284950420Y-142675000D02*
X284950420Y-141220420D01*
X284950420Y-141220420D02*
X284950420Y-141099580D01*
X285400000Y-140650000D02*
X286300000Y-140650000D01*
X284950420Y-141099580D02*
X285400000Y-140650000D01*
X288000000Y-140650000D02*
X288850000Y-140650000D01*
X289750000Y-141550000D02*
X289750000Y-142600000D01*
X288850000Y-140650000D02*
X289750000Y-141550000D01*
X286300000Y-140650000D02*
X288000000Y-140650000D01*
X288750000Y-141400000D02*
X288750000Y-142600000D01*
X288000000Y-140650000D02*
X288750000Y-141400000D01*
X275120000Y-130980000D02*
X275140000Y-131000000D01*
X274070000Y-137580000D02*
X274640000Y-137010000D01*
X274640000Y-137010000D02*
X274660000Y-136990000D01*
X274070000Y-138150420D02*
X274070000Y-137580000D01*
X274660000Y-136990000D02*
X274800000Y-136200000D01*
X274049580Y-129450000D02*
X274580000Y-129450000D01*
X275140000Y-131000000D02*
X275600000Y-131000000D01*
D41*
X304660000Y-129430000D02*
X305120000Y-129430000D01*
X306040420Y-128509580D02*
X306040420Y-127890000D01*
X305120000Y-129430000D02*
X306040420Y-128509580D01*
D39*
X300980000Y-138600420D02*
X300980000Y-138210000D01*
X301770000Y-137975000D02*
X301215000Y-137975000D01*
X300980000Y-138210000D02*
X301215000Y-137975000D01*
X298475000Y-130429580D02*
X297950420Y-130429580D01*
X295490000Y-132890000D02*
X295490000Y-135815000D01*
X297950420Y-130429580D02*
X295490000Y-132890000D01*
X303470000Y-132275000D02*
X303965000Y-132275000D01*
X303965000Y-132275000D02*
X304660000Y-131580000D01*
X304660000Y-131580000D02*
X304660000Y-129430000D01*
X304660000Y-129430000D02*
X304660000Y-129420000D01*
X304660000Y-129420000D02*
X304290000Y-129050000D01*
X304290000Y-129050000D02*
X302180000Y-129050000D01*
X302180000Y-129050000D02*
X300800420Y-130429580D01*
X300800420Y-130429580D02*
X299700000Y-130429580D01*
X303480000Y-137975000D02*
X301930000Y-137975000D01*
X301930000Y-137975000D02*
X301770000Y-137975000D01*
X297725000Y-140625000D02*
X297700000Y-140650000D01*
D41*
X297075000Y-129274580D02*
X297075000Y-129325000D01*
X297075000Y-129325000D02*
X298179580Y-130429580D01*
X298179580Y-130429580D02*
X298475000Y-130429580D01*
D39*
X298475000Y-130429580D02*
X298230000Y-130429580D01*
D40*
X288999580Y-144950000D02*
X289800000Y-144950000D01*
X289900000Y-145050000D02*
X289800000Y-144950000D01*
D39*
X296025000Y-129274580D02*
X295650420Y-129274580D01*
X294750000Y-130175000D02*
X294750000Y-131200000D01*
X295650420Y-129274580D02*
X294750000Y-130175000D01*
X293250000Y-142600000D02*
X293250000Y-143700000D01*
X294749580Y-144349580D02*
X294749580Y-144725000D01*
X294350000Y-143950000D02*
X294749580Y-144349580D01*
X293500000Y-143950000D02*
X294350000Y-143950000D01*
X293250000Y-143700000D02*
X293500000Y-143950000D01*
X290750000Y-142600000D02*
X290750000Y-143550000D01*
X289350000Y-144950000D02*
X288999580Y-144950000D01*
X290750000Y-143550000D02*
X289350000Y-144950000D01*
X293750000Y-131200000D02*
X293750000Y-130400000D01*
X294875420Y-129274580D02*
X296025000Y-129274580D01*
X293750000Y-130400000D02*
X294875420Y-129274580D01*
D40*
X297075000Y-129274580D02*
X296025000Y-129274580D01*
X299700000Y-130429580D02*
X298475000Y-130429580D01*
D39*
X288999580Y-144950000D02*
X288999580Y-146000000D01*
X292300000Y-141050000D02*
X291050000Y-141050000D01*
X290750000Y-141350000D02*
X290750000Y-142600000D01*
X291050000Y-141050000D02*
X290750000Y-141350000D01*
X291750000Y-142600000D02*
X291750000Y-141475000D01*
X292175000Y-141050000D02*
X292300000Y-141050000D01*
X292300000Y-141050000D02*
X293675000Y-141050000D01*
X291750000Y-141475000D02*
X292175000Y-141050000D01*
X293250000Y-142600000D02*
X293250000Y-141475000D01*
X294075000Y-140650000D02*
X297700000Y-140650000D01*
X293250000Y-141475000D02*
X293675000Y-141050000D01*
X293675000Y-141050000D02*
X294075000Y-140650000D01*
X294749580Y-145900000D02*
X294749580Y-144725000D01*
X294750000Y-131200000D02*
X294750000Y-132450000D01*
X294750000Y-132450000D02*
X294750000Y-135075000D01*
X294750000Y-135075000D02*
X295490000Y-135815000D01*
X295490000Y-135815000D02*
X296825000Y-137150000D01*
X296825000Y-137150000D02*
X297700000Y-137150000D01*
X297700000Y-139150000D02*
X297700000Y-139650000D01*
X297700000Y-140150000D02*
X297700000Y-140650000D01*
X297700000Y-137150000D02*
X297700000Y-137650000D01*
X272762920Y-141287500D02*
X272762920Y-141837080D01*
X272762920Y-141837080D02*
X272362500Y-142237500D01*
X274262500Y-142887500D02*
X273812500Y-142887500D01*
X273812500Y-142887500D02*
X273412500Y-142487500D01*
X273162500Y-142237500D02*
X272362500Y-142237500D01*
X273412500Y-142487500D02*
X273162500Y-142237500D01*
X293299580Y-142649580D02*
X293250000Y-142600000D01*
X297700000Y-138650000D02*
X297700000Y-139150000D01*
X297700000Y-139650000D02*
X297700000Y-140150000D01*
X297700000Y-138150000D02*
X297700000Y-138650000D01*
X297700000Y-137650000D02*
X297700000Y-138150000D01*
X290749580Y-142600420D02*
X290750000Y-142600000D01*
X290749580Y-142600420D02*
X290750000Y-142600000D01*
X293250000Y-131200000D02*
X293750000Y-131200000D01*
X297700000Y-135150000D02*
X299320000Y-135150000D01*
X299860000Y-135690000D02*
X300200420Y-135690000D01*
X299320000Y-135150000D02*
X299860000Y-135690000D01*
X297700000Y-134150000D02*
X300075420Y-134150000D01*
X300075420Y-134150000D02*
X300175420Y-134250000D01*
X300150420Y-133160000D02*
X297710000Y-133160000D01*
X297710000Y-133160000D02*
X297700000Y-133150000D01*
X300050420Y-133150000D02*
X300200420Y-133000000D01*
D41*
X286300000Y-133650000D02*
X281710000Y-133650000D01*
X281560000Y-133800000D02*
X280800000Y-133800000D01*
X281710000Y-133650000D02*
X281560000Y-133800000D01*
D39*
X286250000Y-133600000D02*
X286300000Y-133650000D01*
D41*
X280800000Y-135400000D02*
X282460000Y-135400000D01*
X285210000Y-138150000D02*
X286300000Y-138150000D01*
X282460000Y-135400000D02*
X285210000Y-138150000D01*
D40*
X301175000Y-143650420D02*
X302470420Y-143650420D01*
X304110000Y-145290000D02*
X312740000Y-145290000D01*
X302470420Y-143650420D02*
X304110000Y-145290000D01*
X312740000Y-145290000D02*
X312840000Y-145190000D01*
D39*
X301175420Y-143650000D02*
X301175000Y-143650420D01*
D40*
X301175000Y-143650420D02*
X300075000Y-143650420D01*
D39*
X301099580Y-135690000D02*
X301860000Y-135690000D01*
X301860000Y-135690000D02*
X301870000Y-135680000D01*
X308880000Y-136705000D02*
X309695000Y-136705000D01*
X311000000Y-134330000D02*
X312840000Y-132490000D01*
X311000000Y-135400000D02*
X311000000Y-134330000D01*
X309695000Y-136705000D02*
X311000000Y-135400000D01*
X308870000Y-131005000D02*
X309375000Y-131005000D01*
X309375000Y-131005000D02*
X312840000Y-127540000D01*
X312840000Y-127540000D02*
X312840000Y-127410000D01*
X308975000Y-130900000D02*
X308870000Y-131005000D01*
X276530000Y-143539580D02*
X276990420Y-143539580D01*
X277220000Y-143310000D02*
X277220000Y-141660000D01*
X276990420Y-143539580D02*
X277220000Y-143310000D01*
X277220000Y-141660000D02*
X277110000Y-141550000D01*
X276530000Y-143539580D02*
X276720420Y-143539580D01*
X275362500Y-143537080D02*
X276527500Y-143537080D01*
X276527500Y-143537080D02*
X276530000Y-143539580D01*
X278990000Y-146770000D02*
X276080000Y-146770000D01*
X275362500Y-146052500D02*
X275362500Y-143537080D01*
X276080000Y-146770000D02*
X275362500Y-146052500D01*
X283140000Y-145279580D02*
X282510420Y-145279580D01*
X282170000Y-145620000D02*
X281510000Y-145620000D01*
X282510420Y-145279580D02*
X282170000Y-145620000D01*
X278410000Y-146120000D02*
X278410000Y-146190000D01*
X278410000Y-146190000D02*
X278990000Y-146770000D01*
X278990000Y-146770000D02*
X278920000Y-146700000D01*
X278920000Y-146700000D02*
X280930000Y-146700000D01*
X280930000Y-146700000D02*
X281510000Y-146120000D01*
X281510000Y-145620000D02*
X281510000Y-146120000D01*
X281510000Y-145120000D02*
X281510000Y-145620000D01*
D40*
X270712500Y-143449500D02*
X268669500Y-143449500D01*
X268669500Y-143449500D02*
X268160000Y-142940000D01*
X272362500Y-143537500D02*
X270800500Y-143537500D01*
X270800500Y-143537500D02*
X270712500Y-143449500D01*
X270712500Y-143449500D02*
X270712500Y-143512500D01*
D39*
X274262920Y-143537080D02*
X274262500Y-143537500D01*
D40*
X275362500Y-143537080D02*
X274262920Y-143537080D01*
D39*
X272274500Y-143449500D02*
X272362500Y-143537500D01*
D40*
X274262500Y-143537500D02*
X272362500Y-143537500D01*
D39*
X274362920Y-143437080D02*
X274262500Y-143537500D01*
X300075000Y-144549580D02*
X296089580Y-144549580D01*
X295250000Y-143710000D02*
X295250000Y-142600000D01*
X296089580Y-144549580D02*
X295250000Y-143710000D01*
X294750000Y-142600000D02*
X295250000Y-142600000D01*
X294750420Y-142600420D02*
X294750000Y-142600000D01*
X299975000Y-144649580D02*
X300075000Y-144549580D01*
D40*
X300075000Y-144549580D02*
X301175000Y-144549580D01*
D42*
X274000000Y-127699580D02*
X272850000Y-127699580D01*
X272850000Y-127699580D02*
X272849580Y-127700000D01*
X275150420Y-127700000D02*
X274000420Y-127700000D01*
X274000420Y-127700000D02*
X274000000Y-127699580D01*
D39*
X272362500Y-142887500D02*
X271674500Y-142887500D01*
X271674500Y-142887500D02*
X270712500Y-141925500D01*
X297700000Y-136150000D02*
X298950000Y-136150000D01*
X299710000Y-136910000D02*
X300200420Y-136910000D01*
X298950000Y-136150000D02*
X299710000Y-136910000D01*
X301099580Y-136910000D02*
X301800000Y-136910000D01*
X301800000Y-136910000D02*
X301870000Y-136980000D01*
X292250000Y-131200000D02*
X292250000Y-128512000D01*
X293775000Y-127849580D02*
X292912420Y-127849580D01*
X292912420Y-127849580D02*
X292275000Y-128487000D01*
X292250000Y-128512000D02*
X292275000Y-128487000D01*
X291250000Y-131200000D02*
X291250000Y-128299580D01*
X291250000Y-128299580D02*
X290800000Y-127849580D01*
X290250000Y-131200000D02*
X290250000Y-129662000D01*
D40*
X290250000Y-129662000D02*
X289100000Y-128512000D01*
D39*
X290200000Y-131150000D02*
X290250000Y-131200000D01*
X291500420Y-144725000D02*
X291500420Y-143950420D01*
X291250000Y-143700000D02*
X291250000Y-142600000D01*
X291500420Y-143950420D02*
X291250000Y-143700000D01*
X291625000Y-144600420D02*
X291500420Y-144725000D01*
X291500420Y-145850000D02*
X291500420Y-144725000D01*
X286975000Y-129775420D02*
X289000420Y-129775420D01*
X289000420Y-129775420D02*
X289250000Y-130025000D01*
X289250000Y-130025000D02*
X289250000Y-131200000D01*
X282710000Y-140650000D02*
X282530000Y-140650000D01*
X282530000Y-140650000D02*
X281630000Y-139750000D01*
X281630000Y-139750000D02*
X280560000Y-139750000D01*
X280560000Y-139750000D02*
X278400000Y-137590000D01*
X278400000Y-137590000D02*
X278400000Y-137000000D01*
X282710000Y-139400000D02*
X280710000Y-139400000D01*
X278800000Y-137490000D02*
X278800000Y-137000000D01*
X280710000Y-139400000D02*
X278800000Y-137490000D01*
D41*
X280800000Y-134200000D02*
X286250000Y-134200000D01*
X286250000Y-134200000D02*
X286300000Y-134150000D01*
D39*
X286250000Y-134200000D02*
X286300000Y-134150000D01*
X286300000Y-134150000D02*
X286300000Y-134650000D01*
X272629580Y-137270000D02*
X272629580Y-136632420D01*
X272629580Y-136632420D02*
X273262000Y-136000000D01*
X273262000Y-136000000D02*
X273350000Y-136000000D01*
X273350000Y-136000000D02*
X273950000Y-135400000D01*
X273950000Y-135400000D02*
X274800000Y-135400000D01*
X275000000Y-130040000D02*
X274720163Y-130049375D01*
X274720163Y-130049375D02*
X272760000Y-132040000D01*
X272760000Y-132040000D02*
X272770000Y-132030000D01*
X272770000Y-132030000D02*
X272455505Y-132345429D01*
X272455505Y-132345429D02*
X271600000Y-132830000D01*
X271600000Y-132830000D02*
X271490000Y-132940000D01*
X271490000Y-132940000D02*
X271490000Y-134310000D01*
X271490000Y-134310000D02*
X271200000Y-134600000D01*
X276400000Y-131000000D02*
X276400000Y-130330490D01*
X275395598Y-130045598D02*
X275000000Y-130040000D01*
X276115108Y-130045598D02*
X275395598Y-130045598D01*
X276400000Y-130330490D02*
X276115108Y-130045598D01*
X271200000Y-134600000D02*
X270800000Y-134600000D01*
X269800000Y-134649580D02*
X270750420Y-134649580D01*
X270800000Y-134600000D02*
X270950000Y-134600000D01*
X270750420Y-134649580D02*
X270800000Y-134600000D01*
D43*
X271050000Y-134650000D02*
X270800000Y-134650000D01*
X270799580Y-134649580D02*
X270800000Y-134650000D01*
D39*
X276000000Y-131000000D02*
X276000000Y-130450000D01*
X276000000Y-130450000D02*
X275900000Y-130350000D01*
X275900000Y-130350000D02*
X274900000Y-130350000D01*
X274900000Y-130350000D02*
X273200000Y-132050000D01*
X273200000Y-132050000D02*
X273200000Y-133650420D01*
X272200000Y-133500000D02*
X273049580Y-133500000D01*
X273049580Y-133500000D02*
X273200000Y-133650420D01*
X274890000Y-140390420D02*
X274890000Y-140210000D01*
X274890000Y-140210000D02*
X275450000Y-139650000D01*
X275450000Y-139650000D02*
X275450000Y-138850000D01*
X275450000Y-138850000D02*
X276000000Y-138300000D01*
X276000000Y-138300000D02*
X276000000Y-137000000D01*
X275910000Y-140390420D02*
X275910000Y-139900000D01*
X275910000Y-139900000D02*
X276850000Y-138960000D01*
X276850000Y-138960000D02*
X276850000Y-138850000D01*
X276400000Y-137000000D02*
X276400000Y-138400000D01*
X276400000Y-138400000D02*
X276850000Y-138850000D01*
X274800000Y-135800000D02*
X274240000Y-135800000D01*
X273200000Y-137640000D02*
X273200000Y-138352000D01*
X273840000Y-137000000D02*
X273200000Y-137640000D01*
X273840000Y-136200000D02*
X273840000Y-137000000D01*
X274240000Y-135800000D02*
X273840000Y-136200000D01*
X273200000Y-138352000D02*
X272932000Y-138620000D01*
D41*
X278000000Y-129100000D02*
X278000000Y-131000000D01*
D39*
X275909580Y-128800000D02*
X276450000Y-128800000D01*
X276800000Y-130050000D02*
X276750000Y-130000000D01*
X276750000Y-130000000D02*
X276500000Y-130000000D01*
X276500000Y-130000000D02*
X276450000Y-129950000D01*
X276450000Y-129950000D02*
X276450000Y-128800000D01*
X276800000Y-130050000D02*
X276800000Y-131000000D01*
X275909580Y-128800000D02*
X275729580Y-128620000D01*
X284640000Y-128650000D02*
X285699580Y-128650000D01*
X285699580Y-128650000D02*
X285780000Y-128730420D01*
X281540000Y-132200000D02*
X282290420Y-132200000D01*
X282290420Y-132200000D02*
X282300420Y-132210000D01*
X281640000Y-129850000D02*
X281640000Y-132170000D01*
X281610000Y-132200000D02*
X281540000Y-132200000D01*
X281540000Y-132200000D02*
X280800000Y-132200000D01*
X281640000Y-132170000D02*
X281610000Y-132200000D01*
X282820420Y-131270000D02*
X282230000Y-131270000D01*
X280900000Y-129550000D02*
X281640000Y-129450000D01*
X280850000Y-129600000D02*
X280900000Y-129550000D01*
X281640000Y-129450000D02*
X281340000Y-129450000D01*
X281340000Y-129450000D02*
X281210000Y-129450000D01*
X280800000Y-129860000D02*
X280800000Y-131800000D01*
X281210000Y-129450000D02*
X280800000Y-129860000D01*
X280900000Y-131800000D02*
X280950000Y-131800000D01*
D43*
X280900000Y-131800000D02*
X281100000Y-131800000D01*
D39*
X278410000Y-145620000D02*
X277062000Y-145620000D01*
X277062000Y-145620000D02*
X276690000Y-145992000D01*
X308870000Y-132275000D02*
X310515000Y-132275000D01*
X310515000Y-132275000D02*
X312840000Y-129950000D01*
X303480000Y-136705000D02*
X304005000Y-136705000D01*
X304005000Y-136705000D02*
X304670000Y-136040000D01*
X304670000Y-136040000D02*
X304670000Y-135000000D01*
X304670000Y-135000000D02*
X303920000Y-134250000D01*
X303920000Y-134250000D02*
X301074580Y-134250000D01*
D41*
X303470000Y-131005000D02*
X302775000Y-131005000D01*
X302775000Y-131005000D02*
X302120000Y-131660000D01*
X302120000Y-131660000D02*
X302120000Y-132300000D01*
X302120000Y-132300000D02*
X301260000Y-133160000D01*
X301260000Y-133160000D02*
X301049580Y-133160000D01*
D39*
X303480000Y-139245000D02*
X304345420Y-139245000D01*
X304345420Y-139245000D02*
X305630420Y-140530000D01*
X308880000Y-139245000D02*
X307814580Y-139245000D01*
X307814580Y-139245000D02*
X306529580Y-140530000D01*
X303470000Y-133545000D02*
X304725420Y-133545000D01*
X304725420Y-133545000D02*
X305650420Y-134470000D01*
X305690000Y-134700000D02*
X305750420Y-134700000D01*
X308870000Y-133545000D02*
X307474580Y-133545000D01*
X307474580Y-133545000D02*
X306549580Y-134470000D01*
X276690000Y-144468000D02*
X277638000Y-144468000D01*
X277790000Y-144620000D02*
X278410000Y-144620000D01*
X277638000Y-144468000D02*
X277790000Y-144620000D01*
X278060420Y-139100000D02*
X278060420Y-139819580D01*
X281039580Y-140650420D02*
X280240000Y-140650420D01*
X281090000Y-140600000D02*
X281039580Y-140650420D01*
X278060420Y-139819580D02*
X278050000Y-139830000D01*
X278060420Y-138440420D02*
X278060420Y-139100000D01*
X278000000Y-138380000D02*
X278060420Y-138440420D01*
X278000000Y-137000000D02*
X278000000Y-138380000D01*
X277600000Y-137000000D02*
X277600000Y-138520000D01*
X277510000Y-139850000D02*
X277110000Y-140250000D01*
X277510000Y-138610000D02*
X277510000Y-139850000D01*
X277600000Y-138520000D02*
X277510000Y-138610000D01*
X280240000Y-141549580D02*
X282009160Y-141549580D01*
X282009160Y-141549580D02*
X283120000Y-142660420D01*
X279010000Y-141550000D02*
X280239580Y-141550000D01*
X280239580Y-141550000D02*
X280240000Y-141549580D01*
X306500420Y-142660000D02*
X305240000Y-142660000D01*
X298750000Y-136650000D02*
X297700000Y-136650000D01*
X299370000Y-137270000D02*
X298750000Y-136650000D01*
X299370000Y-138130000D02*
X299370000Y-137270000D01*
X300310000Y-139070000D02*
X299370000Y-138130000D01*
X301650000Y-139070000D02*
X300310000Y-139070000D01*
X305240000Y-142660000D02*
X301650000Y-139070000D01*
X297700000Y-136650000D02*
X296820000Y-136650000D01*
X296670000Y-135650000D02*
X297700000Y-135650000D01*
X296520000Y-135800000D02*
X296670000Y-135650000D01*
X296520000Y-136350000D02*
X296520000Y-135800000D01*
X296820000Y-136650000D02*
X296520000Y-136350000D01*
X297650000Y-135600000D02*
X297700000Y-135650000D01*
X296520000Y-133770000D02*
X296520000Y-132590000D01*
X297050000Y-132060000D02*
X300190420Y-132060000D01*
X296520000Y-132590000D02*
X297050000Y-132060000D01*
X297700000Y-134650000D02*
X296600000Y-134650000D01*
X296640000Y-133650000D02*
X297700000Y-133650000D01*
X296520000Y-133770000D02*
X296640000Y-133650000D01*
X296520000Y-134570000D02*
X296520000Y-133770000D01*
X296600000Y-134650000D02*
X296520000Y-134570000D01*
X308880000Y-137975000D02*
X310325000Y-137975000D01*
X310325000Y-137975000D02*
X312840000Y-135460000D01*
X312840000Y-135460000D02*
X312840000Y-135030000D01*
D41*
X307399580Y-142660000D02*
X312830000Y-142660000D01*
X312830000Y-142660000D02*
X312840000Y-142650000D01*
D39*
X301089580Y-132060000D02*
X301089580Y-132140420D01*
X301089580Y-132140420D02*
X300610000Y-132620000D01*
X303075000Y-135030000D02*
X303480000Y-135435000D01*
X300810000Y-135030000D02*
X303075000Y-135030000D01*
X300610000Y-134830000D02*
X300810000Y-135030000D01*
X300610000Y-132620000D02*
X300610000Y-134830000D01*
D41*
X301089580Y-132060000D02*
X301089580Y-131180420D01*
X302535000Y-129735000D02*
X303470000Y-129735000D01*
X301089580Y-131180420D02*
X302535000Y-129735000D01*
D44*
G36*
X287561673Y-141490302D02*
X287465000Y-141723691D01*
X287465000Y-142314250D01*
X287623750Y-142473000D01*
X287952560Y-142473000D01*
X287952560Y-142727000D01*
X287623750Y-142727000D01*
X287465000Y-142885750D01*
X287465000Y-143476309D01*
X287561673Y-143709698D01*
X287740301Y-143888327D01*
X287973690Y-143985000D01*
X288016250Y-143985000D01*
X288173871Y-143827379D01*
X288348110Y-143946431D01*
X288469830Y-143971080D01*
X288483750Y-143985000D01*
X288526310Y-143985000D01*
X288530335Y-143983333D01*
X288600000Y-143997440D01*
X288900000Y-143997440D01*
X288971323Y-143984020D01*
X288973690Y-143985000D01*
X289016250Y-143985000D01*
X289027871Y-143973379D01*
X289135317Y-143953162D01*
X289249978Y-143879380D01*
X289348082Y-143946412D01*
X289276046Y-144018448D01*
X289198970Y-144002840D01*
X288800190Y-144002840D01*
X288564873Y-144047118D01*
X288540636Y-144062714D01*
X288426119Y-144015280D01*
X288358865Y-144015280D01*
X288200115Y-144174030D01*
X288200115Y-144416385D01*
X288152750Y-144650280D01*
X288152750Y-144865692D01*
X288135980Y-144950000D01*
X288152750Y-145034308D01*
X288152750Y-145249720D01*
X288196696Y-145483270D01*
X288152750Y-145700280D01*
X288152750Y-146147000D01*
X288000725Y-146147000D01*
X288000725Y-146127000D01*
X287424780Y-146127000D01*
X287266030Y-146285750D01*
X287266030Y-146426030D01*
X287302883Y-146515000D01*
X282432826Y-146515000D01*
X282482440Y-146270000D01*
X282482440Y-146249916D01*
X282672753Y-146122753D01*
X282697924Y-146097582D01*
X282840280Y-146126410D01*
X283439720Y-146126410D01*
X283675037Y-146082132D01*
X283891161Y-145943060D01*
X284036151Y-145730860D01*
X284087160Y-145478970D01*
X284087160Y-145235750D01*
X287266030Y-145235750D01*
X287266030Y-145376030D01*
X287307025Y-145475000D01*
X287266030Y-145573970D01*
X287266030Y-145714250D01*
X287424780Y-145873000D01*
X287746426Y-145873000D01*
X287774721Y-145884720D01*
X287841975Y-145884720D01*
X287853695Y-145873000D01*
X288000725Y-145873000D01*
X288000725Y-145077000D01*
X287853695Y-145077000D01*
X287841975Y-145065280D01*
X287774721Y-145065280D01*
X287746426Y-145077000D01*
X287424780Y-145077000D01*
X287266030Y-145235750D01*
X284087160Y-145235750D01*
X284087160Y-145080190D01*
X284042882Y-144844873D01*
X284027286Y-144820636D01*
X284074720Y-144706119D01*
X284074720Y-144638865D01*
X283951907Y-144516052D01*
X283999514Y-144547862D01*
X284054345Y-144558769D01*
X284330000Y-144613600D01*
X284451500Y-144613600D01*
X284499140Y-144646151D01*
X284751030Y-144697160D01*
X285149810Y-144697160D01*
X285385127Y-144652882D01*
X285409364Y-144637286D01*
X285523881Y-144684720D01*
X285591135Y-144684720D01*
X285749885Y-144525970D01*
X285749885Y-144283615D01*
X285797250Y-144049720D01*
X285797250Y-143877000D01*
X285949275Y-143877000D01*
X285949275Y-144525970D01*
X286108025Y-144684720D01*
X286175279Y-144684720D01*
X286408668Y-144588047D01*
X286472745Y-144523970D01*
X287266030Y-144523970D01*
X287266030Y-144664250D01*
X287424780Y-144823000D01*
X288000725Y-144823000D01*
X288000725Y-144174030D01*
X287841975Y-144015280D01*
X287774721Y-144015280D01*
X287541332Y-144111953D01*
X287362703Y-144290581D01*
X287266030Y-144523970D01*
X286472745Y-144523970D01*
X286587297Y-144409419D01*
X286683970Y-144176030D01*
X286683970Y-144035750D01*
X286525220Y-143877000D01*
X285949275Y-143877000D01*
X285797250Y-143877000D01*
X285797250Y-143834308D01*
X285814020Y-143750000D01*
X285797250Y-143665692D01*
X285797250Y-143450280D01*
X285752972Y-143214963D01*
X285749885Y-143210166D01*
X285749885Y-143208615D01*
X285797250Y-142974720D01*
X285797250Y-142802000D01*
X285949275Y-142802000D01*
X285949275Y-143623000D01*
X286525220Y-143623000D01*
X286683970Y-143464250D01*
X286683970Y-143323970D01*
X286637798Y-143212500D01*
X286683970Y-143101030D01*
X286683970Y-142960750D01*
X286525220Y-142802000D01*
X285949275Y-142802000D01*
X285797250Y-142802000D01*
X285797250Y-142375280D01*
X285752972Y-142139963D01*
X285749885Y-142135166D01*
X285749885Y-141899030D01*
X285949275Y-141899030D01*
X285949275Y-142548000D01*
X286525220Y-142548000D01*
X286683970Y-142389250D01*
X286683970Y-142248970D01*
X286587297Y-142015581D01*
X286408668Y-141836953D01*
X286175279Y-141740280D01*
X286108025Y-141740280D01*
X285949275Y-141899030D01*
X285749885Y-141899030D01*
X285661420Y-141810565D01*
X285661420Y-141447440D01*
X287050000Y-141447440D01*
X287285317Y-141403162D01*
X287350839Y-141361000D01*
X287690974Y-141361000D01*
X287561673Y-141490302D01*
X287561673Y-141490302D01*
G37*
X287561673Y-141490302D02*
X287465000Y-141723691D01*
X287465000Y-142314250D01*
X287623750Y-142473000D01*
X287952560Y-142473000D01*
X287952560Y-142727000D01*
X287623750Y-142727000D01*
X287465000Y-142885750D01*
X287465000Y-143476309D01*
X287561673Y-143709698D01*
X287740301Y-143888327D01*
X287973690Y-143985000D01*
X288016250Y-143985000D01*
X288173871Y-143827379D01*
X288348110Y-143946431D01*
X288469830Y-143971080D01*
X288483750Y-143985000D01*
X288526310Y-143985000D01*
X288530335Y-143983333D01*
X288600000Y-143997440D01*
X288900000Y-143997440D01*
X288971323Y-143984020D01*
X288973690Y-143985000D01*
X289016250Y-143985000D01*
X289027871Y-143973379D01*
X289135317Y-143953162D01*
X289249978Y-143879380D01*
X289348082Y-143946412D01*
X289276046Y-144018448D01*
X289198970Y-144002840D01*
X288800190Y-144002840D01*
X288564873Y-144047118D01*
X288540636Y-144062714D01*
X288426119Y-144015280D01*
X288358865Y-144015280D01*
X288200115Y-144174030D01*
X288200115Y-144416385D01*
X288152750Y-144650280D01*
X288152750Y-144865692D01*
X288135980Y-144950000D01*
X288152750Y-145034308D01*
X288152750Y-145249720D01*
X288196696Y-145483270D01*
X288152750Y-145700280D01*
X288152750Y-146147000D01*
X288000725Y-146147000D01*
X288000725Y-146127000D01*
X287424780Y-146127000D01*
X287266030Y-146285750D01*
X287266030Y-146426030D01*
X287302883Y-146515000D01*
X282432826Y-146515000D01*
X282482440Y-146270000D01*
X282482440Y-146249916D01*
X282672753Y-146122753D01*
X282697924Y-146097582D01*
X282840280Y-146126410D01*
X283439720Y-146126410D01*
X283675037Y-146082132D01*
X283891161Y-145943060D01*
X284036151Y-145730860D01*
X284087160Y-145478970D01*
X284087160Y-145235750D01*
X287266030Y-145235750D01*
X287266030Y-145376030D01*
X287307025Y-145475000D01*
X287266030Y-145573970D01*
X287266030Y-145714250D01*
X287424780Y-145873000D01*
X287746426Y-145873000D01*
X287774721Y-145884720D01*
X287841975Y-145884720D01*
X287853695Y-145873000D01*
X288000725Y-145873000D01*
X288000725Y-145077000D01*
X287853695Y-145077000D01*
X287841975Y-145065280D01*
X287774721Y-145065280D01*
X287746426Y-145077000D01*
X287424780Y-145077000D01*
X287266030Y-145235750D01*
X284087160Y-145235750D01*
X284087160Y-145080190D01*
X284042882Y-144844873D01*
X284027286Y-144820636D01*
X284074720Y-144706119D01*
X284074720Y-144638865D01*
X283951907Y-144516052D01*
X283999514Y-144547862D01*
X284054345Y-144558769D01*
X284330000Y-144613600D01*
X284451500Y-144613600D01*
X284499140Y-144646151D01*
X284751030Y-144697160D01*
X285149810Y-144697160D01*
X285385127Y-144652882D01*
X285409364Y-144637286D01*
X285523881Y-144684720D01*
X285591135Y-144684720D01*
X285749885Y-144525970D01*
X285749885Y-144283615D01*
X285797250Y-144049720D01*
X285797250Y-143877000D01*
X285949275Y-143877000D01*
X285949275Y-144525970D01*
X286108025Y-144684720D01*
X286175279Y-144684720D01*
X286408668Y-144588047D01*
X286472745Y-144523970D01*
X287266030Y-144523970D01*
X287266030Y-144664250D01*
X287424780Y-144823000D01*
X288000725Y-144823000D01*
X288000725Y-144174030D01*
X287841975Y-144015280D01*
X287774721Y-144015280D01*
X287541332Y-144111953D01*
X287362703Y-144290581D01*
X287266030Y-144523970D01*
X286472745Y-144523970D01*
X286587297Y-144409419D01*
X286683970Y-144176030D01*
X286683970Y-144035750D01*
X286525220Y-143877000D01*
X285949275Y-143877000D01*
X285797250Y-143877000D01*
X285797250Y-143834308D01*
X285814020Y-143750000D01*
X285797250Y-143665692D01*
X285797250Y-143450280D01*
X285752972Y-143214963D01*
X285749885Y-143210166D01*
X285749885Y-143208615D01*
X285797250Y-142974720D01*
X285797250Y-142802000D01*
X285949275Y-142802000D01*
X285949275Y-143623000D01*
X286525220Y-143623000D01*
X286683970Y-143464250D01*
X286683970Y-143323970D01*
X286637798Y-143212500D01*
X286683970Y-143101030D01*
X286683970Y-142960750D01*
X286525220Y-142802000D01*
X285949275Y-142802000D01*
X285797250Y-142802000D01*
X285797250Y-142375280D01*
X285752972Y-142139963D01*
X285749885Y-142135166D01*
X285749885Y-141899030D01*
X285949275Y-141899030D01*
X285949275Y-142548000D01*
X286525220Y-142548000D01*
X286683970Y-142389250D01*
X286683970Y-142248970D01*
X286587297Y-142015581D01*
X286408668Y-141836953D01*
X286175279Y-141740280D01*
X286108025Y-141740280D01*
X285949275Y-141899030D01*
X285749885Y-141899030D01*
X285661420Y-141810565D01*
X285661420Y-141447440D01*
X287050000Y-141447440D01*
X287285317Y-141403162D01*
X287350839Y-141361000D01*
X287690974Y-141361000D01*
X287561673Y-141490302D01*
G36*
X271249586Y-132211347D02*
X271176976Y-132273974D01*
X271097247Y-132327247D01*
X270987247Y-132437247D01*
X270833122Y-132667912D01*
X270779000Y-132940000D01*
X270779000Y-133552560D01*
X270674135Y-133552560D01*
X270734720Y-133491975D01*
X270734720Y-133424721D01*
X270673000Y-133275716D01*
X270673000Y-132623750D01*
X270514250Y-132465000D01*
X270223691Y-132465000D01*
X269990302Y-132561673D01*
X269811673Y-132740301D01*
X269738884Y-132916030D01*
X269672998Y-132916030D01*
X269672998Y-133074778D01*
X269514250Y-132916030D01*
X269373970Y-132916030D01*
X269140581Y-133012703D01*
X268961953Y-133191332D01*
X268865280Y-133424721D01*
X268865280Y-133491975D01*
X269024030Y-133650725D01*
X269673000Y-133650725D01*
X269673000Y-133603420D01*
X269927000Y-133603420D01*
X269927000Y-133627000D01*
X269873750Y-133627000D01*
X269715000Y-133785750D01*
X269715000Y-133802750D01*
X269500280Y-133802750D01*
X269264963Y-133847028D01*
X269260166Y-133850115D01*
X269024030Y-133850115D01*
X268865280Y-134008865D01*
X268865280Y-134076119D01*
X268911345Y-134187329D01*
X268903849Y-134198300D01*
X268852840Y-134450190D01*
X268852840Y-134848970D01*
X268897118Y-135084287D01*
X269036190Y-135300411D01*
X269248390Y-135445401D01*
X269500280Y-135496410D01*
X269951724Y-135496410D01*
X270098110Y-135596431D01*
X270350000Y-135647440D01*
X270785500Y-135647440D01*
X270785500Y-135714250D01*
X270944250Y-135873000D01*
X271611000Y-135873000D01*
X271611000Y-135853000D01*
X271865000Y-135853000D01*
X271865000Y-135873000D01*
X271885000Y-135873000D01*
X271885000Y-136127000D01*
X271865000Y-136127000D01*
X271865000Y-136147000D01*
X271611000Y-136147000D01*
X271611000Y-136127000D01*
X270944250Y-136127000D01*
X270785500Y-136285750D01*
X270785500Y-136697810D01*
X270882173Y-136931199D01*
X270889933Y-136938959D01*
X270883590Y-136970280D01*
X270883590Y-137122079D01*
X270751122Y-137320332D01*
X270707332Y-137540477D01*
X270639059Y-137584410D01*
X270494069Y-137796610D01*
X270443060Y-138048500D01*
X270443060Y-139191500D01*
X270487338Y-139426817D01*
X270626410Y-139642941D01*
X270838610Y-139787931D01*
X271090500Y-139838940D01*
X271725500Y-139838940D01*
X271916030Y-139803089D01*
X271916030Y-139914250D01*
X272074780Y-140073000D01*
X272650725Y-140073000D01*
X272650725Y-140053000D01*
X272802750Y-140053000D01*
X272802750Y-140340340D01*
X272650725Y-140340340D01*
X272650725Y-140327000D01*
X272074780Y-140327000D01*
X271916030Y-140485750D01*
X271916030Y-140626030D01*
X271965272Y-140744911D01*
X271916090Y-140987780D01*
X271916090Y-141412905D01*
X271895461Y-141416787D01*
X271887162Y-141372683D01*
X271748090Y-141156559D01*
X271535890Y-141011569D01*
X271284000Y-140960560D01*
X270141000Y-140960560D01*
X269905683Y-141004838D01*
X269689559Y-141143910D01*
X269544569Y-141356110D01*
X269493560Y-141608000D01*
X269493560Y-141893572D01*
X269386090Y-141726559D01*
X269173890Y-141581569D01*
X268922000Y-141530560D01*
X268917484Y-141530560D01*
X268960608Y-141380213D01*
X268160000Y-140579605D01*
X267359392Y-141380213D01*
X267402516Y-141530560D01*
X267398000Y-141530560D01*
X267162683Y-141574838D01*
X266946559Y-141713910D01*
X266801569Y-141926110D01*
X266750560Y-142178000D01*
X266750560Y-143702000D01*
X266794838Y-143937317D01*
X266933910Y-144153441D01*
X267146110Y-144298431D01*
X267398000Y-144349440D01*
X268922000Y-144349440D01*
X269115130Y-144313100D01*
X269815448Y-144313100D01*
X269889110Y-144363431D01*
X270141000Y-144414440D01*
X271284000Y-144414440D01*
X271354896Y-144401100D01*
X274262500Y-144401100D01*
X274264611Y-144400680D01*
X274651500Y-144400680D01*
X274651500Y-146052500D01*
X274705622Y-146324588D01*
X274832851Y-146515000D01*
X266585000Y-146515000D01*
X266585000Y-140192302D01*
X266750856Y-140192302D01*
X266778638Y-140747368D01*
X266937603Y-141131143D01*
X267179787Y-141200608D01*
X267980395Y-140400000D01*
X268339605Y-140400000D01*
X269140213Y-141200608D01*
X269382397Y-141131143D01*
X269569144Y-140607698D01*
X269541362Y-140052632D01*
X269382397Y-139668857D01*
X269140213Y-139599392D01*
X268339605Y-140400000D01*
X267980395Y-140400000D01*
X267179787Y-139599392D01*
X266937603Y-139668857D01*
X266750856Y-140192302D01*
X266585000Y-140192302D01*
X266585000Y-139419787D01*
X267359392Y-139419787D01*
X268160000Y-140220395D01*
X268960608Y-139419787D01*
X268891143Y-139177603D01*
X268367698Y-138990856D01*
X267812632Y-139018638D01*
X267428857Y-139177603D01*
X267359392Y-139419787D01*
X266585000Y-139419787D01*
X266585000Y-132127000D01*
X271398500Y-132127000D01*
X271249586Y-132211347D01*
X271249586Y-132211347D01*
G37*
X271249586Y-132211347D02*
X271176976Y-132273974D01*
X271097247Y-132327247D01*
X270987247Y-132437247D01*
X270833122Y-132667912D01*
X270779000Y-132940000D01*
X270779000Y-133552560D01*
X270674135Y-133552560D01*
X270734720Y-133491975D01*
X270734720Y-133424721D01*
X270673000Y-133275716D01*
X270673000Y-132623750D01*
X270514250Y-132465000D01*
X270223691Y-132465000D01*
X269990302Y-132561673D01*
X269811673Y-132740301D01*
X269738884Y-132916030D01*
X269672998Y-132916030D01*
X269672998Y-133074778D01*
X269514250Y-132916030D01*
X269373970Y-132916030D01*
X269140581Y-133012703D01*
X268961953Y-133191332D01*
X268865280Y-133424721D01*
X268865280Y-133491975D01*
X269024030Y-133650725D01*
X269673000Y-133650725D01*
X269673000Y-133603420D01*
X269927000Y-133603420D01*
X269927000Y-133627000D01*
X269873750Y-133627000D01*
X269715000Y-133785750D01*
X269715000Y-133802750D01*
X269500280Y-133802750D01*
X269264963Y-133847028D01*
X269260166Y-133850115D01*
X269024030Y-133850115D01*
X268865280Y-134008865D01*
X268865280Y-134076119D01*
X268911345Y-134187329D01*
X268903849Y-134198300D01*
X268852840Y-134450190D01*
X268852840Y-134848970D01*
X268897118Y-135084287D01*
X269036190Y-135300411D01*
X269248390Y-135445401D01*
X269500280Y-135496410D01*
X269951724Y-135496410D01*
X270098110Y-135596431D01*
X270350000Y-135647440D01*
X270785500Y-135647440D01*
X270785500Y-135714250D01*
X270944250Y-135873000D01*
X271611000Y-135873000D01*
X271611000Y-135853000D01*
X271865000Y-135853000D01*
X271865000Y-135873000D01*
X271885000Y-135873000D01*
X271885000Y-136127000D01*
X271865000Y-136127000D01*
X271865000Y-136147000D01*
X271611000Y-136147000D01*
X271611000Y-136127000D01*
X270944250Y-136127000D01*
X270785500Y-136285750D01*
X270785500Y-136697810D01*
X270882173Y-136931199D01*
X270889933Y-136938959D01*
X270883590Y-136970280D01*
X270883590Y-137122079D01*
X270751122Y-137320332D01*
X270707332Y-137540477D01*
X270639059Y-137584410D01*
X270494069Y-137796610D01*
X270443060Y-138048500D01*
X270443060Y-139191500D01*
X270487338Y-139426817D01*
X270626410Y-139642941D01*
X270838610Y-139787931D01*
X271090500Y-139838940D01*
X271725500Y-139838940D01*
X271916030Y-139803089D01*
X271916030Y-139914250D01*
X272074780Y-140073000D01*
X272650725Y-140073000D01*
X272650725Y-140053000D01*
X272802750Y-140053000D01*
X272802750Y-140340340D01*
X272650725Y-140340340D01*
X272650725Y-140327000D01*
X272074780Y-140327000D01*
X271916030Y-140485750D01*
X271916030Y-140626030D01*
X271965272Y-140744911D01*
X271916090Y-140987780D01*
X271916090Y-141412905D01*
X271895461Y-141416787D01*
X271887162Y-141372683D01*
X271748090Y-141156559D01*
X271535890Y-141011569D01*
X271284000Y-140960560D01*
X270141000Y-140960560D01*
X269905683Y-141004838D01*
X269689559Y-141143910D01*
X269544569Y-141356110D01*
X269493560Y-141608000D01*
X269493560Y-141893572D01*
X269386090Y-141726559D01*
X269173890Y-141581569D01*
X268922000Y-141530560D01*
X268917484Y-141530560D01*
X268960608Y-141380213D01*
X268160000Y-140579605D01*
X267359392Y-141380213D01*
X267402516Y-141530560D01*
X267398000Y-141530560D01*
X267162683Y-141574838D01*
X266946559Y-141713910D01*
X266801569Y-141926110D01*
X266750560Y-142178000D01*
X266750560Y-143702000D01*
X266794838Y-143937317D01*
X266933910Y-144153441D01*
X267146110Y-144298431D01*
X267398000Y-144349440D01*
X268922000Y-144349440D01*
X269115130Y-144313100D01*
X269815448Y-144313100D01*
X269889110Y-144363431D01*
X270141000Y-144414440D01*
X271284000Y-144414440D01*
X271354896Y-144401100D01*
X274262500Y-144401100D01*
X274264611Y-144400680D01*
X274651500Y-144400680D01*
X274651500Y-146052500D01*
X274705622Y-146324588D01*
X274832851Y-146515000D01*
X266585000Y-146515000D01*
X266585000Y-140192302D01*
X266750856Y-140192302D01*
X266778638Y-140747368D01*
X266937603Y-141131143D01*
X267179787Y-141200608D01*
X267980395Y-140400000D01*
X268339605Y-140400000D01*
X269140213Y-141200608D01*
X269382397Y-141131143D01*
X269569144Y-140607698D01*
X269541362Y-140052632D01*
X269382397Y-139668857D01*
X269140213Y-139599392D01*
X268339605Y-140400000D01*
X267980395Y-140400000D01*
X267179787Y-139599392D01*
X266937603Y-139668857D01*
X266750856Y-140192302D01*
X266585000Y-140192302D01*
X266585000Y-139419787D01*
X267359392Y-139419787D01*
X268160000Y-140220395D01*
X268960608Y-139419787D01*
X268891143Y-139177603D01*
X268367698Y-138990856D01*
X267812632Y-139018638D01*
X267428857Y-139177603D01*
X267359392Y-139419787D01*
X266585000Y-139419787D01*
X266585000Y-132127000D01*
X271398500Y-132127000D01*
X271249586Y-132211347D01*
G36*
X293174780Y-144598000D02*
X293214625Y-144598000D01*
X293227912Y-144606878D01*
X293500000Y-144661000D01*
X293902750Y-144661000D01*
X293902750Y-145024720D01*
X293947028Y-145260037D01*
X293950115Y-145264834D01*
X293950115Y-145366385D01*
X293902750Y-145600280D01*
X293902750Y-146047000D01*
X293750725Y-146047000D01*
X293750725Y-146027000D01*
X293174780Y-146027000D01*
X293150000Y-146051780D01*
X293075220Y-145977000D01*
X292499275Y-145977000D01*
X292499275Y-145997000D01*
X292347250Y-145997000D01*
X292347250Y-145550280D01*
X292302972Y-145314963D01*
X292299885Y-145310166D01*
X292299885Y-145258615D01*
X292347250Y-145024720D01*
X292347250Y-144852000D01*
X292499275Y-144852000D01*
X292499275Y-145723000D01*
X293075220Y-145723000D01*
X293100000Y-145698220D01*
X293174780Y-145773000D01*
X293750725Y-145773000D01*
X293750725Y-144852000D01*
X293174780Y-144852000D01*
X293125000Y-144901780D01*
X293075220Y-144852000D01*
X292499275Y-144852000D01*
X292347250Y-144852000D01*
X292347250Y-144578000D01*
X292499275Y-144578000D01*
X292499275Y-144598000D01*
X293075220Y-144598000D01*
X293125000Y-144548220D01*
X293174780Y-144598000D01*
X293174780Y-144598000D01*
G37*
X293174780Y-144598000D02*
X293214625Y-144598000D01*
X293227912Y-144606878D01*
X293500000Y-144661000D01*
X293902750Y-144661000D01*
X293902750Y-145024720D01*
X293947028Y-145260037D01*
X293950115Y-145264834D01*
X293950115Y-145366385D01*
X293902750Y-145600280D01*
X293902750Y-146047000D01*
X293750725Y-146047000D01*
X293750725Y-146027000D01*
X293174780Y-146027000D01*
X293150000Y-146051780D01*
X293075220Y-145977000D01*
X292499275Y-145977000D01*
X292499275Y-145997000D01*
X292347250Y-145997000D01*
X292347250Y-145550280D01*
X292302972Y-145314963D01*
X292299885Y-145310166D01*
X292299885Y-145258615D01*
X292347250Y-145024720D01*
X292347250Y-144852000D01*
X292499275Y-144852000D01*
X292499275Y-145723000D01*
X293075220Y-145723000D01*
X293100000Y-145698220D01*
X293174780Y-145773000D01*
X293750725Y-145773000D01*
X293750725Y-144852000D01*
X293174780Y-144852000D01*
X293125000Y-144901780D01*
X293075220Y-144852000D01*
X292499275Y-144852000D01*
X292347250Y-144852000D01*
X292347250Y-144578000D01*
X292499275Y-144578000D01*
X292499275Y-144598000D01*
X293075220Y-144598000D01*
X293125000Y-144548220D01*
X293174780Y-144598000D01*
G36*
X283247000Y-144235220D02*
X283267000Y-144255220D01*
X283267000Y-144280725D01*
X283287000Y-144280725D01*
X283287000Y-144432750D01*
X282993000Y-144432750D01*
X282993000Y-144280725D01*
X283013000Y-144280725D01*
X283013000Y-144233420D01*
X283247000Y-144233420D01*
X283247000Y-144235220D01*
X283247000Y-144235220D01*
G37*
X283247000Y-144235220D02*
X283267000Y-144255220D01*
X283267000Y-144280725D01*
X283287000Y-144280725D01*
X283287000Y-144432750D01*
X282993000Y-144432750D01*
X282993000Y-144280725D01*
X283013000Y-144280725D01*
X283013000Y-144233420D01*
X283247000Y-144233420D01*
X283247000Y-144235220D01*
G36*
X299807247Y-139572753D02*
X300037912Y-139726878D01*
X300070037Y-139733268D01*
X300045280Y-139758025D01*
X300045280Y-139825279D01*
X300141953Y-140058668D01*
X300320581Y-140237297D01*
X300553970Y-140333970D01*
X300694250Y-140333970D01*
X300853000Y-140175220D01*
X300853000Y-139781000D01*
X301107000Y-139781000D01*
X301107000Y-140175220D01*
X301265750Y-140333970D01*
X301406030Y-140333970D01*
X301639419Y-140237297D01*
X301725605Y-140151111D01*
X304737247Y-143162753D01*
X304967912Y-143316878D01*
X305240000Y-143371000D01*
X305811097Y-143371000D01*
X305836940Y-143411161D01*
X306049140Y-143556151D01*
X306301030Y-143607160D01*
X306699810Y-143607160D01*
X306935127Y-143562882D01*
X306946984Y-143555252D01*
X306948300Y-143556151D01*
X307200190Y-143607160D01*
X307598970Y-143607160D01*
X307834287Y-143562882D01*
X308050411Y-143423810D01*
X308060189Y-143409500D01*
X311566711Y-143409500D01*
X311760853Y-143700054D01*
X312090026Y-143920000D01*
X311760853Y-144139946D01*
X311569451Y-144426400D01*
X304467715Y-144426400D01*
X303081077Y-143039763D01*
X302800905Y-142852558D01*
X302768750Y-142846162D01*
X302470420Y-142786820D01*
X300075000Y-142786820D01*
X299990692Y-142803590D01*
X299775280Y-142803590D01*
X299539963Y-142847868D01*
X299323839Y-142986940D01*
X299178849Y-143199140D01*
X299127840Y-143451030D01*
X299127840Y-143838580D01*
X296384086Y-143838580D01*
X296354751Y-143809245D01*
X296496431Y-143601890D01*
X296547440Y-143350000D01*
X296547440Y-141850000D01*
X296503162Y-141614683D01*
X296364090Y-141398559D01*
X296309121Y-141361000D01*
X296646255Y-141361000D01*
X296698110Y-141396431D01*
X296950000Y-141447440D01*
X298450000Y-141447440D01*
X298685317Y-141403162D01*
X298901441Y-141264090D01*
X299046431Y-141051890D01*
X299097440Y-140800000D01*
X299097440Y-140500000D01*
X299077933Y-140396329D01*
X299097440Y-140300000D01*
X299097440Y-140000000D01*
X299077933Y-139896329D01*
X299097440Y-139800000D01*
X299097440Y-139500000D01*
X299077933Y-139396329D01*
X299097440Y-139300000D01*
X299097440Y-139000000D01*
X299077933Y-138896329D01*
X299086840Y-138852346D01*
X299807247Y-139572753D01*
X299807247Y-139572753D01*
G37*
X299807247Y-139572753D02*
X300037912Y-139726878D01*
X300070037Y-139733268D01*
X300045280Y-139758025D01*
X300045280Y-139825279D01*
X300141953Y-140058668D01*
X300320581Y-140237297D01*
X300553970Y-140333970D01*
X300694250Y-140333970D01*
X300853000Y-140175220D01*
X300853000Y-139781000D01*
X301107000Y-139781000D01*
X301107000Y-140175220D01*
X301265750Y-140333970D01*
X301406030Y-140333970D01*
X301639419Y-140237297D01*
X301725605Y-140151111D01*
X304737247Y-143162753D01*
X304967912Y-143316878D01*
X305240000Y-143371000D01*
X305811097Y-143371000D01*
X305836940Y-143411161D01*
X306049140Y-143556151D01*
X306301030Y-143607160D01*
X306699810Y-143607160D01*
X306935127Y-143562882D01*
X306946984Y-143555252D01*
X306948300Y-143556151D01*
X307200190Y-143607160D01*
X307598970Y-143607160D01*
X307834287Y-143562882D01*
X308050411Y-143423810D01*
X308060189Y-143409500D01*
X311566711Y-143409500D01*
X311760853Y-143700054D01*
X312090026Y-143920000D01*
X311760853Y-144139946D01*
X311569451Y-144426400D01*
X304467715Y-144426400D01*
X303081077Y-143039763D01*
X302800905Y-142852558D01*
X302768750Y-142846162D01*
X302470420Y-142786820D01*
X300075000Y-142786820D01*
X299990692Y-142803590D01*
X299775280Y-142803590D01*
X299539963Y-142847868D01*
X299323839Y-142986940D01*
X299178849Y-143199140D01*
X299127840Y-143451030D01*
X299127840Y-143838580D01*
X296384086Y-143838580D01*
X296354751Y-143809245D01*
X296496431Y-143601890D01*
X296547440Y-143350000D01*
X296547440Y-141850000D01*
X296503162Y-141614683D01*
X296364090Y-141398559D01*
X296309121Y-141361000D01*
X296646255Y-141361000D01*
X296698110Y-141396431D01*
X296950000Y-141447440D01*
X298450000Y-141447440D01*
X298685317Y-141403162D01*
X298901441Y-141264090D01*
X299046431Y-141051890D01*
X299097440Y-140800000D01*
X299097440Y-140500000D01*
X299077933Y-140396329D01*
X299097440Y-140300000D01*
X299097440Y-140000000D01*
X299077933Y-139896329D01*
X299097440Y-139800000D01*
X299097440Y-139500000D01*
X299077933Y-139396329D01*
X299097440Y-139300000D01*
X299097440Y-139000000D01*
X299077933Y-138896329D01*
X299086840Y-138852346D01*
X299807247Y-139572753D01*
G36*
X280679494Y-143245000D02*
X280633250Y-143245000D01*
X280474500Y-143403750D01*
X280474500Y-143496474D01*
X280341066Y-143363041D01*
X280343970Y-143356030D01*
X280343970Y-143215750D01*
X280185220Y-143057000D01*
X279609275Y-143057000D01*
X279609275Y-143077000D01*
X279457250Y-143077000D01*
X279457250Y-142851000D01*
X280285494Y-142851000D01*
X280679494Y-143245000D01*
X280679494Y-143245000D01*
G37*
X280679494Y-143245000D02*
X280633250Y-143245000D01*
X280474500Y-143403750D01*
X280474500Y-143496474D01*
X280341066Y-143363041D01*
X280343970Y-143356030D01*
X280343970Y-143215750D01*
X280185220Y-143057000D01*
X279609275Y-143057000D01*
X279609275Y-143077000D01*
X279457250Y-143077000D01*
X279457250Y-142851000D01*
X280285494Y-142851000D01*
X280679494Y-143245000D01*
G36*
X275489500Y-142538225D02*
X275751530Y-142538225D01*
X275754030Y-142540725D01*
X276403000Y-142540725D01*
X276403000Y-142493420D01*
X276509000Y-142493420D01*
X276509000Y-142692750D01*
X276230280Y-142692750D01*
X275994963Y-142737028D01*
X275994051Y-142737615D01*
X275896115Y-142737615D01*
X275662220Y-142690250D01*
X275446808Y-142690250D01*
X275362500Y-142673480D01*
X275232302Y-142673480D01*
X275215500Y-142584187D01*
X275215500Y-142580709D01*
X275222500Y-142563810D01*
X275222500Y-142538225D01*
X275235500Y-142538225D01*
X275235500Y-142490920D01*
X275489500Y-142490920D01*
X275489500Y-142538225D01*
X275489500Y-142538225D01*
G37*
X275489500Y-142538225D02*
X275751530Y-142538225D01*
X275754030Y-142540725D01*
X276403000Y-142540725D01*
X276403000Y-142493420D01*
X276509000Y-142493420D01*
X276509000Y-142692750D01*
X276230280Y-142692750D01*
X275994963Y-142737028D01*
X275994051Y-142737615D01*
X275896115Y-142737615D01*
X275662220Y-142690250D01*
X275446808Y-142690250D01*
X275362500Y-142673480D01*
X275232302Y-142673480D01*
X275215500Y-142584187D01*
X275215500Y-142580709D01*
X275222500Y-142563810D01*
X275222500Y-142538225D01*
X275235500Y-142538225D01*
X275235500Y-142490920D01*
X275489500Y-142490920D01*
X275489500Y-142538225D01*
G36*
X273761775Y-141160500D02*
X274084645Y-141160500D01*
X274114030Y-141189885D01*
X274356385Y-141189885D01*
X274590280Y-141237250D01*
X275189720Y-141237250D01*
X275407720Y-141196230D01*
X275610280Y-141237250D01*
X276057000Y-141237250D01*
X276057000Y-141389275D01*
X276037000Y-141389275D01*
X276037000Y-141436580D01*
X275783000Y-141436580D01*
X275783000Y-141389275D01*
X275017000Y-141389275D01*
X275017000Y-141436580D01*
X274796085Y-141436580D01*
X274763000Y-141422876D01*
X274763000Y-141389275D01*
X274114030Y-141389275D01*
X274088805Y-141414500D01*
X273988750Y-141414500D01*
X273976750Y-141402500D01*
X273811191Y-141402500D01*
X273782220Y-141414500D01*
X273761775Y-141414500D01*
X273761775Y-141422969D01*
X273733937Y-141434500D01*
X273609750Y-141434500D01*
X273609750Y-141147160D01*
X273761775Y-141147160D01*
X273761775Y-141160500D01*
X273761775Y-141160500D01*
G37*
X273761775Y-141160500D02*
X274084645Y-141160500D01*
X274114030Y-141189885D01*
X274356385Y-141189885D01*
X274590280Y-141237250D01*
X275189720Y-141237250D01*
X275407720Y-141196230D01*
X275610280Y-141237250D01*
X276057000Y-141237250D01*
X276057000Y-141389275D01*
X276037000Y-141389275D01*
X276037000Y-141436580D01*
X275783000Y-141436580D01*
X275783000Y-141389275D01*
X275017000Y-141389275D01*
X275017000Y-141436580D01*
X274796085Y-141436580D01*
X274763000Y-141422876D01*
X274763000Y-141389275D01*
X274114030Y-141389275D01*
X274088805Y-141414500D01*
X273988750Y-141414500D01*
X273976750Y-141402500D01*
X273811191Y-141402500D01*
X273782220Y-141414500D01*
X273761775Y-141414500D01*
X273761775Y-141422969D01*
X273733937Y-141434500D01*
X273609750Y-141434500D01*
X273609750Y-141147160D01*
X273761775Y-141147160D01*
X273761775Y-141160500D01*
G36*
X278103543Y-140719047D02*
X278220910Y-140901441D01*
X278222299Y-140902390D01*
X278088569Y-141098110D01*
X278082965Y-141125785D01*
X278050000Y-141158750D01*
X278050000Y-141177596D01*
X278038162Y-141114683D01*
X277899090Y-140898559D01*
X277897701Y-140897610D01*
X278019758Y-140718974D01*
X278103543Y-140719047D01*
X278103543Y-140719047D01*
G37*
X278103543Y-140719047D02*
X278220910Y-140901441D01*
X278222299Y-140902390D01*
X278088569Y-141098110D01*
X278082965Y-141125785D01*
X278050000Y-141158750D01*
X278050000Y-141177596D01*
X278038162Y-141114683D01*
X277899090Y-140898559D01*
X277897701Y-140897610D01*
X278019758Y-140718974D01*
X278103543Y-140719047D01*
G36*
X285927000Y-129729275D02*
X285907000Y-129729275D01*
X285907000Y-130305220D01*
X286065750Y-130463970D01*
X286088115Y-130463970D01*
X286199030Y-130574885D01*
X286441385Y-130574885D01*
X286675280Y-130622250D01*
X287122000Y-130622250D01*
X287122000Y-130774275D01*
X287102000Y-130774275D01*
X287102000Y-131350220D01*
X287260750Y-131508970D01*
X287401030Y-131508970D01*
X287470595Y-131480155D01*
X287465000Y-131485750D01*
X287465000Y-132076309D01*
X287561673Y-132309698D01*
X287740301Y-132488327D01*
X287973690Y-132585000D01*
X288016250Y-132585000D01*
X288175000Y-132426250D01*
X288175000Y-132423026D01*
X288240301Y-132488327D01*
X288473690Y-132585000D01*
X288526310Y-132585000D01*
X288759699Y-132488327D01*
X288761068Y-132486958D01*
X288848110Y-132546431D01*
X288969830Y-132571080D01*
X288983750Y-132585000D01*
X289026310Y-132585000D01*
X289030335Y-132583333D01*
X289100000Y-132597440D01*
X289400000Y-132597440D01*
X289503671Y-132577933D01*
X289600000Y-132597440D01*
X289900000Y-132597440D01*
X290003671Y-132577933D01*
X290100000Y-132597440D01*
X290400000Y-132597440D01*
X290503671Y-132577933D01*
X290600000Y-132597440D01*
X290900000Y-132597440D01*
X291003671Y-132577933D01*
X291100000Y-132597440D01*
X291400000Y-132597440D01*
X291471323Y-132584020D01*
X291473690Y-132585000D01*
X291516250Y-132585000D01*
X291527871Y-132573379D01*
X291635317Y-132553162D01*
X291749978Y-132479380D01*
X291848110Y-132546431D01*
X291969830Y-132571080D01*
X291983750Y-132585000D01*
X292026310Y-132585000D01*
X292030335Y-132583333D01*
X292100000Y-132597440D01*
X292400000Y-132597440D01*
X292471323Y-132584020D01*
X292473690Y-132585000D01*
X292516250Y-132585000D01*
X292527871Y-132573379D01*
X292635317Y-132553162D01*
X292749978Y-132479380D01*
X292848110Y-132546431D01*
X292969830Y-132571080D01*
X292983750Y-132585000D01*
X293026310Y-132585000D01*
X293030335Y-132583333D01*
X293100000Y-132597440D01*
X293400000Y-132597440D01*
X293503671Y-132577933D01*
X293600000Y-132597440D01*
X293900000Y-132597440D01*
X293971323Y-132584020D01*
X293973690Y-132585000D01*
X294016250Y-132585000D01*
X294027871Y-132573379D01*
X294039000Y-132571285D01*
X294039000Y-135075000D01*
X294093122Y-135347088D01*
X294247247Y-135577753D01*
X296302560Y-137633066D01*
X296302560Y-137800000D01*
X296322067Y-137903671D01*
X296302560Y-138000000D01*
X296302560Y-138300000D01*
X296322067Y-138403671D01*
X296302560Y-138500000D01*
X296302560Y-138800000D01*
X296322067Y-138903671D01*
X296302560Y-139000000D01*
X296302560Y-139300000D01*
X296322067Y-139403671D01*
X296302560Y-139500000D01*
X296302560Y-139800000D01*
X296322067Y-139903671D01*
X296314913Y-139939000D01*
X294075000Y-139939000D01*
X293802912Y-139993122D01*
X293572247Y-140147247D01*
X293380494Y-140339000D01*
X291050000Y-140339000D01*
X290777912Y-140393122D01*
X290547247Y-140547247D01*
X290247247Y-140847247D01*
X290169344Y-140963838D01*
X289352753Y-140147247D01*
X289122088Y-139993122D01*
X288850000Y-139939000D01*
X287685962Y-139939000D01*
X287684020Y-139928677D01*
X287685000Y-139926310D01*
X287685000Y-139883750D01*
X287673379Y-139872129D01*
X287653162Y-139764683D01*
X287586672Y-139661354D01*
X287588327Y-139659699D01*
X287685000Y-139426310D01*
X287685000Y-139373690D01*
X287592344Y-139150000D01*
X287685000Y-138926310D01*
X287685000Y-138873690D01*
X287588327Y-138640301D01*
X287586958Y-138638932D01*
X287646431Y-138551890D01*
X287671080Y-138430170D01*
X287685000Y-138416250D01*
X287685000Y-138373690D01*
X287683333Y-138369665D01*
X287697440Y-138300000D01*
X287697440Y-138000000D01*
X287684020Y-137928677D01*
X287685000Y-137926310D01*
X287685000Y-137883750D01*
X287673379Y-137872129D01*
X287653162Y-137764683D01*
X287586672Y-137661354D01*
X287588327Y-137659699D01*
X287685000Y-137426310D01*
X287685000Y-137373690D01*
X287588327Y-137140301D01*
X287586958Y-137138932D01*
X287646431Y-137051890D01*
X287671080Y-136930170D01*
X287685000Y-136916250D01*
X287685000Y-136873690D01*
X287683333Y-136869665D01*
X287697440Y-136800000D01*
X287697440Y-136500000D01*
X287677933Y-136396329D01*
X287697440Y-136300000D01*
X287697440Y-136000000D01*
X287684020Y-135928677D01*
X287685000Y-135926310D01*
X287685000Y-135883750D01*
X287673379Y-135872129D01*
X287653162Y-135764683D01*
X287579380Y-135650022D01*
X287646431Y-135551890D01*
X287671080Y-135430170D01*
X287685000Y-135416250D01*
X287685000Y-135373690D01*
X287683333Y-135369665D01*
X287697440Y-135300000D01*
X287697440Y-135000000D01*
X287677933Y-134896329D01*
X287697440Y-134800000D01*
X287697440Y-134500000D01*
X287677933Y-134396329D01*
X287697440Y-134300000D01*
X287697440Y-134000000D01*
X287677933Y-133896329D01*
X287697440Y-133800000D01*
X287697440Y-133500000D01*
X287684020Y-133428677D01*
X287685000Y-133426310D01*
X287685000Y-133383750D01*
X287673379Y-133372129D01*
X287653162Y-133264683D01*
X287529204Y-133072046D01*
X287685000Y-132916250D01*
X287685000Y-132873690D01*
X287588327Y-132640301D01*
X287409698Y-132461673D01*
X287176309Y-132365000D01*
X286585750Y-132365000D01*
X286427000Y-132523750D01*
X286427000Y-132852560D01*
X286173000Y-132852560D01*
X286173000Y-132523750D01*
X286014250Y-132365000D01*
X285423691Y-132365000D01*
X285190302Y-132461673D01*
X285011673Y-132640301D01*
X284915000Y-132873690D01*
X284915000Y-132900500D01*
X284109140Y-132900500D01*
X284109154Y-132883943D01*
X284063180Y-132772677D01*
X284063180Y-132210000D01*
X284059350Y-132190746D01*
X284154287Y-132172882D01*
X284370411Y-132033810D01*
X284515401Y-131821610D01*
X284566410Y-131569720D01*
X284566410Y-131144545D01*
X284691441Y-131064090D01*
X284780993Y-130933025D01*
X286040280Y-130933025D01*
X286040280Y-131000279D01*
X286136953Y-131233668D01*
X286315581Y-131412297D01*
X286548970Y-131508970D01*
X286689250Y-131508970D01*
X286848000Y-131350220D01*
X286848000Y-130774275D01*
X286199030Y-130774275D01*
X286040280Y-130933025D01*
X284780993Y-130933025D01*
X284836431Y-130851890D01*
X284887440Y-130600000D01*
X284887440Y-130597440D01*
X284890000Y-130597440D01*
X285125317Y-130553162D01*
X285299189Y-130441279D01*
X285353970Y-130463970D01*
X285494250Y-130463970D01*
X285653000Y-130305220D01*
X285653000Y-129729275D01*
X285633000Y-129729275D01*
X285633000Y-129577250D01*
X285927000Y-129577250D01*
X285927000Y-129729275D01*
X285927000Y-129729275D01*
G37*
X285927000Y-129729275D02*
X285907000Y-129729275D01*
X285907000Y-130305220D01*
X286065750Y-130463970D01*
X286088115Y-130463970D01*
X286199030Y-130574885D01*
X286441385Y-130574885D01*
X286675280Y-130622250D01*
X287122000Y-130622250D01*
X287122000Y-130774275D01*
X287102000Y-130774275D01*
X287102000Y-131350220D01*
X287260750Y-131508970D01*
X287401030Y-131508970D01*
X287470595Y-131480155D01*
X287465000Y-131485750D01*
X287465000Y-132076309D01*
X287561673Y-132309698D01*
X287740301Y-132488327D01*
X287973690Y-132585000D01*
X288016250Y-132585000D01*
X288175000Y-132426250D01*
X288175000Y-132423026D01*
X288240301Y-132488327D01*
X288473690Y-132585000D01*
X288526310Y-132585000D01*
X288759699Y-132488327D01*
X288761068Y-132486958D01*
X288848110Y-132546431D01*
X288969830Y-132571080D01*
X288983750Y-132585000D01*
X289026310Y-132585000D01*
X289030335Y-132583333D01*
X289100000Y-132597440D01*
X289400000Y-132597440D01*
X289503671Y-132577933D01*
X289600000Y-132597440D01*
X289900000Y-132597440D01*
X290003671Y-132577933D01*
X290100000Y-132597440D01*
X290400000Y-132597440D01*
X290503671Y-132577933D01*
X290600000Y-132597440D01*
X290900000Y-132597440D01*
X291003671Y-132577933D01*
X291100000Y-132597440D01*
X291400000Y-132597440D01*
X291471323Y-132584020D01*
X291473690Y-132585000D01*
X291516250Y-132585000D01*
X291527871Y-132573379D01*
X291635317Y-132553162D01*
X291749978Y-132479380D01*
X291848110Y-132546431D01*
X291969830Y-132571080D01*
X291983750Y-132585000D01*
X292026310Y-132585000D01*
X292030335Y-132583333D01*
X292100000Y-132597440D01*
X292400000Y-132597440D01*
X292471323Y-132584020D01*
X292473690Y-132585000D01*
X292516250Y-132585000D01*
X292527871Y-132573379D01*
X292635317Y-132553162D01*
X292749978Y-132479380D01*
X292848110Y-132546431D01*
X292969830Y-132571080D01*
X292983750Y-132585000D01*
X293026310Y-132585000D01*
X293030335Y-132583333D01*
X293100000Y-132597440D01*
X293400000Y-132597440D01*
X293503671Y-132577933D01*
X293600000Y-132597440D01*
X293900000Y-132597440D01*
X293971323Y-132584020D01*
X293973690Y-132585000D01*
X294016250Y-132585000D01*
X294027871Y-132573379D01*
X294039000Y-132571285D01*
X294039000Y-135075000D01*
X294093122Y-135347088D01*
X294247247Y-135577753D01*
X296302560Y-137633066D01*
X296302560Y-137800000D01*
X296322067Y-137903671D01*
X296302560Y-138000000D01*
X296302560Y-138300000D01*
X296322067Y-138403671D01*
X296302560Y-138500000D01*
X296302560Y-138800000D01*
X296322067Y-138903671D01*
X296302560Y-139000000D01*
X296302560Y-139300000D01*
X296322067Y-139403671D01*
X296302560Y-139500000D01*
X296302560Y-139800000D01*
X296322067Y-139903671D01*
X296314913Y-139939000D01*
X294075000Y-139939000D01*
X293802912Y-139993122D01*
X293572247Y-140147247D01*
X293380494Y-140339000D01*
X291050000Y-140339000D01*
X290777912Y-140393122D01*
X290547247Y-140547247D01*
X290247247Y-140847247D01*
X290169344Y-140963838D01*
X289352753Y-140147247D01*
X289122088Y-139993122D01*
X288850000Y-139939000D01*
X287685962Y-139939000D01*
X287684020Y-139928677D01*
X287685000Y-139926310D01*
X287685000Y-139883750D01*
X287673379Y-139872129D01*
X287653162Y-139764683D01*
X287586672Y-139661354D01*
X287588327Y-139659699D01*
X287685000Y-139426310D01*
X287685000Y-139373690D01*
X287592344Y-139150000D01*
X287685000Y-138926310D01*
X287685000Y-138873690D01*
X287588327Y-138640301D01*
X287586958Y-138638932D01*
X287646431Y-138551890D01*
X287671080Y-138430170D01*
X287685000Y-138416250D01*
X287685000Y-138373690D01*
X287683333Y-138369665D01*
X287697440Y-138300000D01*
X287697440Y-138000000D01*
X287684020Y-137928677D01*
X287685000Y-137926310D01*
X287685000Y-137883750D01*
X287673379Y-137872129D01*
X287653162Y-137764683D01*
X287586672Y-137661354D01*
X287588327Y-137659699D01*
X287685000Y-137426310D01*
X287685000Y-137373690D01*
X287588327Y-137140301D01*
X287586958Y-137138932D01*
X287646431Y-137051890D01*
X287671080Y-136930170D01*
X287685000Y-136916250D01*
X287685000Y-136873690D01*
X287683333Y-136869665D01*
X287697440Y-136800000D01*
X287697440Y-136500000D01*
X287677933Y-136396329D01*
X287697440Y-136300000D01*
X287697440Y-136000000D01*
X287684020Y-135928677D01*
X287685000Y-135926310D01*
X287685000Y-135883750D01*
X287673379Y-135872129D01*
X287653162Y-135764683D01*
X287579380Y-135650022D01*
X287646431Y-135551890D01*
X287671080Y-135430170D01*
X287685000Y-135416250D01*
X287685000Y-135373690D01*
X287683333Y-135369665D01*
X287697440Y-135300000D01*
X287697440Y-135000000D01*
X287677933Y-134896329D01*
X287697440Y-134800000D01*
X287697440Y-134500000D01*
X287677933Y-134396329D01*
X287697440Y-134300000D01*
X287697440Y-134000000D01*
X287677933Y-133896329D01*
X287697440Y-133800000D01*
X287697440Y-133500000D01*
X287684020Y-133428677D01*
X287685000Y-133426310D01*
X287685000Y-133383750D01*
X287673379Y-133372129D01*
X287653162Y-133264683D01*
X287529204Y-133072046D01*
X287685000Y-132916250D01*
X287685000Y-132873690D01*
X287588327Y-132640301D01*
X287409698Y-132461673D01*
X287176309Y-132365000D01*
X286585750Y-132365000D01*
X286427000Y-132523750D01*
X286427000Y-132852560D01*
X286173000Y-132852560D01*
X286173000Y-132523750D01*
X286014250Y-132365000D01*
X285423691Y-132365000D01*
X285190302Y-132461673D01*
X285011673Y-132640301D01*
X284915000Y-132873690D01*
X284915000Y-132900500D01*
X284109140Y-132900500D01*
X284109154Y-132883943D01*
X284063180Y-132772677D01*
X284063180Y-132210000D01*
X284059350Y-132190746D01*
X284154287Y-132172882D01*
X284370411Y-132033810D01*
X284515401Y-131821610D01*
X284566410Y-131569720D01*
X284566410Y-131144545D01*
X284691441Y-131064090D01*
X284780993Y-130933025D01*
X286040280Y-130933025D01*
X286040280Y-131000279D01*
X286136953Y-131233668D01*
X286315581Y-131412297D01*
X286548970Y-131508970D01*
X286689250Y-131508970D01*
X286848000Y-131350220D01*
X286848000Y-130774275D01*
X286199030Y-130774275D01*
X286040280Y-130933025D01*
X284780993Y-130933025D01*
X284836431Y-130851890D01*
X284887440Y-130600000D01*
X284887440Y-130597440D01*
X284890000Y-130597440D01*
X285125317Y-130553162D01*
X285299189Y-130441279D01*
X285353970Y-130463970D01*
X285494250Y-130463970D01*
X285653000Y-130305220D01*
X285653000Y-129729275D01*
X285633000Y-129729275D01*
X285633000Y-129577250D01*
X285927000Y-129577250D01*
X285927000Y-129729275D01*
G36*
X311325907Y-132490000D02*
X311410287Y-132914207D01*
X310497247Y-133827247D01*
X310343122Y-134057912D01*
X310289000Y-134330000D01*
X310289000Y-135006276D01*
X310193327Y-134775301D01*
X310014698Y-134596673D01*
X309781309Y-134500000D01*
X309165750Y-134500000D01*
X309007000Y-134658750D01*
X309007000Y-135308000D01*
X309027000Y-135308000D01*
X309027000Y-135562000D01*
X309007000Y-135562000D01*
X309007000Y-135582000D01*
X308753000Y-135582000D01*
X308753000Y-135562000D01*
X307628750Y-135562000D01*
X307470000Y-135720750D01*
X307470000Y-135861310D01*
X307559806Y-136078122D01*
X307508569Y-136153110D01*
X307457560Y-136405000D01*
X307457560Y-137005000D01*
X307501838Y-137240317D01*
X307565678Y-137339528D01*
X307508569Y-137423110D01*
X307457560Y-137675000D01*
X307457560Y-138275000D01*
X307501838Y-138510317D01*
X307550836Y-138586462D01*
X307542492Y-138588122D01*
X307311827Y-138742247D01*
X306471234Y-139582840D01*
X306330190Y-139582840D01*
X306094873Y-139627118D01*
X306083016Y-139634748D01*
X306081700Y-139633849D01*
X305829810Y-139582840D01*
X305688766Y-139582840D01*
X304868025Y-138762099D01*
X304858162Y-138709683D01*
X304794322Y-138610472D01*
X304851431Y-138526890D01*
X304902440Y-138275000D01*
X304902440Y-137675000D01*
X304858162Y-137439683D01*
X304794322Y-137340472D01*
X304851431Y-137256890D01*
X304902440Y-137005000D01*
X304902440Y-136813066D01*
X305172753Y-136542753D01*
X305326878Y-136312088D01*
X305381000Y-136040000D01*
X305381000Y-135402979D01*
X305451030Y-135417160D01*
X305849810Y-135417160D01*
X306085127Y-135372882D01*
X306096984Y-135365252D01*
X306098300Y-135366151D01*
X306350190Y-135417160D01*
X306748970Y-135417160D01*
X306984287Y-135372882D01*
X307200411Y-135233810D01*
X307345401Y-135021610D01*
X307348017Y-135008690D01*
X307470000Y-135008690D01*
X307470000Y-135149250D01*
X307628750Y-135308000D01*
X308753000Y-135308000D01*
X308753000Y-134658750D01*
X308594250Y-134500000D01*
X307978691Y-134500000D01*
X307745302Y-134596673D01*
X307566673Y-134775301D01*
X307470000Y-135008690D01*
X307348017Y-135008690D01*
X307396410Y-134769720D01*
X307396410Y-134628676D01*
X307688973Y-134336113D01*
X307843110Y-134441431D01*
X308095000Y-134492440D01*
X309645000Y-134492440D01*
X309880317Y-134448162D01*
X310096441Y-134309090D01*
X310241431Y-134096890D01*
X310292440Y-133845000D01*
X310292440Y-133245000D01*
X310248162Y-133009683D01*
X310232922Y-132986000D01*
X310515000Y-132986000D01*
X310787088Y-132931878D01*
X311017753Y-132777753D01*
X311330973Y-132464533D01*
X311325907Y-132490000D01*
X311325907Y-132490000D01*
G37*
X311325907Y-132490000D02*
X311410287Y-132914207D01*
X310497247Y-133827247D01*
X310343122Y-134057912D01*
X310289000Y-134330000D01*
X310289000Y-135006276D01*
X310193327Y-134775301D01*
X310014698Y-134596673D01*
X309781309Y-134500000D01*
X309165750Y-134500000D01*
X309007000Y-134658750D01*
X309007000Y-135308000D01*
X309027000Y-135308000D01*
X309027000Y-135562000D01*
X309007000Y-135562000D01*
X309007000Y-135582000D01*
X308753000Y-135582000D01*
X308753000Y-135562000D01*
X307628750Y-135562000D01*
X307470000Y-135720750D01*
X307470000Y-135861310D01*
X307559806Y-136078122D01*
X307508569Y-136153110D01*
X307457560Y-136405000D01*
X307457560Y-137005000D01*
X307501838Y-137240317D01*
X307565678Y-137339528D01*
X307508569Y-137423110D01*
X307457560Y-137675000D01*
X307457560Y-138275000D01*
X307501838Y-138510317D01*
X307550836Y-138586462D01*
X307542492Y-138588122D01*
X307311827Y-138742247D01*
X306471234Y-139582840D01*
X306330190Y-139582840D01*
X306094873Y-139627118D01*
X306083016Y-139634748D01*
X306081700Y-139633849D01*
X305829810Y-139582840D01*
X305688766Y-139582840D01*
X304868025Y-138762099D01*
X304858162Y-138709683D01*
X304794322Y-138610472D01*
X304851431Y-138526890D01*
X304902440Y-138275000D01*
X304902440Y-137675000D01*
X304858162Y-137439683D01*
X304794322Y-137340472D01*
X304851431Y-137256890D01*
X304902440Y-137005000D01*
X304902440Y-136813066D01*
X305172753Y-136542753D01*
X305326878Y-136312088D01*
X305381000Y-136040000D01*
X305381000Y-135402979D01*
X305451030Y-135417160D01*
X305849810Y-135417160D01*
X306085127Y-135372882D01*
X306096984Y-135365252D01*
X306098300Y-135366151D01*
X306350190Y-135417160D01*
X306748970Y-135417160D01*
X306984287Y-135372882D01*
X307200411Y-135233810D01*
X307345401Y-135021610D01*
X307348017Y-135008690D01*
X307470000Y-135008690D01*
X307470000Y-135149250D01*
X307628750Y-135308000D01*
X308753000Y-135308000D01*
X308753000Y-134658750D01*
X308594250Y-134500000D01*
X307978691Y-134500000D01*
X307745302Y-134596673D01*
X307566673Y-134775301D01*
X307470000Y-135008690D01*
X307348017Y-135008690D01*
X307396410Y-134769720D01*
X307396410Y-134628676D01*
X307688973Y-134336113D01*
X307843110Y-134441431D01*
X308095000Y-134492440D01*
X309645000Y-134492440D01*
X309880317Y-134448162D01*
X310096441Y-134309090D01*
X310241431Y-134096890D01*
X310292440Y-133845000D01*
X310292440Y-133245000D01*
X310248162Y-133009683D01*
X310232922Y-132986000D01*
X310515000Y-132986000D01*
X310787088Y-132931878D01*
X311017753Y-132777753D01*
X311330973Y-132464533D01*
X311325907Y-132490000D01*
G36*
X282679000Y-137903000D02*
X282699000Y-137903000D01*
X282699000Y-138157000D01*
X282679000Y-138157000D01*
X282679000Y-138177000D01*
X282425000Y-138177000D01*
X282425000Y-138157000D01*
X282405000Y-138157000D01*
X282405000Y-137903000D01*
X282425000Y-137903000D01*
X282425000Y-137883000D01*
X282679000Y-137883000D01*
X282679000Y-137903000D01*
X282679000Y-137903000D01*
G37*
X282679000Y-137903000D02*
X282699000Y-137903000D01*
X282699000Y-138157000D01*
X282679000Y-138157000D01*
X282679000Y-138177000D01*
X282425000Y-138177000D01*
X282425000Y-138157000D01*
X282405000Y-138157000D01*
X282405000Y-137903000D01*
X282425000Y-137903000D01*
X282425000Y-137883000D01*
X282679000Y-137883000D01*
X282679000Y-137903000D01*
G36*
X276211250Y-132204250D02*
X277163750Y-132204250D01*
X277183750Y-132184250D01*
X277303750Y-132184250D01*
X277323750Y-132204250D01*
X278276250Y-132204250D01*
X278296250Y-132184250D01*
X278416250Y-132184250D01*
X278436250Y-132204250D01*
X279388750Y-132204250D01*
X279408750Y-132184250D01*
X279595750Y-132184250D01*
X279595750Y-132204250D01*
X279615750Y-132204250D01*
X279615750Y-132391250D01*
X279595750Y-132411250D01*
X279595750Y-133363750D01*
X279615750Y-133383750D01*
X279615750Y-133503750D01*
X279595750Y-133523750D01*
X279595750Y-134476250D01*
X279615750Y-134496250D01*
X279615750Y-134616250D01*
X279595750Y-134636250D01*
X279595750Y-135588750D01*
X279615750Y-135608750D01*
X279615750Y-135795750D01*
X279595750Y-135795750D01*
X279595750Y-135815750D01*
X279408750Y-135815750D01*
X279388750Y-135795750D01*
X278436250Y-135795750D01*
X278416250Y-135815750D01*
X278296250Y-135815750D01*
X278276250Y-135795750D01*
X277323750Y-135795750D01*
X277303750Y-135815750D01*
X277183750Y-135815750D01*
X277163750Y-135795750D01*
X276211250Y-135795750D01*
X276191250Y-135815750D01*
X276004250Y-135815750D01*
X276004250Y-135795750D01*
X275984250Y-135795750D01*
X275984250Y-135608750D01*
X276004250Y-135588750D01*
X276004250Y-134636250D01*
X275984250Y-134616250D01*
X275984250Y-134496250D01*
X276004250Y-134476250D01*
X276004250Y-133523750D01*
X275984250Y-133503750D01*
X275984250Y-133383750D01*
X276004250Y-133363750D01*
X276004250Y-132617000D01*
X276052500Y-132617000D01*
X276052500Y-133158000D01*
X276211250Y-133316750D01*
X276218725Y-133316750D01*
X276258250Y-133356276D01*
X276258250Y-133363750D01*
X276338250Y-133443750D01*
X276258250Y-133523750D01*
X276258250Y-133531224D01*
X276218725Y-133570750D01*
X276211250Y-133570750D01*
X276052500Y-133729500D01*
X276052500Y-134270500D01*
X276211250Y-134429250D01*
X276218725Y-134429250D01*
X276258250Y-134468776D01*
X276258250Y-134476250D01*
X276338250Y-134556250D01*
X276258250Y-134636250D01*
X276258250Y-134643724D01*
X276218725Y-134683250D01*
X276211250Y-134683250D01*
X276052500Y-134842000D01*
X276052500Y-135383000D01*
X276211250Y-135541750D01*
X276218725Y-135541750D01*
X276258250Y-135581276D01*
X276258250Y-135588750D01*
X276417000Y-135747500D01*
X276958000Y-135747500D01*
X277116750Y-135588750D01*
X277116750Y-135581276D01*
X277156275Y-135541750D01*
X277163750Y-135541750D01*
X277243750Y-135461750D01*
X277323750Y-135541750D01*
X277331225Y-135541750D01*
X277370750Y-135581276D01*
X277370750Y-135588750D01*
X277529500Y-135747500D01*
X278070500Y-135747500D01*
X278229250Y-135588750D01*
X278229250Y-135581276D01*
X278268775Y-135541750D01*
X278276250Y-135541750D01*
X278356250Y-135461750D01*
X278436250Y-135541750D01*
X278443725Y-135541750D01*
X278483250Y-135581276D01*
X278483250Y-135588750D01*
X278642000Y-135747500D01*
X279183000Y-135747500D01*
X279341750Y-135588750D01*
X279341750Y-135581276D01*
X279381275Y-135541750D01*
X279388750Y-135541750D01*
X279547500Y-135383000D01*
X279547500Y-134842000D01*
X279388750Y-134683250D01*
X279381275Y-134683250D01*
X279341750Y-134643724D01*
X279341750Y-134636250D01*
X279261750Y-134556250D01*
X279341750Y-134476250D01*
X279341750Y-134468776D01*
X279381275Y-134429250D01*
X279388750Y-134429250D01*
X279547500Y-134270500D01*
X279547500Y-133729500D01*
X279388750Y-133570750D01*
X279381275Y-133570750D01*
X279341750Y-133531224D01*
X279341750Y-133523750D01*
X279261750Y-133443750D01*
X279341750Y-133363750D01*
X279341750Y-133356276D01*
X279381275Y-133316750D01*
X279388750Y-133316750D01*
X279547500Y-133158000D01*
X279547500Y-132617000D01*
X279388750Y-132458250D01*
X279381275Y-132458250D01*
X279341750Y-132418724D01*
X279341750Y-132411250D01*
X279183000Y-132252500D01*
X278642000Y-132252500D01*
X278483250Y-132411250D01*
X278483250Y-132418724D01*
X278443725Y-132458250D01*
X278436250Y-132458250D01*
X278356250Y-132538250D01*
X278276250Y-132458250D01*
X278268775Y-132458250D01*
X278229250Y-132418724D01*
X278229250Y-132411250D01*
X278070500Y-132252500D01*
X277529500Y-132252500D01*
X277370750Y-132411250D01*
X277370750Y-132418724D01*
X277331225Y-132458250D01*
X277323750Y-132458250D01*
X277243750Y-132538250D01*
X277163750Y-132458250D01*
X277156275Y-132458250D01*
X277116750Y-132418724D01*
X277116750Y-132411250D01*
X276958000Y-132252500D01*
X276417000Y-132252500D01*
X276258250Y-132411250D01*
X276258250Y-132418724D01*
X276218725Y-132458250D01*
X276211250Y-132458250D01*
X276052500Y-132617000D01*
X276004250Y-132617000D01*
X276004250Y-132411250D01*
X275984250Y-132391250D01*
X275984250Y-132204250D01*
X276004250Y-132204250D01*
X276004250Y-132184250D01*
X276191250Y-132184250D01*
X276211250Y-132204250D01*
X276211250Y-132204250D01*
G37*
X276211250Y-132204250D02*
X277163750Y-132204250D01*
X277183750Y-132184250D01*
X277303750Y-132184250D01*
X277323750Y-132204250D01*
X278276250Y-132204250D01*
X278296250Y-132184250D01*
X278416250Y-132184250D01*
X278436250Y-132204250D01*
X279388750Y-132204250D01*
X279408750Y-132184250D01*
X279595750Y-132184250D01*
X279595750Y-132204250D01*
X279615750Y-132204250D01*
X279615750Y-132391250D01*
X279595750Y-132411250D01*
X279595750Y-133363750D01*
X279615750Y-133383750D01*
X279615750Y-133503750D01*
X279595750Y-133523750D01*
X279595750Y-134476250D01*
X279615750Y-134496250D01*
X279615750Y-134616250D01*
X279595750Y-134636250D01*
X279595750Y-135588750D01*
X279615750Y-135608750D01*
X279615750Y-135795750D01*
X279595750Y-135795750D01*
X279595750Y-135815750D01*
X279408750Y-135815750D01*
X279388750Y-135795750D01*
X278436250Y-135795750D01*
X278416250Y-135815750D01*
X278296250Y-135815750D01*
X278276250Y-135795750D01*
X277323750Y-135795750D01*
X277303750Y-135815750D01*
X277183750Y-135815750D01*
X277163750Y-135795750D01*
X276211250Y-135795750D01*
X276191250Y-135815750D01*
X276004250Y-135815750D01*
X276004250Y-135795750D01*
X275984250Y-135795750D01*
X275984250Y-135608750D01*
X276004250Y-135588750D01*
X276004250Y-134636250D01*
X275984250Y-134616250D01*
X275984250Y-134496250D01*
X276004250Y-134476250D01*
X276004250Y-133523750D01*
X275984250Y-133503750D01*
X275984250Y-133383750D01*
X276004250Y-133363750D01*
X276004250Y-132617000D01*
X276052500Y-132617000D01*
X276052500Y-133158000D01*
X276211250Y-133316750D01*
X276218725Y-133316750D01*
X276258250Y-133356276D01*
X276258250Y-133363750D01*
X276338250Y-133443750D01*
X276258250Y-133523750D01*
X276258250Y-133531224D01*
X276218725Y-133570750D01*
X276211250Y-133570750D01*
X276052500Y-133729500D01*
X276052500Y-134270500D01*
X276211250Y-134429250D01*
X276218725Y-134429250D01*
X276258250Y-134468776D01*
X276258250Y-134476250D01*
X276338250Y-134556250D01*
X276258250Y-134636250D01*
X276258250Y-134643724D01*
X276218725Y-134683250D01*
X276211250Y-134683250D01*
X276052500Y-134842000D01*
X276052500Y-135383000D01*
X276211250Y-135541750D01*
X276218725Y-135541750D01*
X276258250Y-135581276D01*
X276258250Y-135588750D01*
X276417000Y-135747500D01*
X276958000Y-135747500D01*
X277116750Y-135588750D01*
X277116750Y-135581276D01*
X277156275Y-135541750D01*
X277163750Y-135541750D01*
X277243750Y-135461750D01*
X277323750Y-135541750D01*
X277331225Y-135541750D01*
X277370750Y-135581276D01*
X277370750Y-135588750D01*
X277529500Y-135747500D01*
X278070500Y-135747500D01*
X278229250Y-135588750D01*
X278229250Y-135581276D01*
X278268775Y-135541750D01*
X278276250Y-135541750D01*
X278356250Y-135461750D01*
X278436250Y-135541750D01*
X278443725Y-135541750D01*
X278483250Y-135581276D01*
X278483250Y-135588750D01*
X278642000Y-135747500D01*
X279183000Y-135747500D01*
X279341750Y-135588750D01*
X279341750Y-135581276D01*
X279381275Y-135541750D01*
X279388750Y-135541750D01*
X279547500Y-135383000D01*
X279547500Y-134842000D01*
X279388750Y-134683250D01*
X279381275Y-134683250D01*
X279341750Y-134643724D01*
X279341750Y-134636250D01*
X279261750Y-134556250D01*
X279341750Y-134476250D01*
X279341750Y-134468776D01*
X279381275Y-134429250D01*
X279388750Y-134429250D01*
X279547500Y-134270500D01*
X279547500Y-133729500D01*
X279388750Y-133570750D01*
X279381275Y-133570750D01*
X279341750Y-133531224D01*
X279341750Y-133523750D01*
X279261750Y-133443750D01*
X279341750Y-133363750D01*
X279341750Y-133356276D01*
X279381275Y-133316750D01*
X279388750Y-133316750D01*
X279547500Y-133158000D01*
X279547500Y-132617000D01*
X279388750Y-132458250D01*
X279381275Y-132458250D01*
X279341750Y-132418724D01*
X279341750Y-132411250D01*
X279183000Y-132252500D01*
X278642000Y-132252500D01*
X278483250Y-132411250D01*
X278483250Y-132418724D01*
X278443725Y-132458250D01*
X278436250Y-132458250D01*
X278356250Y-132538250D01*
X278276250Y-132458250D01*
X278268775Y-132458250D01*
X278229250Y-132418724D01*
X278229250Y-132411250D01*
X278070500Y-132252500D01*
X277529500Y-132252500D01*
X277370750Y-132411250D01*
X277370750Y-132418724D01*
X277331225Y-132458250D01*
X277323750Y-132458250D01*
X277243750Y-132538250D01*
X277163750Y-132458250D01*
X277156275Y-132458250D01*
X277116750Y-132418724D01*
X277116750Y-132411250D01*
X276958000Y-132252500D01*
X276417000Y-132252500D01*
X276258250Y-132411250D01*
X276258250Y-132418724D01*
X276218725Y-132458250D01*
X276211250Y-132458250D01*
X276052500Y-132617000D01*
X276004250Y-132617000D01*
X276004250Y-132411250D01*
X275984250Y-132391250D01*
X275984250Y-132204250D01*
X276004250Y-132204250D01*
X276004250Y-132184250D01*
X276191250Y-132184250D01*
X276211250Y-132204250D01*
G36*
X277323750Y-134429250D02*
X277331225Y-134429250D01*
X277370750Y-134468776D01*
X277370750Y-134476250D01*
X277450750Y-134556250D01*
X277370750Y-134636250D01*
X277370750Y-134643724D01*
X277331225Y-134683250D01*
X277323750Y-134683250D01*
X277243750Y-134763250D01*
X277163750Y-134683250D01*
X277156275Y-134683250D01*
X277116750Y-134643724D01*
X277116750Y-134636250D01*
X277036750Y-134556250D01*
X277116750Y-134476250D01*
X277116750Y-134468776D01*
X277156275Y-134429250D01*
X277163750Y-134429250D01*
X277243750Y-134349250D01*
X277323750Y-134429250D01*
X277323750Y-134429250D01*
G37*
X277323750Y-134429250D02*
X277331225Y-134429250D01*
X277370750Y-134468776D01*
X277370750Y-134476250D01*
X277450750Y-134556250D01*
X277370750Y-134636250D01*
X277370750Y-134643724D01*
X277331225Y-134683250D01*
X277323750Y-134683250D01*
X277243750Y-134763250D01*
X277163750Y-134683250D01*
X277156275Y-134683250D01*
X277116750Y-134643724D01*
X277116750Y-134636250D01*
X277036750Y-134556250D01*
X277116750Y-134476250D01*
X277116750Y-134468776D01*
X277156275Y-134429250D01*
X277163750Y-134429250D01*
X277243750Y-134349250D01*
X277323750Y-134429250D01*
G36*
X278436250Y-134429250D02*
X278443725Y-134429250D01*
X278483250Y-134468776D01*
X278483250Y-134476250D01*
X278563250Y-134556250D01*
X278483250Y-134636250D01*
X278483250Y-134643724D01*
X278443725Y-134683250D01*
X278436250Y-134683250D01*
X278356250Y-134763250D01*
X278276250Y-134683250D01*
X278268775Y-134683250D01*
X278229250Y-134643724D01*
X278229250Y-134636250D01*
X278149250Y-134556250D01*
X278229250Y-134476250D01*
X278229250Y-134468776D01*
X278268775Y-134429250D01*
X278276250Y-134429250D01*
X278356250Y-134349250D01*
X278436250Y-134429250D01*
X278436250Y-134429250D01*
G37*
X278436250Y-134429250D02*
X278443725Y-134429250D01*
X278483250Y-134468776D01*
X278483250Y-134476250D01*
X278563250Y-134556250D01*
X278483250Y-134636250D01*
X278483250Y-134643724D01*
X278443725Y-134683250D01*
X278436250Y-134683250D01*
X278356250Y-134763250D01*
X278276250Y-134683250D01*
X278268775Y-134683250D01*
X278229250Y-134643724D01*
X278229250Y-134636250D01*
X278149250Y-134556250D01*
X278229250Y-134476250D01*
X278229250Y-134468776D01*
X278268775Y-134429250D01*
X278276250Y-134429250D01*
X278356250Y-134349250D01*
X278436250Y-134429250D01*
G36*
X277323750Y-133316750D02*
X277331225Y-133316750D01*
X277370750Y-133356276D01*
X277370750Y-133363750D01*
X277450750Y-133443750D01*
X277370750Y-133523750D01*
X277370750Y-133531224D01*
X277331225Y-133570750D01*
X277323750Y-133570750D01*
X277243750Y-133650750D01*
X277163750Y-133570750D01*
X277156275Y-133570750D01*
X277116750Y-133531224D01*
X277116750Y-133523750D01*
X277036750Y-133443750D01*
X277116750Y-133363750D01*
X277116750Y-133356276D01*
X277156275Y-133316750D01*
X277163750Y-133316750D01*
X277243750Y-133236750D01*
X277323750Y-133316750D01*
X277323750Y-133316750D01*
G37*
X277323750Y-133316750D02*
X277331225Y-133316750D01*
X277370750Y-133356276D01*
X277370750Y-133363750D01*
X277450750Y-133443750D01*
X277370750Y-133523750D01*
X277370750Y-133531224D01*
X277331225Y-133570750D01*
X277323750Y-133570750D01*
X277243750Y-133650750D01*
X277163750Y-133570750D01*
X277156275Y-133570750D01*
X277116750Y-133531224D01*
X277116750Y-133523750D01*
X277036750Y-133443750D01*
X277116750Y-133363750D01*
X277116750Y-133356276D01*
X277156275Y-133316750D01*
X277163750Y-133316750D01*
X277243750Y-133236750D01*
X277323750Y-133316750D01*
G36*
X278436250Y-133316750D02*
X278443725Y-133316750D01*
X278483250Y-133356276D01*
X278483250Y-133363750D01*
X278563250Y-133443750D01*
X278483250Y-133523750D01*
X278483250Y-133531224D01*
X278443725Y-133570750D01*
X278436250Y-133570750D01*
X278356250Y-133650750D01*
X278276250Y-133570750D01*
X278268775Y-133570750D01*
X278229250Y-133531224D01*
X278229250Y-133523750D01*
X278149250Y-133443750D01*
X278229250Y-133363750D01*
X278229250Y-133356276D01*
X278268775Y-133316750D01*
X278276250Y-133316750D01*
X278356250Y-133236750D01*
X278436250Y-133316750D01*
X278436250Y-133316750D01*
G37*
X278436250Y-133316750D02*
X278443725Y-133316750D01*
X278483250Y-133356276D01*
X278483250Y-133363750D01*
X278563250Y-133443750D01*
X278483250Y-133523750D01*
X278483250Y-133531224D01*
X278443725Y-133570750D01*
X278436250Y-133570750D01*
X278356250Y-133650750D01*
X278276250Y-133570750D01*
X278268775Y-133570750D01*
X278229250Y-133531224D01*
X278229250Y-133523750D01*
X278149250Y-133443750D01*
X278229250Y-133363750D01*
X278229250Y-133356276D01*
X278268775Y-133316750D01*
X278276250Y-133316750D01*
X278356250Y-133236750D01*
X278436250Y-133316750D01*
G36*
X272900280Y-134497250D02*
X273347000Y-134497250D01*
X273347000Y-134649275D01*
X273327000Y-134649275D01*
X273327000Y-134696580D01*
X273073000Y-134696580D01*
X273073000Y-134649275D01*
X272424030Y-134649275D01*
X272346305Y-134727000D01*
X272327000Y-134727000D01*
X272327000Y-134746305D01*
X272326305Y-134747000D01*
X272073000Y-134747000D01*
X272073000Y-134727000D01*
X272053000Y-134727000D01*
X272053000Y-134722587D01*
X272146878Y-134582088D01*
X272153770Y-134547440D01*
X272650000Y-134547440D01*
X272885317Y-134503162D01*
X272895887Y-134496360D01*
X272900280Y-134497250D01*
X272900280Y-134497250D01*
G37*
X272900280Y-134497250D02*
X273347000Y-134497250D01*
X273347000Y-134649275D01*
X273327000Y-134649275D01*
X273327000Y-134696580D01*
X273073000Y-134696580D01*
X273073000Y-134649275D01*
X272424030Y-134649275D01*
X272346305Y-134727000D01*
X272327000Y-134727000D01*
X272327000Y-134746305D01*
X272326305Y-134747000D01*
X272073000Y-134747000D01*
X272073000Y-134727000D01*
X272053000Y-134727000D01*
X272053000Y-134722587D01*
X272146878Y-134582088D01*
X272153770Y-134547440D01*
X272650000Y-134547440D01*
X272885317Y-134503162D01*
X272895887Y-134496360D01*
X272900280Y-134497250D01*
G36*
X287990173Y-126310802D02*
X287893500Y-126544191D01*
X287893500Y-126702250D01*
X288052250Y-126861000D01*
X288973000Y-126861000D01*
X288973000Y-126841000D01*
X289227000Y-126841000D01*
X289227000Y-126861000D01*
X290147750Y-126861000D01*
X290158025Y-126850725D01*
X290673000Y-126850725D01*
X290673000Y-126803420D01*
X290927000Y-126803420D01*
X290927000Y-126850725D01*
X291575970Y-126850725D01*
X291590695Y-126836000D01*
X292148000Y-126836000D01*
X292148000Y-126816000D01*
X292402000Y-126816000D01*
X292402000Y-126836000D01*
X292984305Y-126836000D01*
X292999030Y-126850725D01*
X293648000Y-126850725D01*
X293648000Y-126803420D01*
X293902000Y-126803420D01*
X293902000Y-126850725D01*
X294550970Y-126850725D01*
X294709720Y-126691975D01*
X294709720Y-126624721D01*
X294613047Y-126391332D01*
X294434419Y-126212703D01*
X294367538Y-126185000D01*
X311477686Y-126185000D01*
X311393569Y-126308110D01*
X311342560Y-126560000D01*
X311342560Y-128031934D01*
X310217263Y-129157231D01*
X310183327Y-129075301D01*
X310004698Y-128896673D01*
X309771309Y-128800000D01*
X309155750Y-128800000D01*
X308997000Y-128958750D01*
X308997000Y-129608000D01*
X309017000Y-129608000D01*
X309017000Y-129862000D01*
X308997000Y-129862000D01*
X308997000Y-129882000D01*
X308743000Y-129882000D01*
X308743000Y-129862000D01*
X307618750Y-129862000D01*
X307460000Y-130020750D01*
X307460000Y-130161310D01*
X307549806Y-130378122D01*
X307498569Y-130453110D01*
X307447560Y-130705000D01*
X307447560Y-131305000D01*
X307491838Y-131540317D01*
X307555678Y-131639528D01*
X307498569Y-131723110D01*
X307447560Y-131975000D01*
X307447560Y-132575000D01*
X307491838Y-132810317D01*
X307507078Y-132834000D01*
X307474580Y-132834000D01*
X307202492Y-132888122D01*
X306981311Y-133035910D01*
X306971827Y-133042247D01*
X306491234Y-133522840D01*
X306350190Y-133522840D01*
X306114873Y-133567118D01*
X306103016Y-133574748D01*
X306101700Y-133573849D01*
X305849810Y-133522840D01*
X305708766Y-133522840D01*
X305228173Y-133042247D01*
X304997508Y-132888122D01*
X304823274Y-132853464D01*
X304841431Y-132826890D01*
X304892440Y-132575000D01*
X304892440Y-132353066D01*
X305162753Y-132082753D01*
X305316878Y-131852088D01*
X305371000Y-131580000D01*
X305371000Y-130129574D01*
X305406822Y-130122448D01*
X305649977Y-129959977D01*
X306301263Y-129308690D01*
X307460000Y-129308690D01*
X307460000Y-129449250D01*
X307618750Y-129608000D01*
X308743000Y-129608000D01*
X308743000Y-128958750D01*
X308584250Y-128800000D01*
X307968691Y-128800000D01*
X307735302Y-128896673D01*
X307556673Y-129075301D01*
X307460000Y-129308690D01*
X306301263Y-129308690D01*
X306570394Y-129039559D01*
X306570397Y-129039557D01*
X306732868Y-128796401D01*
X306738682Y-128767173D01*
X306839885Y-128665970D01*
X306839885Y-128423615D01*
X306887250Y-128189720D01*
X306887250Y-128017000D01*
X307039275Y-128017000D01*
X307039275Y-128665970D01*
X307198025Y-128824720D01*
X307265279Y-128824720D01*
X307498668Y-128728047D01*
X307677297Y-128549419D01*
X307773970Y-128316030D01*
X307773970Y-128175750D01*
X307615220Y-128017000D01*
X307039275Y-128017000D01*
X306887250Y-128017000D01*
X306887250Y-127590280D01*
X306842972Y-127354963D01*
X306839885Y-127350166D01*
X306839885Y-127114030D01*
X307039275Y-127114030D01*
X307039275Y-127763000D01*
X307615220Y-127763000D01*
X307773970Y-127604250D01*
X307773970Y-127463970D01*
X307677297Y-127230581D01*
X307498668Y-127051953D01*
X307265279Y-126955280D01*
X307198025Y-126955280D01*
X307039275Y-127114030D01*
X306839885Y-127114030D01*
X306681135Y-126955280D01*
X306613881Y-126955280D01*
X306502671Y-127001345D01*
X306491700Y-126993849D01*
X306239810Y-126942840D01*
X305841030Y-126942840D01*
X305605713Y-126987118D01*
X305389589Y-127126190D01*
X305244599Y-127338390D01*
X305193590Y-127590280D01*
X305193590Y-128189720D01*
X305210493Y-128279553D01*
X304867776Y-128622270D01*
X304792753Y-128547247D01*
X304562088Y-128393122D01*
X304290000Y-128339000D01*
X302180000Y-128339000D01*
X301907912Y-128393122D01*
X301730163Y-128511890D01*
X301677247Y-128547247D01*
X300535175Y-129689320D01*
X300475970Y-129630115D01*
X300233615Y-129630115D01*
X299999720Y-129582750D01*
X299784308Y-129582750D01*
X299700000Y-129565980D01*
X298475000Y-129565980D01*
X298392370Y-129582416D01*
X298328000Y-129518046D01*
X298328000Y-129430725D01*
X298348000Y-129430725D01*
X298348000Y-128854780D01*
X298602000Y-128854780D01*
X298602000Y-129430725D01*
X299573000Y-129430725D01*
X299573000Y-128854780D01*
X299827000Y-128854780D01*
X299827000Y-129430725D01*
X300475970Y-129430725D01*
X300634720Y-129271975D01*
X300634720Y-129204721D01*
X300538047Y-128971332D01*
X300359419Y-128792703D01*
X300126030Y-128696030D01*
X299985750Y-128696030D01*
X299827000Y-128854780D01*
X299573000Y-128854780D01*
X299414250Y-128696030D01*
X299273970Y-128696030D01*
X299087500Y-128773268D01*
X298901030Y-128696030D01*
X298760750Y-128696030D01*
X298602000Y-128854780D01*
X298348000Y-128854780D01*
X298189250Y-128696030D01*
X298048970Y-128696030D01*
X298004136Y-128714601D01*
X298009720Y-128701119D01*
X298009720Y-128633865D01*
X297850970Y-128475115D01*
X297608615Y-128475115D01*
X297374720Y-128427750D01*
X297159308Y-128427750D01*
X297075000Y-128410980D01*
X296025000Y-128410980D01*
X295940692Y-128427750D01*
X295725280Y-128427750D01*
X295489963Y-128472028D01*
X295485166Y-128475115D01*
X295249030Y-128475115D01*
X295160565Y-128563580D01*
X294875420Y-128563580D01*
X294603332Y-128617702D01*
X294372667Y-128771827D01*
X293341934Y-129802560D01*
X293100000Y-129802560D01*
X293028677Y-129815980D01*
X293026310Y-129815000D01*
X292983750Y-129815000D01*
X292972129Y-129826621D01*
X292961000Y-129828715D01*
X292961000Y-129430395D01*
X293081817Y-129407662D01*
X293297941Y-129268590D01*
X293442931Y-129056390D01*
X293493940Y-128804500D01*
X293493940Y-128696410D01*
X294074720Y-128696410D01*
X294310037Y-128652132D01*
X294526161Y-128513060D01*
X294671151Y-128300860D01*
X294722007Y-128049721D01*
X295090280Y-128049721D01*
X295090280Y-128116975D01*
X295249030Y-128275725D01*
X295898000Y-128275725D01*
X295898000Y-128049721D01*
X296140280Y-128049721D01*
X296140280Y-128116975D01*
X296152000Y-128128695D01*
X296152000Y-128275725D01*
X296948000Y-128275725D01*
X296948000Y-128128695D01*
X296959720Y-128116975D01*
X296959720Y-128049721D01*
X296948000Y-128021426D01*
X296948000Y-127699780D01*
X297202000Y-127699780D01*
X297202000Y-128275725D01*
X297850970Y-128275725D01*
X298009720Y-128116975D01*
X298009720Y-128049721D01*
X297913047Y-127816332D01*
X297734419Y-127637703D01*
X297501030Y-127541030D01*
X297360750Y-127541030D01*
X297202000Y-127699780D01*
X296948000Y-127699780D01*
X296789250Y-127541030D01*
X296648970Y-127541030D01*
X296550000Y-127582025D01*
X296451030Y-127541030D01*
X296310750Y-127541030D01*
X296152000Y-127699780D01*
X296152000Y-128021426D01*
X296140280Y-128049721D01*
X295898000Y-128049721D01*
X295898000Y-127699780D01*
X295739250Y-127541030D01*
X295598970Y-127541030D01*
X295365581Y-127637703D01*
X295186953Y-127816332D01*
X295090280Y-128049721D01*
X294722007Y-128049721D01*
X294722160Y-128048970D01*
X294722160Y-127650190D01*
X294677882Y-127414873D01*
X294662286Y-127390636D01*
X294709720Y-127276119D01*
X294709720Y-127208865D01*
X294550970Y-127050115D01*
X294308615Y-127050115D01*
X294074720Y-127002750D01*
X293475280Y-127002750D01*
X293239963Y-127047028D01*
X293235166Y-127050115D01*
X292999030Y-127050115D01*
X292959145Y-127090000D01*
X292402000Y-127090000D01*
X292402000Y-127110000D01*
X292148000Y-127110000D01*
X292148000Y-127090000D01*
X291615855Y-127090000D01*
X291575970Y-127050115D01*
X291333615Y-127050115D01*
X291099720Y-127002750D01*
X290500280Y-127002750D01*
X290264963Y-127047028D01*
X290260166Y-127050115D01*
X290024030Y-127050115D01*
X289959145Y-127115000D01*
X289227000Y-127115000D01*
X289227000Y-127135000D01*
X288973000Y-127135000D01*
X288973000Y-127115000D01*
X288052250Y-127115000D01*
X287893500Y-127273750D01*
X287893500Y-127431809D01*
X287990173Y-127665198D01*
X288068261Y-127743286D01*
X287932069Y-127942610D01*
X287881060Y-128194500D01*
X287881060Y-128829500D01*
X287925263Y-129064420D01*
X287650750Y-129064420D01*
X287526610Y-128979599D01*
X287274720Y-128928590D01*
X286727160Y-128928590D01*
X286727160Y-128531030D01*
X286682882Y-128295713D01*
X286676582Y-128285923D01*
X286676582Y-128163277D01*
X286808025Y-128294720D01*
X286875279Y-128294720D01*
X287108668Y-128198047D01*
X287287297Y-128019419D01*
X287383970Y-127786030D01*
X287383970Y-127645750D01*
X287225220Y-127487000D01*
X286649275Y-127487000D01*
X286649275Y-127507000D01*
X286497250Y-127507000D01*
X286497250Y-127060280D01*
X286452972Y-126824963D01*
X286449885Y-126820166D01*
X286449885Y-126584030D01*
X286649275Y-126584030D01*
X286649275Y-127233000D01*
X287225220Y-127233000D01*
X287383970Y-127074250D01*
X287383970Y-126933970D01*
X287287297Y-126700581D01*
X287108668Y-126521953D01*
X286875279Y-126425280D01*
X286808025Y-126425280D01*
X286649275Y-126584030D01*
X286449885Y-126584030D01*
X286291135Y-126425280D01*
X286223881Y-126425280D01*
X286112671Y-126471345D01*
X286101700Y-126463849D01*
X285849810Y-126412840D01*
X285451030Y-126412840D01*
X285215713Y-126457118D01*
X285176068Y-126482629D01*
X284907609Y-126371154D01*
X284553943Y-126370846D01*
X284317968Y-126468349D01*
X284240000Y-126452560D01*
X284040000Y-126452560D01*
X284000322Y-126460026D01*
X283840000Y-126427560D01*
X283640000Y-126427560D01*
X283536329Y-126447067D01*
X283440000Y-126427560D01*
X283240000Y-126427560D01*
X283136329Y-126447067D01*
X283040000Y-126427560D01*
X282840000Y-126427560D01*
X282736329Y-126447067D01*
X282640000Y-126427560D01*
X282440000Y-126427560D01*
X282204683Y-126471838D01*
X282042470Y-126576220D01*
X282039440Y-126573190D01*
X282039440Y-126185000D01*
X288115974Y-126185000D01*
X287990173Y-126310802D01*
X287990173Y-126310802D01*
G37*
X287990173Y-126310802D02*
X287893500Y-126544191D01*
X287893500Y-126702250D01*
X288052250Y-126861000D01*
X288973000Y-126861000D01*
X288973000Y-126841000D01*
X289227000Y-126841000D01*
X289227000Y-126861000D01*
X290147750Y-126861000D01*
X290158025Y-126850725D01*
X290673000Y-126850725D01*
X290673000Y-126803420D01*
X290927000Y-126803420D01*
X290927000Y-126850725D01*
X291575970Y-126850725D01*
X291590695Y-126836000D01*
X292148000Y-126836000D01*
X292148000Y-126816000D01*
X292402000Y-126816000D01*
X292402000Y-126836000D01*
X292984305Y-126836000D01*
X292999030Y-126850725D01*
X293648000Y-126850725D01*
X293648000Y-126803420D01*
X293902000Y-126803420D01*
X293902000Y-126850725D01*
X294550970Y-126850725D01*
X294709720Y-126691975D01*
X294709720Y-126624721D01*
X294613047Y-126391332D01*
X294434419Y-126212703D01*
X294367538Y-126185000D01*
X311477686Y-126185000D01*
X311393569Y-126308110D01*
X311342560Y-126560000D01*
X311342560Y-128031934D01*
X310217263Y-129157231D01*
X310183327Y-129075301D01*
X310004698Y-128896673D01*
X309771309Y-128800000D01*
X309155750Y-128800000D01*
X308997000Y-128958750D01*
X308997000Y-129608000D01*
X309017000Y-129608000D01*
X309017000Y-129862000D01*
X308997000Y-129862000D01*
X308997000Y-129882000D01*
X308743000Y-129882000D01*
X308743000Y-129862000D01*
X307618750Y-129862000D01*
X307460000Y-130020750D01*
X307460000Y-130161310D01*
X307549806Y-130378122D01*
X307498569Y-130453110D01*
X307447560Y-130705000D01*
X307447560Y-131305000D01*
X307491838Y-131540317D01*
X307555678Y-131639528D01*
X307498569Y-131723110D01*
X307447560Y-131975000D01*
X307447560Y-132575000D01*
X307491838Y-132810317D01*
X307507078Y-132834000D01*
X307474580Y-132834000D01*
X307202492Y-132888122D01*
X306981311Y-133035910D01*
X306971827Y-133042247D01*
X306491234Y-133522840D01*
X306350190Y-133522840D01*
X306114873Y-133567118D01*
X306103016Y-133574748D01*
X306101700Y-133573849D01*
X305849810Y-133522840D01*
X305708766Y-133522840D01*
X305228173Y-133042247D01*
X304997508Y-132888122D01*
X304823274Y-132853464D01*
X304841431Y-132826890D01*
X304892440Y-132575000D01*
X304892440Y-132353066D01*
X305162753Y-132082753D01*
X305316878Y-131852088D01*
X305371000Y-131580000D01*
X305371000Y-130129574D01*
X305406822Y-130122448D01*
X305649977Y-129959977D01*
X306301263Y-129308690D01*
X307460000Y-129308690D01*
X307460000Y-129449250D01*
X307618750Y-129608000D01*
X308743000Y-129608000D01*
X308743000Y-128958750D01*
X308584250Y-128800000D01*
X307968691Y-128800000D01*
X307735302Y-128896673D01*
X307556673Y-129075301D01*
X307460000Y-129308690D01*
X306301263Y-129308690D01*
X306570394Y-129039559D01*
X306570397Y-129039557D01*
X306732868Y-128796401D01*
X306738682Y-128767173D01*
X306839885Y-128665970D01*
X306839885Y-128423615D01*
X306887250Y-128189720D01*
X306887250Y-128017000D01*
X307039275Y-128017000D01*
X307039275Y-128665970D01*
X307198025Y-128824720D01*
X307265279Y-128824720D01*
X307498668Y-128728047D01*
X307677297Y-128549419D01*
X307773970Y-128316030D01*
X307773970Y-128175750D01*
X307615220Y-128017000D01*
X307039275Y-128017000D01*
X306887250Y-128017000D01*
X306887250Y-127590280D01*
X306842972Y-127354963D01*
X306839885Y-127350166D01*
X306839885Y-127114030D01*
X307039275Y-127114030D01*
X307039275Y-127763000D01*
X307615220Y-127763000D01*
X307773970Y-127604250D01*
X307773970Y-127463970D01*
X307677297Y-127230581D01*
X307498668Y-127051953D01*
X307265279Y-126955280D01*
X307198025Y-126955280D01*
X307039275Y-127114030D01*
X306839885Y-127114030D01*
X306681135Y-126955280D01*
X306613881Y-126955280D01*
X306502671Y-127001345D01*
X306491700Y-126993849D01*
X306239810Y-126942840D01*
X305841030Y-126942840D01*
X305605713Y-126987118D01*
X305389589Y-127126190D01*
X305244599Y-127338390D01*
X305193590Y-127590280D01*
X305193590Y-128189720D01*
X305210493Y-128279553D01*
X304867776Y-128622270D01*
X304792753Y-128547247D01*
X304562088Y-128393122D01*
X304290000Y-128339000D01*
X302180000Y-128339000D01*
X301907912Y-128393122D01*
X301730163Y-128511890D01*
X301677247Y-128547247D01*
X300535175Y-129689320D01*
X300475970Y-129630115D01*
X300233615Y-129630115D01*
X299999720Y-129582750D01*
X299784308Y-129582750D01*
X299700000Y-129565980D01*
X298475000Y-129565980D01*
X298392370Y-129582416D01*
X298328000Y-129518046D01*
X298328000Y-129430725D01*
X298348000Y-129430725D01*
X298348000Y-128854780D01*
X298602000Y-128854780D01*
X298602000Y-129430725D01*
X299573000Y-129430725D01*
X299573000Y-128854780D01*
X299827000Y-128854780D01*
X299827000Y-129430725D01*
X300475970Y-129430725D01*
X300634720Y-129271975D01*
X300634720Y-129204721D01*
X300538047Y-128971332D01*
X300359419Y-128792703D01*
X300126030Y-128696030D01*
X299985750Y-128696030D01*
X299827000Y-128854780D01*
X299573000Y-128854780D01*
X299414250Y-128696030D01*
X299273970Y-128696030D01*
X299087500Y-128773268D01*
X298901030Y-128696030D01*
X298760750Y-128696030D01*
X298602000Y-128854780D01*
X298348000Y-128854780D01*
X298189250Y-128696030D01*
X298048970Y-128696030D01*
X298004136Y-128714601D01*
X298009720Y-128701119D01*
X298009720Y-128633865D01*
X297850970Y-128475115D01*
X297608615Y-128475115D01*
X297374720Y-128427750D01*
X297159308Y-128427750D01*
X297075000Y-128410980D01*
X296025000Y-128410980D01*
X295940692Y-128427750D01*
X295725280Y-128427750D01*
X295489963Y-128472028D01*
X295485166Y-128475115D01*
X295249030Y-128475115D01*
X295160565Y-128563580D01*
X294875420Y-128563580D01*
X294603332Y-128617702D01*
X294372667Y-128771827D01*
X293341934Y-129802560D01*
X293100000Y-129802560D01*
X293028677Y-129815980D01*
X293026310Y-129815000D01*
X292983750Y-129815000D01*
X292972129Y-129826621D01*
X292961000Y-129828715D01*
X292961000Y-129430395D01*
X293081817Y-129407662D01*
X293297941Y-129268590D01*
X293442931Y-129056390D01*
X293493940Y-128804500D01*
X293493940Y-128696410D01*
X294074720Y-128696410D01*
X294310037Y-128652132D01*
X294526161Y-128513060D01*
X294671151Y-128300860D01*
X294722007Y-128049721D01*
X295090280Y-128049721D01*
X295090280Y-128116975D01*
X295249030Y-128275725D01*
X295898000Y-128275725D01*
X295898000Y-128049721D01*
X296140280Y-128049721D01*
X296140280Y-128116975D01*
X296152000Y-128128695D01*
X296152000Y-128275725D01*
X296948000Y-128275725D01*
X296948000Y-128128695D01*
X296959720Y-128116975D01*
X296959720Y-128049721D01*
X296948000Y-128021426D01*
X296948000Y-127699780D01*
X297202000Y-127699780D01*
X297202000Y-128275725D01*
X297850970Y-128275725D01*
X298009720Y-128116975D01*
X298009720Y-128049721D01*
X297913047Y-127816332D01*
X297734419Y-127637703D01*
X297501030Y-127541030D01*
X297360750Y-127541030D01*
X297202000Y-127699780D01*
X296948000Y-127699780D01*
X296789250Y-127541030D01*
X296648970Y-127541030D01*
X296550000Y-127582025D01*
X296451030Y-127541030D01*
X296310750Y-127541030D01*
X296152000Y-127699780D01*
X296152000Y-128021426D01*
X296140280Y-128049721D01*
X295898000Y-128049721D01*
X295898000Y-127699780D01*
X295739250Y-127541030D01*
X295598970Y-127541030D01*
X295365581Y-127637703D01*
X295186953Y-127816332D01*
X295090280Y-128049721D01*
X294722007Y-128049721D01*
X294722160Y-128048970D01*
X294722160Y-127650190D01*
X294677882Y-127414873D01*
X294662286Y-127390636D01*
X294709720Y-127276119D01*
X294709720Y-127208865D01*
X294550970Y-127050115D01*
X294308615Y-127050115D01*
X294074720Y-127002750D01*
X293475280Y-127002750D01*
X293239963Y-127047028D01*
X293235166Y-127050115D01*
X292999030Y-127050115D01*
X292959145Y-127090000D01*
X292402000Y-127090000D01*
X292402000Y-127110000D01*
X292148000Y-127110000D01*
X292148000Y-127090000D01*
X291615855Y-127090000D01*
X291575970Y-127050115D01*
X291333615Y-127050115D01*
X291099720Y-127002750D01*
X290500280Y-127002750D01*
X290264963Y-127047028D01*
X290260166Y-127050115D01*
X290024030Y-127050115D01*
X289959145Y-127115000D01*
X289227000Y-127115000D01*
X289227000Y-127135000D01*
X288973000Y-127135000D01*
X288973000Y-127115000D01*
X288052250Y-127115000D01*
X287893500Y-127273750D01*
X287893500Y-127431809D01*
X287990173Y-127665198D01*
X288068261Y-127743286D01*
X287932069Y-127942610D01*
X287881060Y-128194500D01*
X287881060Y-128829500D01*
X287925263Y-129064420D01*
X287650750Y-129064420D01*
X287526610Y-128979599D01*
X287274720Y-128928590D01*
X286727160Y-128928590D01*
X286727160Y-128531030D01*
X286682882Y-128295713D01*
X286676582Y-128285923D01*
X286676582Y-128163277D01*
X286808025Y-128294720D01*
X286875279Y-128294720D01*
X287108668Y-128198047D01*
X287287297Y-128019419D01*
X287383970Y-127786030D01*
X287383970Y-127645750D01*
X287225220Y-127487000D01*
X286649275Y-127487000D01*
X286649275Y-127507000D01*
X286497250Y-127507000D01*
X286497250Y-127060280D01*
X286452972Y-126824963D01*
X286449885Y-126820166D01*
X286449885Y-126584030D01*
X286649275Y-126584030D01*
X286649275Y-127233000D01*
X287225220Y-127233000D01*
X287383970Y-127074250D01*
X287383970Y-126933970D01*
X287287297Y-126700581D01*
X287108668Y-126521953D01*
X286875279Y-126425280D01*
X286808025Y-126425280D01*
X286649275Y-126584030D01*
X286449885Y-126584030D01*
X286291135Y-126425280D01*
X286223881Y-126425280D01*
X286112671Y-126471345D01*
X286101700Y-126463849D01*
X285849810Y-126412840D01*
X285451030Y-126412840D01*
X285215713Y-126457118D01*
X285176068Y-126482629D01*
X284907609Y-126371154D01*
X284553943Y-126370846D01*
X284317968Y-126468349D01*
X284240000Y-126452560D01*
X284040000Y-126452560D01*
X284000322Y-126460026D01*
X283840000Y-126427560D01*
X283640000Y-126427560D01*
X283536329Y-126447067D01*
X283440000Y-126427560D01*
X283240000Y-126427560D01*
X283136329Y-126447067D01*
X283040000Y-126427560D01*
X282840000Y-126427560D01*
X282736329Y-126447067D01*
X282640000Y-126427560D01*
X282440000Y-126427560D01*
X282204683Y-126471838D01*
X282042470Y-126576220D01*
X282039440Y-126573190D01*
X282039440Y-126185000D01*
X288115974Y-126185000D01*
X287990173Y-126310802D01*
G36*
X288397000Y-131327000D02*
X288103000Y-131327000D01*
X288103000Y-131073000D01*
X288397000Y-131073000D01*
X288397000Y-131327000D01*
X288397000Y-131327000D01*
G37*
X288397000Y-131327000D02*
X288103000Y-131327000D01*
X288103000Y-131073000D01*
X288397000Y-131073000D01*
X288397000Y-131327000D01*
G36*
X273202750Y-129749720D02*
X273247028Y-129985037D01*
X273250115Y-129989834D01*
X273250115Y-130225970D01*
X273400422Y-130376277D01*
X272677000Y-131110941D01*
X272677000Y-130323532D01*
X272824721Y-130384720D01*
X272891975Y-130384720D01*
X273050725Y-130225970D01*
X273050725Y-129577000D01*
X273003420Y-129577000D01*
X273003420Y-129323000D01*
X273050725Y-129323000D01*
X273050725Y-129303000D01*
X273202750Y-129303000D01*
X273202750Y-129749720D01*
X273202750Y-129749720D01*
G37*
X273202750Y-129749720D02*
X273247028Y-129985037D01*
X273250115Y-129989834D01*
X273250115Y-130225970D01*
X273400422Y-130376277D01*
X272677000Y-131110941D01*
X272677000Y-130323532D01*
X272824721Y-130384720D01*
X272891975Y-130384720D01*
X273050725Y-130225970D01*
X273050725Y-129577000D01*
X273003420Y-129577000D01*
X273003420Y-129323000D01*
X273050725Y-129323000D01*
X273050725Y-129303000D01*
X273202750Y-129303000D01*
X273202750Y-129749720D01*
G36*
X283640000Y-128272440D02*
X283717560Y-128272440D01*
X283717560Y-128350000D01*
X283737067Y-128453671D01*
X283717560Y-128550000D01*
X283717560Y-128750000D01*
X283730980Y-128821323D01*
X283730000Y-128823690D01*
X283730000Y-128841250D01*
X283735826Y-128847076D01*
X283761838Y-128985317D01*
X283802481Y-129048478D01*
X283768569Y-129098110D01*
X283737572Y-129251178D01*
X283730000Y-129258750D01*
X283730000Y-129276310D01*
X283731667Y-129280335D01*
X283717560Y-129350000D01*
X283717560Y-129427560D01*
X283640000Y-129427560D01*
X283536329Y-129447067D01*
X283440000Y-129427560D01*
X283240000Y-129427560D01*
X283136329Y-129447067D01*
X283040000Y-129427560D01*
X282840000Y-129427560D01*
X282736329Y-129447067D01*
X282640000Y-129427560D01*
X282562440Y-129427560D01*
X282562440Y-129350000D01*
X282542933Y-129246329D01*
X282562440Y-129150000D01*
X282562440Y-128950000D01*
X282542933Y-128846329D01*
X282562440Y-128750000D01*
X282562440Y-128550000D01*
X282542933Y-128446329D01*
X282562440Y-128350000D01*
X282562440Y-128272440D01*
X282640000Y-128272440D01*
X282743671Y-128252933D01*
X282840000Y-128272440D01*
X283040000Y-128272440D01*
X283143671Y-128252933D01*
X283240000Y-128272440D01*
X283440000Y-128272440D01*
X283543671Y-128252933D01*
X283640000Y-128272440D01*
X283640000Y-128272440D01*
G37*
X283640000Y-128272440D02*
X283717560Y-128272440D01*
X283717560Y-128350000D01*
X283737067Y-128453671D01*
X283717560Y-128550000D01*
X283717560Y-128750000D01*
X283730980Y-128821323D01*
X283730000Y-128823690D01*
X283730000Y-128841250D01*
X283735826Y-128847076D01*
X283761838Y-128985317D01*
X283802481Y-129048478D01*
X283768569Y-129098110D01*
X283737572Y-129251178D01*
X283730000Y-129258750D01*
X283730000Y-129276310D01*
X283731667Y-129280335D01*
X283717560Y-129350000D01*
X283717560Y-129427560D01*
X283640000Y-129427560D01*
X283536329Y-129447067D01*
X283440000Y-129427560D01*
X283240000Y-129427560D01*
X283136329Y-129447067D01*
X283040000Y-129427560D01*
X282840000Y-129427560D01*
X282736329Y-129447067D01*
X282640000Y-129427560D01*
X282562440Y-129427560D01*
X282562440Y-129350000D01*
X282542933Y-129246329D01*
X282562440Y-129150000D01*
X282562440Y-128950000D01*
X282542933Y-128846329D01*
X282562440Y-128750000D01*
X282562440Y-128550000D01*
X282542933Y-128446329D01*
X282562440Y-128350000D01*
X282562440Y-128272440D01*
X282640000Y-128272440D01*
X282743671Y-128252933D01*
X282840000Y-128272440D01*
X283040000Y-128272440D01*
X283143671Y-128252933D01*
X283240000Y-128272440D01*
X283440000Y-128272440D01*
X283543671Y-128252933D01*
X283640000Y-128272440D01*
M02*
