G04 #@! TF.FileFunction,Legend,Bot*
%FSLAX46Y46*%
G04 Gerber Fmt 4.6, Leading zero omitted, Abs format (unit mm)*
G04 Created by KiCad (PCBNEW 4.0.6) date 12/13/17 15:16:08*
%MOMM*%
%LPD*%
G01*
G04 APERTURE LIST*
%ADD10C,0.150000*%
%ADD11C,0.127000*%
G04 APERTURE END LIST*
D10*
D11*
X297873856Y-133471714D02*
X297873856Y-133979714D01*
X297873856Y-133544286D02*
X297837571Y-133508000D01*
X297764999Y-133471714D01*
X297656142Y-133471714D01*
X297583571Y-133508000D01*
X297547285Y-133580571D01*
X297547285Y-133979714D01*
X296748999Y-133979714D02*
X297002999Y-133616857D01*
X297184427Y-133979714D02*
X297184427Y-133217714D01*
X296894142Y-133217714D01*
X296821570Y-133254000D01*
X296785285Y-133290286D01*
X296748999Y-133362857D01*
X296748999Y-133471714D01*
X296785285Y-133544286D01*
X296821570Y-133580571D01*
X296894142Y-133616857D01*
X297184427Y-133616857D01*
X296168427Y-133580571D02*
X296422427Y-133580571D01*
X296422427Y-133979714D02*
X296422427Y-133217714D01*
X296059570Y-133217714D01*
X295406427Y-133217714D02*
X295769284Y-133217714D01*
X295805570Y-133580571D01*
X295769284Y-133544286D01*
X295696713Y-133508000D01*
X295515284Y-133508000D01*
X295442713Y-133544286D01*
X295406427Y-133580571D01*
X295370142Y-133653143D01*
X295370142Y-133834571D01*
X295406427Y-133907143D01*
X295442713Y-133943429D01*
X295515284Y-133979714D01*
X295696713Y-133979714D01*
X295769284Y-133943429D01*
X295805570Y-133907143D01*
X295079856Y-133290286D02*
X295043570Y-133254000D01*
X294970999Y-133217714D01*
X294789570Y-133217714D01*
X294716999Y-133254000D01*
X294680713Y-133290286D01*
X294644428Y-133362857D01*
X294644428Y-133435429D01*
X294680713Y-133544286D01*
X295116142Y-133979714D01*
X294644428Y-133979714D01*
X294317856Y-133689429D02*
X293737285Y-133689429D01*
X293410713Y-133762000D02*
X293047856Y-133762000D01*
X293483285Y-133979714D02*
X293229285Y-133217714D01*
X292975285Y-133979714D01*
X292721284Y-133979714D02*
X292721284Y-133217714D01*
X292539856Y-133217714D01*
X292430999Y-133254000D01*
X292358427Y-133326571D01*
X292322142Y-133399143D01*
X292285856Y-133544286D01*
X292285856Y-133653143D01*
X292322142Y-133798286D01*
X292358427Y-133870857D01*
X292430999Y-133943429D01*
X292539856Y-133979714D01*
X292721284Y-133979714D01*
X291995570Y-133943429D02*
X291886713Y-133979714D01*
X291705284Y-133979714D01*
X291632713Y-133943429D01*
X291596427Y-133907143D01*
X291560142Y-133834571D01*
X291560142Y-133762000D01*
X291596427Y-133689429D01*
X291632713Y-133653143D01*
X291705284Y-133616857D01*
X291850427Y-133580571D01*
X291922999Y-133544286D01*
X291959284Y-133508000D01*
X291995570Y-133435429D01*
X291995570Y-133362857D01*
X291959284Y-133290286D01*
X291922999Y-133254000D01*
X291850427Y-133217714D01*
X291668999Y-133217714D01*
X291560142Y-133254000D01*
X290834428Y-133979714D02*
X291269856Y-133979714D01*
X291052142Y-133979714D02*
X291052142Y-133217714D01*
X291124713Y-133326571D01*
X291197285Y-133399143D01*
X291269856Y-133435429D01*
X290544142Y-133290286D02*
X290507856Y-133254000D01*
X290435285Y-133217714D01*
X290253856Y-133217714D01*
X290181285Y-133254000D01*
X290144999Y-133290286D01*
X290108714Y-133362857D01*
X290108714Y-133435429D01*
X290144999Y-133544286D01*
X290580428Y-133979714D01*
X290108714Y-133979714D01*
X289745857Y-133979714D02*
X289600714Y-133979714D01*
X289528142Y-133943429D01*
X289491857Y-133907143D01*
X289419285Y-133798286D01*
X289383000Y-133653143D01*
X289383000Y-133362857D01*
X289419285Y-133290286D01*
X289455571Y-133254000D01*
X289528142Y-133217714D01*
X289673285Y-133217714D01*
X289745857Y-133254000D01*
X289782142Y-133290286D01*
X289818428Y-133362857D01*
X289818428Y-133544286D01*
X289782142Y-133616857D01*
X289745857Y-133653143D01*
X289673285Y-133689429D01*
X289528142Y-133689429D01*
X289455571Y-133653143D01*
X289419285Y-133616857D01*
X289383000Y-133544286D01*
X289020143Y-133979714D02*
X288875000Y-133979714D01*
X288802428Y-133943429D01*
X288766143Y-133907143D01*
X288693571Y-133798286D01*
X288657286Y-133653143D01*
X288657286Y-133362857D01*
X288693571Y-133290286D01*
X288729857Y-133254000D01*
X288802428Y-133217714D01*
X288947571Y-133217714D01*
X289020143Y-133254000D01*
X289056428Y-133290286D01*
X289092714Y-133362857D01*
X289092714Y-133544286D01*
X289056428Y-133616857D01*
X289020143Y-133653143D01*
X288947571Y-133689429D01*
X288802428Y-133689429D01*
X288729857Y-133653143D01*
X288693571Y-133616857D01*
X288657286Y-133544286D01*
X288330714Y-133689429D02*
X287750143Y-133689429D01*
X287060714Y-133471714D02*
X287060714Y-133979714D01*
X287242143Y-133181429D02*
X287423571Y-133725714D01*
X286951857Y-133725714D01*
X286153572Y-133471714D02*
X286008429Y-133979714D01*
X285863286Y-133616857D01*
X285718143Y-133979714D01*
X285573000Y-133471714D01*
X285282714Y-133979714D02*
X285282714Y-133471714D01*
X285282714Y-133217714D02*
X285319000Y-133254000D01*
X285282714Y-133290286D01*
X285246429Y-133254000D01*
X285282714Y-133217714D01*
X285282714Y-133290286D01*
X285028715Y-133471714D02*
X284738429Y-133471714D01*
X284919857Y-133217714D02*
X284919857Y-133870857D01*
X284883572Y-133943429D01*
X284811000Y-133979714D01*
X284738429Y-133979714D01*
X284484428Y-133979714D02*
X284484428Y-133217714D01*
X284157857Y-133979714D02*
X284157857Y-133580571D01*
X284194143Y-133508000D01*
X284266714Y-133471714D01*
X284375571Y-133471714D01*
X284448143Y-133508000D01*
X284484428Y-133544286D01*
X283214428Y-133979714D02*
X283214428Y-133217714D01*
X282960428Y-133762000D01*
X282706428Y-133217714D01*
X282706428Y-133979714D01*
X282343571Y-133979714D02*
X282343571Y-133217714D01*
X282053286Y-133217714D01*
X281980714Y-133254000D01*
X281944429Y-133290286D01*
X281908143Y-133362857D01*
X281908143Y-133471714D01*
X281944429Y-133544286D01*
X281980714Y-133580571D01*
X282053286Y-133616857D01*
X282343571Y-133616857D01*
X281581571Y-133217714D02*
X281581571Y-133834571D01*
X281545286Y-133907143D01*
X281509000Y-133943429D01*
X281436429Y-133979714D01*
X281291286Y-133979714D01*
X281218714Y-133943429D01*
X281182429Y-133907143D01*
X281146143Y-133834571D01*
X281146143Y-133217714D01*
X294843999Y-134850571D02*
X294589999Y-134850571D01*
X294481142Y-135249714D02*
X294843999Y-135249714D01*
X294843999Y-134487714D01*
X294481142Y-134487714D01*
X294227142Y-135249714D02*
X293827999Y-134741714D01*
X294227142Y-134741714D02*
X293827999Y-135249714D01*
X293138571Y-134524000D02*
X293211142Y-134487714D01*
X293319999Y-134487714D01*
X293428856Y-134524000D01*
X293501428Y-134596571D01*
X293537713Y-134669143D01*
X293573999Y-134814286D01*
X293573999Y-134923143D01*
X293537713Y-135068286D01*
X293501428Y-135140857D01*
X293428856Y-135213429D01*
X293319999Y-135249714D01*
X293247428Y-135249714D01*
X293138571Y-135213429D01*
X293102285Y-135177143D01*
X293102285Y-134923143D01*
X293247428Y-134923143D01*
X292195142Y-135249714D02*
X292195142Y-134487714D01*
X291904857Y-134487714D01*
X291832285Y-134524000D01*
X291796000Y-134560286D01*
X291759714Y-134632857D01*
X291759714Y-134741714D01*
X291796000Y-134814286D01*
X291832285Y-134850571D01*
X291904857Y-134886857D01*
X292195142Y-134886857D01*
X291433142Y-135249714D02*
X291433142Y-134741714D01*
X291433142Y-134886857D02*
X291396857Y-134814286D01*
X291360571Y-134778000D01*
X291288000Y-134741714D01*
X291215428Y-134741714D01*
X290852571Y-135249714D02*
X290925143Y-135213429D01*
X290961428Y-135177143D01*
X290997714Y-135104571D01*
X290997714Y-134886857D01*
X290961428Y-134814286D01*
X290925143Y-134778000D01*
X290852571Y-134741714D01*
X290743714Y-134741714D01*
X290671143Y-134778000D01*
X290634857Y-134814286D01*
X290598571Y-134886857D01*
X290598571Y-135104571D01*
X290634857Y-135177143D01*
X290671143Y-135213429D01*
X290743714Y-135249714D01*
X290852571Y-135249714D01*
X290380857Y-134741714D02*
X290090571Y-134741714D01*
X290271999Y-134487714D02*
X290271999Y-135140857D01*
X290235714Y-135213429D01*
X290163142Y-135249714D01*
X290090571Y-135249714D01*
X289727713Y-135249714D02*
X289800285Y-135213429D01*
X289836570Y-135177143D01*
X289872856Y-135104571D01*
X289872856Y-134886857D01*
X289836570Y-134814286D01*
X289800285Y-134778000D01*
X289727713Y-134741714D01*
X289618856Y-134741714D01*
X289546285Y-134778000D01*
X289509999Y-134814286D01*
X289473713Y-134886857D01*
X289473713Y-135104571D01*
X289509999Y-135177143D01*
X289546285Y-135213429D01*
X289618856Y-135249714D01*
X289727713Y-135249714D01*
X289255999Y-134741714D02*
X288965713Y-134741714D01*
X289147141Y-134487714D02*
X289147141Y-135140857D01*
X289110856Y-135213429D01*
X289038284Y-135249714D01*
X288965713Y-135249714D01*
X288784284Y-134741714D02*
X288602855Y-135249714D01*
X288421427Y-134741714D02*
X288602855Y-135249714D01*
X288675427Y-135431143D01*
X288711712Y-135467429D01*
X288784284Y-135503714D01*
X288131141Y-134741714D02*
X288131141Y-135503714D01*
X288131141Y-134778000D02*
X288058570Y-134741714D01*
X287913427Y-134741714D01*
X287840856Y-134778000D01*
X287804570Y-134814286D01*
X287768284Y-134886857D01*
X287768284Y-135104571D01*
X287804570Y-135177143D01*
X287840856Y-135213429D01*
X287913427Y-135249714D01*
X288058570Y-135249714D01*
X288131141Y-135213429D01*
X287151427Y-135213429D02*
X287223998Y-135249714D01*
X287369141Y-135249714D01*
X287441712Y-135213429D01*
X287477998Y-135140857D01*
X287477998Y-134850571D01*
X287441712Y-134778000D01*
X287369141Y-134741714D01*
X287223998Y-134741714D01*
X287151427Y-134778000D01*
X287115141Y-134850571D01*
X287115141Y-134923143D01*
X287477998Y-134995714D01*
X286280570Y-134741714D02*
X286099141Y-135249714D01*
X285917713Y-134741714D01*
X285699999Y-134487714D02*
X285228285Y-134487714D01*
X285482285Y-134778000D01*
X285373427Y-134778000D01*
X285300856Y-134814286D01*
X285264570Y-134850571D01*
X285228285Y-134923143D01*
X285228285Y-135104571D01*
X285264570Y-135177143D01*
X285300856Y-135213429D01*
X285373427Y-135249714D01*
X285591142Y-135249714D01*
X285663713Y-135213429D01*
X285699999Y-135177143D01*
X284901713Y-135177143D02*
X284865428Y-135213429D01*
X284901713Y-135249714D01*
X284937999Y-135213429D01*
X284901713Y-135177143D01*
X284901713Y-135249714D01*
X284393714Y-134487714D02*
X284321142Y-134487714D01*
X284248571Y-134524000D01*
X284212285Y-134560286D01*
X284175999Y-134632857D01*
X284139714Y-134778000D01*
X284139714Y-134959429D01*
X284175999Y-135104571D01*
X284212285Y-135177143D01*
X284248571Y-135213429D01*
X284321142Y-135249714D01*
X284393714Y-135249714D01*
X284466285Y-135213429D01*
X284502571Y-135177143D01*
X284538856Y-135104571D01*
X284575142Y-134959429D01*
X284575142Y-134778000D01*
X284538856Y-134632857D01*
X284502571Y-134560286D01*
X284466285Y-134524000D01*
X284393714Y-134487714D01*
X295188715Y-136156857D02*
X295188715Y-136519714D01*
X295442715Y-135757714D02*
X295188715Y-136156857D01*
X294934715Y-135757714D01*
X294390429Y-136483429D02*
X294463000Y-136519714D01*
X294608143Y-136519714D01*
X294680714Y-136483429D01*
X294717000Y-136410857D01*
X294717000Y-136120571D01*
X294680714Y-136048000D01*
X294608143Y-136011714D01*
X294463000Y-136011714D01*
X294390429Y-136048000D01*
X294354143Y-136120571D01*
X294354143Y-136193143D01*
X294717000Y-136265714D01*
X293918714Y-136519714D02*
X293991286Y-136483429D01*
X294027571Y-136447143D01*
X294063857Y-136374571D01*
X294063857Y-136156857D01*
X294027571Y-136084286D01*
X293991286Y-136048000D01*
X293918714Y-136011714D01*
X293809857Y-136011714D01*
X293737286Y-136048000D01*
X293701000Y-136084286D01*
X293664714Y-136156857D01*
X293664714Y-136374571D01*
X293701000Y-136447143D01*
X293737286Y-136483429D01*
X293809857Y-136519714D01*
X293918714Y-136519714D01*
X292358429Y-135794000D02*
X292431000Y-135757714D01*
X292539857Y-135757714D01*
X292648714Y-135794000D01*
X292721286Y-135866571D01*
X292757571Y-135939143D01*
X292793857Y-136084286D01*
X292793857Y-136193143D01*
X292757571Y-136338286D01*
X292721286Y-136410857D01*
X292648714Y-136483429D01*
X292539857Y-136519714D01*
X292467286Y-136519714D01*
X292358429Y-136483429D01*
X292322143Y-136447143D01*
X292322143Y-136193143D01*
X292467286Y-136193143D01*
X291669000Y-136519714D02*
X291669000Y-136120571D01*
X291705286Y-136048000D01*
X291777857Y-136011714D01*
X291923000Y-136011714D01*
X291995571Y-136048000D01*
X291669000Y-136483429D02*
X291741571Y-136519714D01*
X291923000Y-136519714D01*
X291995571Y-136483429D01*
X292031857Y-136410857D01*
X292031857Y-136338286D01*
X291995571Y-136265714D01*
X291923000Y-136229429D01*
X291741571Y-136229429D01*
X291669000Y-136193143D01*
X291415000Y-135757714D02*
X290979571Y-135757714D01*
X291197285Y-136519714D02*
X291197285Y-135757714D01*
X290435286Y-136483429D02*
X290507857Y-136519714D01*
X290653000Y-136519714D01*
X290725571Y-136483429D01*
X290761857Y-136410857D01*
X290761857Y-136120571D01*
X290725571Y-136048000D01*
X290653000Y-136011714D01*
X290507857Y-136011714D01*
X290435286Y-136048000D01*
X290399000Y-136120571D01*
X290399000Y-136193143D01*
X290761857Y-136265714D01*
X289745857Y-136483429D02*
X289818428Y-136519714D01*
X289963571Y-136519714D01*
X290036143Y-136483429D01*
X290072428Y-136447143D01*
X290108714Y-136374571D01*
X290108714Y-136156857D01*
X290072428Y-136084286D01*
X290036143Y-136048000D01*
X289963571Y-136011714D01*
X289818428Y-136011714D01*
X289745857Y-136048000D01*
X289419285Y-136519714D02*
X289419285Y-135757714D01*
X289092714Y-136519714D02*
X289092714Y-136120571D01*
X289129000Y-136048000D01*
X289201571Y-136011714D01*
X289310428Y-136011714D01*
X289383000Y-136048000D01*
X289419285Y-136084286D01*
X287895285Y-136120571D02*
X287786428Y-136156857D01*
X287750143Y-136193143D01*
X287713857Y-136265714D01*
X287713857Y-136374571D01*
X287750143Y-136447143D01*
X287786428Y-136483429D01*
X287859000Y-136519714D01*
X288149285Y-136519714D01*
X288149285Y-135757714D01*
X287895285Y-135757714D01*
X287822714Y-135794000D01*
X287786428Y-135830286D01*
X287750143Y-135902857D01*
X287750143Y-135975429D01*
X287786428Y-136048000D01*
X287822714Y-136084286D01*
X287895285Y-136120571D01*
X288149285Y-136120571D01*
X287387285Y-136519714D02*
X287387285Y-135757714D01*
X286951857Y-136519714D01*
X286951857Y-135757714D01*
X286588999Y-136120571D02*
X286334999Y-136120571D01*
X286226142Y-136519714D02*
X286588999Y-136519714D01*
X286588999Y-135757714D01*
X286226142Y-135757714D01*
X284956142Y-136519714D02*
X285318999Y-136519714D01*
X285318999Y-135757714D01*
X284375571Y-136519714D02*
X284375571Y-136120571D01*
X284411857Y-136048000D01*
X284484428Y-136011714D01*
X284629571Y-136011714D01*
X284702142Y-136048000D01*
X284375571Y-136483429D02*
X284448142Y-136519714D01*
X284629571Y-136519714D01*
X284702142Y-136483429D01*
X284738428Y-136410857D01*
X284738428Y-136338286D01*
X284702142Y-136265714D01*
X284629571Y-136229429D01*
X284448142Y-136229429D01*
X284375571Y-136193143D01*
X284012713Y-136519714D02*
X284012713Y-135757714D01*
X284012713Y-136048000D02*
X283940142Y-136011714D01*
X283794999Y-136011714D01*
X283722428Y-136048000D01*
X283686142Y-136084286D01*
X283649856Y-136156857D01*
X283649856Y-136374571D01*
X283686142Y-136447143D01*
X283722428Y-136483429D01*
X283794999Y-136519714D01*
X283940142Y-136519714D01*
X284012713Y-136483429D01*
M02*
