M48
;DRILL file {KiCad 4.0.6} date 12/04/17 16:36:59
;FORMAT={-:-/ absolute / inch / decimal}
FMAT,2
INCH,TZ
T1C0.013
T2C0.039
T3C0.040
%
G90
G05
M72
T1
X10.7539Y-5.124
X10.7643Y-5.6097
X10.8102Y-5.0965
X10.8126Y-5.3941
X10.8315Y-5.1567
X10.8984Y-5.0559
X10.8996Y-5.5768
X10.9819Y-5.1039
X10.9886Y-5.0602
X11.0201Y-5.1043
X11.0567Y-5.6126
X11.0571Y-5.1024
X11.1114Y-5.1681
X11.1142Y-5.4213
X11.1496Y-5.5827
X11.1504Y-5.2386
X11.1909Y-5.6563
X11.2098Y-5.0102
X11.2579Y-5.5768
X11.3287Y-5.4646
X11.4134Y-5.7106
X11.5236Y-5.2795
X11.5394Y-5.6949
X11.835Y-5.1366
X11.8795Y-5.2854
X11.9012Y-5.3803
X11.9535Y-5.3063
X12.0012Y-5.2063
X12.0031Y-5.1185
X12.1024Y-5.2102
X12.1091Y-5.4346
X12.1134Y-5.3823
T2
X12.3094Y-5.0535
X12.3094Y-5.1535
X12.3094Y-5.2535
X12.3094Y-5.3535
X12.3094Y-5.4535
X12.3094Y-5.5535
T3
X10.5575Y-5.5276
X10.5575Y-5.6276
X11.8197Y-5.0024
X11.9197Y-5.0024
T0
M30
